<svg width="42" height="42" viewBox="0 0 42 42" fill="none" xmlns="http://www.w3.org/2000/svg">
<path d="M24.0642 20.6769L31.7373 13.0039C32.1015 12.6403 32.3063 12.1471 32.3068 11.6325C32.3072 11.118 32.1033 10.6243 31.7397 10.2601C31.3762 9.89597 30.8829 9.69113 30.3684 9.69068C29.8538 9.69022 29.3602 9.89419 28.996 10.2577L21.3229 17.9308L13.6499 10.2577C13.2857 9.89355 12.7918 9.68896 12.2768 9.68896C11.7618 9.68896 11.2679 9.89355 10.9037 10.2577C10.5395 10.6219 10.335 11.1158 10.335 11.6308C10.335 12.1458 10.5395 12.6397 10.9037 13.0039L18.5768 20.6769L10.9037 28.35C10.5395 28.7142 10.335 29.2081 10.335 29.7231C10.335 30.2381 10.5395 30.732 10.9037 31.0962C11.2679 31.4603 11.7618 31.6649 12.2768 31.6649C12.7918 31.6649 13.2857 31.4603 13.6499 31.0962L21.3229 23.4231L28.996 31.0962C29.3602 31.4603 29.8541 31.6649 30.3691 31.6649C30.8841 31.6649 31.378 31.4603 31.7422 31.0962C32.1063 30.732 32.3109 30.2381 32.3109 29.7231C32.3109 29.2081 32.1063 28.7142 31.7422 28.35L24.0642 20.6769Z" fill="#C3C2C2"/>
<circle cx="0.323077" cy="0.323077" r="0.323077" fill="#C3C2C2"/>
<circle cx="0.323077" cy="20.5961" r="0.323077" fill="#C3C2C2"/>
<circle cx="0.323077" cy="40.8691" r="0.323077" fill="#C3C2C2"/>
</svg>
