<svg width="38" height="38" viewBox="0 0 38 38" fill="none" xmlns="http://www.w3.org/2000/svg">
<g clip-path="url(#clip0_213_351)">
<path fill-rule="evenodd" clip-rule="evenodd" d="M29.1491 5.20442C29.2699 5.37367 29.3562 5.56506 29.4031 5.76766C29.4499 5.97026 29.4564 6.1801 29.4222 6.38521C29.3879 6.59032 29.3136 6.78667 29.2034 6.96304C29.0933 7.13942 28.9495 7.29238 28.7802 7.41317L25.4536 9.78976C24.942 10.1547 24.5529 10.6661 24.3375 11.2565C24.1221 11.8469 24.0906 12.4887 24.2471 13.0973L29.5402 7.80426C29.6863 7.65303 29.861 7.53241 30.0541 7.44943C30.2473 7.36645 30.4551 7.32277 30.6653 7.32094C30.8755 7.31912 31.084 7.35918 31.2786 7.43879C31.4732 7.5184 31.65 7.63597 31.7987 7.78463C31.9473 7.93329 32.0649 8.11008 32.1445 8.30466C32.2241 8.49925 32.2642 8.70774 32.2623 8.91797C32.2605 9.12821 32.2168 9.33597 32.1339 9.52915C32.0509 9.72232 31.9303 9.89703 31.779 10.0431L26.4859 15.3362C27.0946 15.4927 27.7364 15.4611 28.3268 15.2458C28.9172 15.0304 29.4286 14.6413 29.7935 14.1297L32.1701 10.8031C32.4186 10.4733 32.7861 10.2537 33.1942 10.191C33.6023 10.1284 34.0188 10.2276 34.3548 10.4676C34.6908 10.7075 34.9198 11.0693 34.9929 11.4756C35.066 11.882 34.9775 12.3009 34.7462 12.6429L32.3712 15.9711C31.4597 17.2468 30.1039 18.1355 28.5705 18.4625C27.037 18.7895 25.4367 18.5311 24.084 17.7381L21.3354 20.4868L28.9401 28.0931C29.2285 28.3917 29.3881 28.7917 29.3845 29.2068C29.3809 29.622 29.2144 30.0191 28.9208 30.3126C28.6273 30.6062 28.2301 30.7727 27.815 30.7763C27.3999 30.7799 26.9999 30.6203 26.7013 30.3319L19.0965 22.7272L11.6264 30.1958C11.4803 30.347 11.3056 30.4676 11.1124 30.5506C10.9192 30.6336 10.7115 30.6772 10.5012 30.6791C10.291 30.6809 10.0825 30.6408 9.88794 30.5612C9.69335 30.4816 9.51657 30.364 9.36791 30.2154C9.21924 30.0667 9.10167 29.8899 9.02206 29.6953C8.94245 29.5008 8.90239 29.2923 8.90422 29.082C8.90605 28.8718 8.94972 28.664 9.0327 28.4709C9.11569 28.2777 9.23631 28.103 9.38753 27.9569L16.8561 20.4868L14.3861 18.0168L12.1473 20.2556C11.8504 20.5524 11.4477 20.7192 11.0279 20.7192C10.608 20.7192 10.2054 20.5524 9.90845 20.2556L6.4172 16.7659C5.24231 15.5909 4.46695 14.0759 4.20097 12.4356C3.93498 10.7954 4.19186 9.11305 4.9352 7.62692C5.23286 7.03159 5.57328 6.49484 6.29528 6.37609C6.54285 6.33598 6.79641 6.35526 7.03508 6.43234C7.27374 6.50941 7.49068 6.64208 7.66803 6.81942L15.5008 14.6522L15.5071 14.6585L19.0981 18.2495L21.8468 15.5008C21.0543 14.1483 20.7961 12.5484 21.1231 11.0153C21.45 9.48219 22.3384 8.12675 23.6138 7.21526L26.9419 4.83867C27.2836 4.5945 27.7082 4.49603 28.1224 4.56492C28.5366 4.6338 28.9065 4.86441 29.1507 5.20601L29.1491 5.20442Z" fill="#565656"/>
</g>
<defs>
<clipPath id="clip0_213_351">
<rect width="38" height="38" fill="white"/>
</clipPath>
</defs>
</svg>
