<svg width="33" height="33" viewBox="0 0 33 33" fill="none" xmlns="http://www.w3.org/2000/svg">
<path d="M16.5 0C7.425 0 0 7.425 0 16.5C0 25.575 7.425 33 16.5 33C25.575 33 33 25.575 33 16.5C33 7.425 25.575 0 16.5 0ZM16.5 4.125C23.3475 4.125 28.875 9.6525 28.875 16.5C28.875 23.3475 23.3475 28.875 16.5 28.875C9.6525 28.875 4.125 23.3475 4.125 16.5C4.125 9.6525 9.6525 4.125 16.5 4.125ZM14.4375 8.25V17.4075L15.0975 17.9438L17.16 20.0063L18.5625 21.5737L21.5325 18.6038L19.965 17.2013L18.5625 15.7987V8.3325H14.4375V8.25Z" fill="#605656"/>
</svg>
