<svg version="1.2" xmlns="http://www.w3.org/2000/svg" viewBox="0 0 1546 1023" width="1546" height="1023">
	<title>Untitled-2-ai</title>
	<style>
		.s0 { fill: #deeff7 } 
		.s1 { fill: #efdcd7 } 
		.s2 { opacity: .2;fill: #5f5f5f } 
		.s3 { fill: none;stroke: #5f5f5f;stroke-linecap: round;stroke-linejoin: round;stroke-width: 4 } 
		.s4 { fill: #3c2c5b } 
		.s5 { fill: #ffc930 } 
		.s6 { opacity: .3;fill: #d59d00 } 
		.s7 { fill: #786f54 } 
		.s8 { fill: none;stroke: #3c2c5b;stroke-linecap: round;stroke-linejoin: round;stroke-width: 4 } 
		.s9 { fill: #fe4f32 } 
		.s10 { opacity: .3;fill: #4a1911 } 
		.s11 { fill: none;stroke: #4a1911;stroke-linecap: round;stroke-linejoin: round;stroke-width: 4 } 
		.s12 { fill: #c4c4c4 } 
		.s13 { fill: none;stroke: #493b11;stroke-linecap: round;stroke-linejoin: round;stroke-width: 4 } 
		.s14 { fill: none;stroke: #30373a;stroke-linecap: round;stroke-linejoin: round;stroke-width: 4 } 
		.s15 { fill: #61ccff } 
		.s16 { fill: #f8cdcd;stroke: #ffffff;stroke-miterlimit:10 } 
		.s17 { opacity: .3;fill: #ffffff } 
		.s18 { fill: none;stroke: #111213;stroke-linecap: round;stroke-linejoin: round;stroke-width: 4 } 
		.s19 { fill: #ffffff } 
		.s20 { fill: #ffffff;stroke: #cccccc;stroke-miterlimit:10 } 
		.s21 { fill: #9e76dd;stroke: #cccccc;stroke-miterlimit:10 } 
		.s22 { fill: #231f20;stroke: #cccccc;stroke-miterlimit:10 } 
		.s23 { fill: #9e76dd } 
		.s24 { opacity: .2;fill: #756392 } 
		.s25 { fill: #745600 } 
		.s26 { fill: #bc8b00 } 
		.s27 { fill: #ffbd03 } 
		.s28 { fill: #372d0f } 
		.s29 { opacity: .2;fill: #000000 } 
		.s30 { fill: none;stroke: #000000;stroke-linecap: round;stroke-linejoin: round;stroke-width: 4 } 
		.s31 { fill: none;stroke: #404040;stroke-linecap: round;stroke-linejoin: round;stroke-width: 4 } 
		.s32 { opacity: .2;fill: #bc8b00 } 
		.s33 { opacity: .2;fill: #372d0f } 
		.s34 { fill: #000000 } 
		.s35 { fill: #ff4f32 } 
		.s36 { fill: #fdebe8 } 
		.s37 { opacity: .2;fill: #332f23 } 
		.s38 { fill: #e5e5e5;stroke: #cccccc;stroke-miterlimit:10 } 
		.s39 { fill: #141414 } 
		.s40 { fill: #bcbcbc } 
		.s41 { fill: #fffefc } 
		.s42 { fill: none;stroke: #ffffff;stroke-linecap: round;stroke-linejoin: round;stroke-width: 4 } 
		.s43 { fill: #cecece } 
		.s44 { fill: #0c0c0c } 
		.s45 { opacity: .2;fill: #ff4f32 } 
		.s46 { fill: none;stroke: #2a2a2a;stroke-linecap: round;stroke-linejoin: round;stroke-width: 4 } 
		.s47 { fill: none;stroke: #030303;stroke-linecap: round;stroke-linejoin: round;stroke-width: 4 } 
		.s48 { opacity: .2;fill: #0c0c0c } 
		.s49 { fill: #996b4d } 
		.s50 { opacity: .3;fill: #000000 } 
		.s51 { opacity: .3;fill: #191919 } 
		.s52 { fill: #231f20 } 
		.s53 { fill: none;stroke: #191919;stroke-linecap: round;stroke-linejoin: round;stroke-width: 4 } 
	</style>
	<g id="Layer 1">
		<g id="&lt;Group&gt;">
			<g id="&lt;Group&gt;">
				<path id="&lt;Path&gt;" class="s0" d="m1374.2 453.2c-16.3-61.9-56.2-116.5-112.8-148.2-16.9-9.7-35.8-17.4-48.5-32-18.9-20.8-21.3-49.8-35.1-73.1-15-25.4-40.8-46.5-66.6-60.2-35.1-18.9-73.9-28.6-112.5-37.2-43.4-9.4-87.4-16.3-131.6-21.2-84.1-9.4-167.9-7.3-251.6 4.7-74.1 10.8-145.1 32.6-213.4 62.8-68.7 30.2-145.5 72-192 131.9-13.3 17-24.3 35.3-36.6 52.8-41.9 59-82.2 103-93.1 177.9-13 90.1-5.6 189.4 51.4 264.6 52.3 69.1 128.6 109.1 211.3 131.6 36.8 10.1 74.8 16.7 112.5 22.3 50.3 7.5 101 13.5 151.7 17.2 92.4 6.7 185.4 6 277.8-1.5 50.5-4.3 100.8-10.5 150.9-18.4 42.9-6.9 85.8-15.9 126.5-31.7 45-17.3 85.4-39.5 122.1-71 35.8-30.7 60.9-69.7 78.2-112.9 29.9-75.9 32-175.9 12.4-254.6-0.3-1.2-0.8-2.6-1-3.8z"/>
			</g>
			<g id="&lt;Group&gt;">
				<g id="&lt;Group&gt;">
					<path id="&lt;Path&gt;" class="s1" d="m842.7 912.5v-186.5h12.3v186.5z"/>
					<path id="&lt;Path&gt;" class="s1" d="m1214.1 912.5v-186.5h12.3v186.5z"/>
					<path id="&lt;Path&gt;" class="s2" d="m1214.1 744.8v-18.8h12.3v13.9z"/>
					<path id="&lt;Path&gt;" class="s2" d="m842.7 744.8v-18.8h12.3v13.9z"/>
					<path id="&lt;Path&gt;" class="s3" d="m1226.4 728.6h-12.3"/>
					<path id="&lt;Path&gt;" class="s3" d="m855 728.6h-12.3"/>
					<path id="&lt;Path&gt;" class="s1" d="m819.6 727.8v-11.2h429.9v11.2z"/>
				</g>
				<g id="&lt;Group&gt;">
					<path id="&lt;Path&gt;" class="s4" d="m1159.6 707.6l3.8-11.2h18.6l3.6 10.8h-12.4z"/>
					<path id="&lt;Path&gt;" class="s5" d="m1172.7 700.5c-17.3 0-31.3-15.3-31.3-34.1 10.4 0 21.2 4.5 31.6 4.5 10.5 0 20.6-4.5 31-4.5-3 19.9-17 34.1-31.3 34.1z"/>
					<path id="&lt;Path&gt;" class="s6" d="m1172.7 700.5c-1.4 0.1-2.9 0-4.4-0.3 15.3-2.4 26.9-16.9 26.9-33.8h8.8c-3.3 19-15 33.2-31.3 34.1z"/>
					<path id="&lt;Path&gt;" class="s7" d="m1172.7 677.7c-19.8 0-29.4-9.7-30.7-11.1-0.1-0.1 0-0.2 0.1-0.2h61.3c0.1 0 0.1 0.1 0.1 0.2-1.5 1.6-11.2 11.1-30.8 11.1z"/>
					<path id="&lt;Path&gt;" class="s8" d="m1172.7 660.6v16.4"/>
					<path id="&lt;Path&gt;" class="s4" d="m1165.1 660.6c-1.2 0-2.3-1-2.3-2.3v-5.1h19.7v5.1c0 1.3-1.1 2.3-2.4 2.3z"/>
					<path id="&lt;Path&gt;" class="s4" d="m1182.1 644.2c-1.2 0-2.2-1-2.2-2.2v-4.3c0-1.2 1-2.2 2.2-2.2h15.2c1.2 0 2.2 1 2.2 2.2v4.2c0 1.2-1 2.2-2.2 2.2z"/>
					<path id="&lt;Path&gt;" class="s9" d="m1097.8 716.6c0.3-6.9 3.7-10.4 7.3-14 3.5-3.6 7.2-7.3 8.1-14.6 1.8-13.7 4.8-37.8 4.9-38h15.7l6.2 56.7h49.3c3.1 0 6 1.5 7.7 4l4.1 5.9z"/>
					<path id="&lt;Path&gt;" class="s10" d="m1140 706.7c-7 0-12.8-5.4-13.3-12.3l-1.8-23.3c-0.5-5-3.5-9.3-8.1-11.4l1.3-9.7h15.7z"/>
					<path id="&lt;Path&gt;" class="s11" d="m1140 706.7h-12.9"/>
					<path id="&lt;Path&gt;" class="s9" d="m1105.1 644.6c0-0.1-0.2-0.2-0.3-0.4 0 0-0.7-2.4-0.8-4.7 0-2 4.8-8.7 14.4-14.3h62.8c7.9 0 14.3 6.4 14.3 14.3 0 1.6-0.2 3.2-0.8 4.7l-0.1 0.2z"/>
					<path id="&lt;Path&gt;" class="s5" d="m1118.4 653.8c-6.1 0-11.6-3.9-13.6-9.6h89.9c-2 5.8-7.4 9.7-13.5 9.7z"/>
					<path id="&lt;Path&gt;" class="s11" d="m1134.3 653.9l-16.7-0.1"/>
				</g>
				<path id="&lt;Path&gt;" class="s12" d="m1045.3 708.5c-1.4-6.5-8.4-5.2-9.7-11.8-1.3-6.1-2.5-12.1-3.7-18.2v-0.1q0 0 0 0h42.5q0 0 0 0.1-1.9 9.3-3.8 18.7c-1.3 6.4-7.3 4.6-8.6 11l-0.6-2.3-0.2 3.9-12.8-0.1c0 0.1-3.1-1.1-3.1-1.2z"/>
				<path id="&lt;Path&gt;" class="s5" d="m1055.4 709.3l-8.1-43 2.5-0.4q0.3-0.1 0.5-0.1l0.1-0.1c1.4-0.4 2.4-1.3 3.1-2.5 0.6-1.2 0.7-2.6 0.3-3.9l-5-16.2c-0.1-0.5-0.6-0.8-1.1-0.8 0 0-0.1 0-0.2 0l-15.1 2.7c-0.6 0.1-1 0.6-0.9 1.2l0.9 16.9v0.7c0.5 2.4 2.6 4.2 5.1 4.2q0.5 0 0.9-0.1l2.5-0.4 7.3 43.1q0 0 0 0c0.3 1.8 1.8 3.1 3.6 3.1q0.3 0 0.6-0.1h0.1c1-0.2 1.8-0.7 2.4-1.6 0.5-0.8 0.7-1.8 0.5-2.7z"/>
				<path id="&lt;Path&gt;" class="s13" d="m1041.1 650.2l1.8 9.9"/>
				<path id="&lt;Path&gt;" class="s13" d="m1045.6 649.4l1.7 9.9"/>
				<path id="&lt;Path&gt;" class="s13" d="m1036.7 651l1.8 9.9"/>
				<path id="&lt;Path&gt;" class="s14" d="m1066.9 668l10.2-39.8"/>
				<path id="&lt;Path&gt;" class="s14" d="m1077.1 628.2h-0.1c-6-1.5-15.1-0.5-16 15.2-0.7 14.2 4.5 24.7 4.5 24.7l2.6 0.7c0 0 9.6-6.8 15.8-19.6 6.8-14.2-0.8-19.4-6.8-21z"/>
				<path id="&lt;Path&gt;" class="s14" d="m1077.1 628.2h-0.1c-3.3-0.8-8.6 1.2-10.8 16.5-2 13.9-0.1 23.6-0.1 23.6l1.4 0.4c0 0 6.3-7.6 11.2-20.8 5.4-14.5 1.7-18.8-1.6-19.7z"/>
				<path id="&lt;Path&gt;" class="s15" d="m1056.1 714.7c-0.4 0-0.7-0.1-1-0.1-1-0.3-1.9-0.9-2.4-1.8-0.4-0.8-0.6-1.7-0.3-2.6l11.7-44 6.1 1.6-10.7 44.3c-0.3 1.5-1.7 2.6-3.4 2.6z"/>
				<path id="&lt;Path&gt;" class="s14" d="m1062.3 665.7l9.8 2.5"/>
				<path id="&lt;Path&gt;" class="s16" d="m1039.6 716.3l-7.7-37.8c0 0 0 0 0 0 0.6 0.7 7.6 9.1 21.2 9.1 13.7 0 20.6-8.3 21.2-9.1 0 0 0.1 0 0.1 0l-7.7 37.8c0 0 0 0 0 0h-27.1q0 0.1 0 0z"/>
				<path id="&lt;Path&gt;" class="s17" d="m1058.3 716.4l3.5-29.9c7.9-2.4 12.1-7.4 12.5-8 0 0 0.1 0 0.1 0l-7.7 37.9z"/>
			</g>
			<g id="&lt;Group&gt;">
				<path id="&lt;Path&gt;" class="s15" d="m1353.8 559.6h101.4c21 0 37.9 17 37.9 38v307.9h-177.3v-307.9c0-21 17-38 38-38z"/>
				<path id="&lt;Path&gt;" class="s18" d="m1315.8 665.3h177.3"/>
				<path id="&lt;Path&gt;" class="s18" d="m1315.8 675.3h177.3"/>
				<path id="&lt;Path&gt;" class="s19" d="m1407.1 703.4l-54 6c-3.2 0.4-6.1-1.9-6.5-5.1 0-0.2 0-0.5 0-0.7v-6.6c0-3.2 2.6-5.8 5.8-5.8 0.2 0 0.4 0 0.6 0l54 6.1c1.6 0.2 2.8 1.4 2.8 3 0 1.6-1.1 2.9-2.7 3.1z"/>
				<path id="&lt;Path&gt;" class="s19" d="m1407.1 642.8l-54 6.1c-3.2 0.3-6.1-2-6.5-5.2 0-0.2 0-0.4 0-0.6v-6.6c0-3.2 2.6-5.9 5.8-5.9 0.2 0 0.4 0 0.6 0.1l54 6c1.6 0.2 2.8 1.5 2.8 3 0 1.7-1.1 2.9-2.7 3.1z"/>
			</g>
			<g id="&lt;Group&gt;">
				<path id="&lt;Path&gt;" class="s20" d="m1153 75.5h250.2c19.8 0 35.9 16.1 35.9 35.9v237.5c0 19.8-16.1 35.8-35.9 35.8h-250.2c-19.8 0-35.8-16-35.8-35.8v-237.5c-0.1-19.8 16-35.9 35.8-35.9z"/>
				<path id="&lt;Path&gt;" class="s21" d="m1250.2 353.3c4.6 0 8.4-3.8 8.4-8.4 0-4.6-3.8-8.4-8.4-8.4-4.6 0-8.4 3.8-8.4 8.4 0 4.6 3.8 8.4 8.4 8.4z"/>
				<path id="&lt;Path&gt;" class="s21" d="m1305.9 353.3c4.7 0 8.4-3.8 8.4-8.4 0-4.6-3.7-8.4-8.4-8.4-4.6 0-8.4 3.8-8.4 8.4 0 4.6 3.8 8.4 8.4 8.4z"/>
				<path id="&lt;Path&gt;" class="s22" d="m1278.5 353.3c4.7 0 8.4-3.8 8.4-8.4 0-4.6-3.7-8.4-8.4-8.4-4.6 0-8.4 3.8-8.4 8.4 0 4.6 3.8 8.4 8.4 8.4z"/>
			</g>
			<g id="&lt;Group&gt;">
				<path id="&lt;Path&gt;" class="s23" d="m1241.2 165.9c0-5.4 6.5-8.4 12.8-5.7q0.1 0 0.1-0.1c0.2-1 2.8-9.9 13.7-12.2 10.4-2.1 17.2 6.2 17.9 7.1q0.1 0.1 0.1 0c0.5-0.4 3-2.5 6.2-1.7 2 0.5 3.7 1.9 4.4 3.8q0.1 0.1 0.2 0c0.6-0.4 5.1-2.8 10.6-1.4 3.9 0.9 7.6 4.5 7.9 10.2l-2.8 13c0 0.1 0 0.1 0 0.1l-35.5 19.7c0 0 0 0-0.1 0l-34.6-29.3z"/>
				<path id="&lt;Path&gt;" class="s24" d="m1271.9 185.3c7.1 0 12.9-5.8 12.9-12.9 0-7.2-5.8-13-12.9-13-7.2 0-13 5.8-13 13 0 7.1 5.8 12.9 13 12.9z"/>
				<path id="&lt;Path&gt;" class="s25" d="m1270.2 182.9c7.1-1.2 11.8-7.9 10.6-14.9-1.2-7.1-7.9-11.8-14.9-10.6-7.1 1.2-11.8 7.9-10.6 14.9 1.2 7.1 7.9 11.8 14.9 10.6z"/>
				<path id="&lt;Path&gt;" class="s26" d="m1269.4 178.2c4.5-0.8 7.4-5 6.7-9.4-0.8-4.5-5-7.5-9.4-6.7-4.5 0.7-7.5 5-6.7 9.4 0.7 4.4 5 7.4 9.4 6.7z"/>
				<path id="&lt;Path&gt;" class="s27" d="m1272.2 176.4c0.5 0 1-0.5 1-1 0-0.6-0.5-1.1-1-1.1-0.6 0-1.1 0.5-1.1 1.1 0 0.5 0.5 1 1.1 1z"/>
				<path id="&lt;Path&gt;" class="s27" d="m1263.5 168.6c0.5-0.1 0.9-0.6 0.8-1.2-0.1-0.5-0.6-0.9-1.2-0.8-0.6 0.1-0.9 0.6-0.8 1.2 0.1 0.5 0.6 0.9 1.2 0.8z"/>
				<path id="&lt;Path&gt;" class="s27" d="m1264.6 177.4c0.6 0 1.1-0.4 1.1-1 0-0.6-0.5-1-1.1-1-0.5 0-1 0.4-1 1 0 0.6 0.5 1 1 1z"/>
				<path id="&lt;Path&gt;" class="s27" d="m1270.7 166.4c0.6-0.1 1-0.7 0.9-1.2-0.1-0.6-0.6-1-1.2-0.9-0.6 0.1-0.9 0.7-0.8 1.2 0.1 0.6 0.6 0.9 1.1 0.9z"/>
				<path id="&lt;Path&gt;" class="s27" d="m1268.6 178.5c0.6 0 1-0.5 1-1 0-0.6-0.4-1.1-1-1.1-0.6 0-1 0.5-1 1.1 0 0.5 0.4 1 1 1z"/>
				<path id="&lt;Path&gt;" class="s27" d="m1266.6 166c0.6-0.1 0.9-0.7 0.8-1.2 0-0.6-0.6-1-1.1-0.9-0.6 0.1-1 0.7-0.9 1.2 0.1 0.6 0.7 1 1.2 0.9z"/>
				<path id="&lt;Path&gt;" class="s27" d="m1262.5 173.8c0.6 0 1.1-0.4 1.1-1 0-0.6-0.5-1-1.1-1-0.5 0-1 0.4-1 1 0 0.6 0.5 1 1 1z"/>
				<path id="&lt;Path&gt;" class="s27" d="m1273.4 169.5c0.6-0.1 0.9-0.6 0.8-1.2-0.1-0.5-0.6-0.9-1.2-0.8-0.5 0.1-0.9 0.6-0.8 1.2 0.1 0.5 0.6 0.9 1.2 0.8z"/>
				<path id="&lt;Path&gt;" class="s28" d="m1272.8 205.5c9.4 0 17-7.6 17-17 0-9.4-7.6-17.1-17-17.1-9.4 0-17.1 7.7-17.1 17.1 0 9.4 7.7 17 17.1 17z"/>
				<path id="&lt;Path&gt;" class="s24" d="m1295.3 173.9c2.4-2.8 2.9-6.4 1-7.9-1.8-1.5-5.2-0.4-7.6 2.4-2.4 2.8-2.9 6.4-1.1 7.9 1.8 1.5 5.3 0.5 7.7-2.4z"/>
				<path id="&lt;Path&gt;" class="s29" d="m1291.3 176.7c-0.9-0.1-1.7 0.1-2.4 0.6-0.1-1.7-1.1-3.8-2.8-5.6-2.9-2.8-6.6-3.7-8.3-1.9-1.7 1.7-0.8 5.4 2 8.2q0.5 0.5 1.1 1-0.7 0.1-1.4 0.2c-3.9 1-6.6 3.6-6 6 0.6 2.4 4.2 3.5 8.1 2.6 1.6-0.4 3-1.1 4-1.9 0.3 2.7 1.5 4.8 3.4 5.1 2.4 0.3 4.9-2.5 5.5-6.5 0.6-3.9-0.8-7.4-3.2-7.8z"/>
				<path id="&lt;Path&gt;" class="s24" d="m1309 174.6c0.6-3.9-0.8-7.4-3.2-7.8-2.4-0.4-4.9 2.5-5.5 6.4-0.6 3.9 0.8 7.4 3.2 7.8 2.4 0.4 4.9-2.5 5.5-6.4z"/>
				<path id="&lt;Path&gt;" class="s4" d="m1293.8 172c2.4-2.9 2.9-6.4 1.1-8-1.8-1.5-5.2-0.4-7.6 2.4-2.4 2.9-2.9 6.4-1.1 7.9 1.8 1.6 5.2 0.5 7.6-2.3z"/>
				<path id="&lt;Path&gt;" class="s4" d="m1297.2 183.3c2.4-0.6 3.6-4.2 2.7-8.1-0.9-3.8-3.6-6.5-6-6-2.4 0.6-3.5 4.2-2.6 8.1 0.9 3.8 3.5 6.5 5.9 6z"/>
				<path id="&lt;Path&gt;" class="s4" d="m1306.8 172.9c0.6-3.9-0.8-7.4-3.2-7.8-2.4-0.4-4.9 2.5-5.5 6.4-0.7 3.9 0.8 7.4 3.2 7.8 2.4 0.4 4.8-2.5 5.5-6.4z"/>
				<path id="&lt;Path&gt;" class="s4" d="m1281.7 185c3.8-0.9 6.5-3.6 5.9-6-0.5-2.3-4.1-3.5-8-2.5-3.9 0.9-6.5 3.6-6 6 0.6 2.3 4.2 3.5 8.1 2.5z"/>
				<path id="&lt;Path&gt;" class="s28" d="m1256.2 183.8c4.4 0 8-3.6 8-8 0-4.5-3.6-8.1-8-8.1-4.5 0-8.1 3.6-8.1 8.1 0 4.4 3.6 8 8.1 8z"/>
				<path id="&lt;Path&gt;" class="s29" d="m1268.9 187.7c1.3-3.8 0.5-7.4-1.9-8.2-2.3-0.8-5.1 1.6-6.4 5.4-1.3 3.8-0.4 7.5 1.9 8.2 2.3 0.8 5.2-1.6 6.4-5.4z"/>
				<path id="&lt;Path&gt;" class="s30" d="m1264 173.8c0.3 1.5 0.3 2.9-0.2 4.7"/>
				<path id="&lt;Path&gt;" class="s4" d="m1267.2 185.1c1.3-3.8 0.4-7.5-1.9-8.2-2.3-0.8-5.2 1.6-6.4 5.4-1.3 3.8-0.5 7.4 1.8 8.2 2.3 0.8 5.2-1.6 6.5-5.4z"/>
				<path id="&lt;Path&gt;" class="s30" d="m1301.3 178.9c-2.4-0.4-3.8-3.9-3.2-7.8"/>
				<path id="&lt;Path&gt;" class="s24" d="m1285.8 155c0.4-0.3 2.4-2 5.1-1.9q0.1 0 0.1 0.1c0 0.6-0.1 4.7-2.7 7.6 0 0.1-0.1 0.1-0.1 0-0.8-3.7-2.1-5.3-2.4-5.6 0-0.1 0-0.1 0-0.2z"/>
				<path id="&lt;Path&gt;" class="s31" d="m1296.5 157.2c-1.1 0.7-2.2 1.6-3 2.6"/>
				<path id="&lt;Path&gt;" class="s31" d="m1285.8 155.1c0.5 0.6 0.9 1.3 1.3 2.3"/>
				<path id="&lt;Path&gt;" class="s31" d="m1254.1 160.2c0.6 0.4 1.4 1.1 2 1.6"/>
				<path id="&lt;Path&gt;" class="s30" d="m1291.9 171c0.4-0.8 1.1-1.4 2.1-1.7q0.8-0.2 1.5 0.1"/>
				<path id="&lt;Path&gt;" class="s4" d="m1288.1 177.2c1.7-1.7 0.8-5.4-2-8.2-2.8-2.9-6.5-3.7-8.2-2-1.7 1.7-0.8 5.4 2 8.2 2.8 2.8 6.5 3.7 8.2 2z"/>
				<path id="&lt;Path&gt;" class="s30" d="m1286.5 177.8c-1.6 0.5-3.8-0.1-5.8-1.8"/>
				<path id="&lt;Path&gt;" class="s30" d="m1287.8 170.9c-0.5-0.8-1.1-1.6-1.8-2.2"/>
				<path id="&lt;Path&gt;" class="s4" d="m1294.5 181.9c0.7-4-0.8-7.5-3.2-7.8-2.4-0.4-4.9 2.4-5.5 6.4-0.7 3.9 0.8 7.4 3.2 7.8 2.4 0.4 4.9-2.5 5.5-6.4z"/>
				<path id="&lt;Path&gt;" class="s30" d="m1287.7 175.8c-1 1.4-1.6 2.9-1.8 4.6q-0.3 1.4-0.1 2.8"/>
				<path id="&lt;Path&gt;" class="s5" d="m1292 295.6h-50.7q-0.1 0-0.1-0.1v-129.4c0-0.1 0.1-0.2 0.2-0.1l45.2 35.1c3.4 2.7 5.4 6.8 5.4 11.1v83.3q0.1 0.1 0 0.1z"/>
				<path id="&lt;Path&gt;" class="s32" d="m1292 212.2c0-4.3-2-8.4-5.4-11.1l-12.1-9.4q-0.1 0-0.1 0l-12.1 9.4c-3.4 2.7-5.4 6.8-5.4 11.1v82.8c0 0.1 0 0.1 0 0.1 1.5 0.4 3 0.5 4.5 0.5h26.1q2.3 0 4.4-0.5 0.1 0 0.1-0.1z"/>
				<path id="&lt;Path&gt;" class="s5" d="m1264.3 295.6h50.7q0.1 0 0.1-0.1v-129.4c0-0.1-0.1-0.2-0.1-0.1l-45.3 35.1c-3.4 2.7-5.4 6.8-5.4 11.1z"/>
				<path id="&lt;Path&gt;" class="s26" d="m1294.2 209.1h20.9v10.8h-20.9c-3 0-5.5-2.4-5.5-5.4 0.1-3 2.5-5.4 5.5-5.4z"/>
				<path id="&lt;Path&gt;" class="s26" d="m1294.2 234.3h20.9v10.8h-20.9c-3 0-5.5-2.4-5.5-5.4 0.1-3 2.5-5.4 5.5-5.4z"/>
				<path id="&lt;Path&gt;" class="s26" d="m1294.2 259.5h20.9v10.8h-20.9c-3 0-5.5-2.4-5.5-5.4 0.1-3 2.5-5.4 5.5-5.4z"/>
				<path id="&lt;Path&gt;" class="s30" d="m1278.2 194.6l-8.7 6.7c-3.4 2.7-5.2 6.6-5.2 10.9v83.4"/>
			</g>
			<path id="&lt;Path&gt;" class="s20" d="m189.9 439.9h179.4c15.3 0 27.7 12.5 27.7 27.8v179.3c0 15.4-12.4 27.8-27.7 27.8h-179.4c-15.3 0-27.7-12.5-27.7-27.8v-179.3c0-15.3 12.4-27.8 27.7-27.8z"/>
			<g id="&lt;Group&gt;">
				<path id="&lt;Path&gt;" class="s5" d="m234.3 597.8c-1 2.1 0 4.7 2.2 5.6 0 0.1 0.1 0.1 0.1 0.1 28.8 11.3 60.8 11.3 89.6 0 2.2-0.9 3.3-3.4 2.4-5.6 0-0.1 0-0.1 0-0.2l-43.2-98.6c-1-2.2-3.5-3.1-5.7-2.2-1 0.4-1.8 1.2-2.2 2.2z"/>
				<path id="&lt;Compound Path&gt;" fill-rule="evenodd" class="s33" d="m299.4 531.1l3.4 7.8q-0.6 0.1-1.2 0.5c-1.8 1.2-2.3 3.6-1.1 5.4 1.2 1.7 3.6 2.2 5.3 1l8.4 19.2q-2.3 0.6-4.7 0.6c-10.4 0-18.8-8.3-18.8-18.7 0-6.4 3.3-12.4 8.7-15.8zm1.4 24.9c0 1.4 1.1 2.6 2.5 2.6 1.4 0 2.5-1.2 2.5-2.6 0-1.3-1.1-2.5-2.5-2.5-1.4 0-2.5 1.2-2.5 2.5z"/>
				<path id="&lt;Path&gt;" class="s34" d="m253.3 606.8c3-0.9 4.5-4.7 3.3-8.3-1.2-3.6-4.6-5.8-7.6-4.8-3 0.9-4.4 4.7-3.3 8.3 1.2 3.6 4.6 5.8 7.6 4.8z"/>
				<path id="&lt;Compound Path&gt;" fill-rule="evenodd" class="s35" d="m298.4 528.8l3.4 7.8q-0.6 0.2-1.2 0.6c-1.8 1.1-2.3 3.5-1.1 5.3 1.2 1.7 3.6 2.2 5.3 1l8.4 19.2q-2.3 0.7-4.7 0.7c-10.4 0-18.8-8.4-18.8-18.8 0-6.4 3.3-12.3 8.7-15.8zm1.4 25c0 1.3 1.1 2.5 2.5 2.5 1.4 0 2.5-1.2 2.5-2.5 0-1.4-1.1-2.6-2.5-2.6-1.4 0-2.5 1.2-2.5 2.6z"/>
				<path id="&lt;Path&gt;" class="s34" d="m312.1 596.4c2.4-3 2.3-7-0.2-9-2.5-1.9-6.4-1-8.8 2-2.3 3-2.2 7 0.3 8.9 2.4 2 6.3 1.1 8.7-1.9z"/>
				<path id="&lt;Path&gt;" class="s34" d="m252.7 566.7c3.5-1.6 5.2-5.3 3.8-8.1-0.7-1.5-2.1-2.5-3.8-2.8l-5.1 11.5c1.8 0.4 3.6 0.2 5.1-0.6z"/>
				<path id="&lt;Path&gt;" class="s34" d="m285.7 516.1c1.3 2.7 4.9 3.7 8.2 2.4l-4.6-10.5c-3.4 1.7-4.9 5.3-3.6 8.1z"/>
				<path id="&lt;Path&gt;" class="s36" d="m298.9 540.3c0 2.1 1.7 3.9 3.8 3.9 0.7 0 1.5-0.2 2.1-0.7l-3-6.9c-1.7 0.4-2.9 2-2.9 3.7z"/>
				<path id="&lt;Path&gt;" class="s36" d="m302.3 556.3c1.4 0 2.5-1.2 2.5-2.5 0-1.4-1.1-2.6-2.5-2.6-1.4 0-2.5 1.2-2.5 2.6 0 1.3 1.1 2.5 2.5 2.5z"/>
				<path id="&lt;Compound Path&gt;" fill-rule="evenodd" class="s33" d="m268.4 563.1c9.4-4.3 20.5-0.2 24.9 9.2 4.3 9.5 0.1 20.6-9.3 24.9-9.4 4.3-20.6 0.2-24.9-9.2-4.3-9.5-0.1-20.6 9.3-24.9zm7.4 20.7c-0.9-1.9-3.2-2.8-5.1-1.9-1.9 0.9-2.8 3.1-1.9 5.1 0.9 1.9 3.2 2.7 5.1 1.9 1.9-0.9 2.7-3.2 1.9-5.1zm11.3 2.1c-0.4-1-1.6-1.4-2.5-1-1 0.5-1.4 1.6-1 2.6 0.5 0.9 1.6 1.4 2.6 0.9 0.9-0.4 1.4-1.5 0.9-2.5zm-2.7-13.1c-0.7-1.4-2.3-2-3.7-1.4-1.4 0.7-2.1 2.3-1.4 3.7 0.6 1.5 2.3 2.1 3.7 1.4 1.4-0.6 2-2.3 1.4-3.7z"/>
				<path id="&lt;Compound Path&gt;" fill-rule="evenodd" class="s35" d="m266.8 561.1c0.5-0.3 0.5-0.2 2.9-1.2 6.5-2.5 18.1 0.9 22.4 10.3 4.3 9.4 0.2 20.5-9.2 24.9-9.4 4.3-20.6 0.1-24.9-9.3-4.3-9.4-0.2-20.6 8-24.3zm7.9 20.4c-0.9-1.9-3.2-2.7-5.1-1.9-1.9 0.9-2.8 3.2-1.9 5.1 0.9 1.9 3.2 2.8 5.1 1.9 1.9-0.9 2.7-3.1 1.9-5.1zm11.3 2.1c-0.4-0.9-1.6-1.4-2.5-0.9-1 0.4-1.4 1.6-1 2.5 0.5 1 1.6 1.4 2.6 1 0.9-0.5 1.4-1.6 0.9-2.6zm-2.7-13c-0.7-1.4-2.3-2.1-3.7-1.4-1.4 0.6-2.1 2.3-1.4 3.7 0.6 1.4 2.3 2.1 3.7 1.4 1.4-0.6 2-2.3 1.4-3.7z"/>
				<path id="&lt;Path&gt;" class="s36" d="m271.1 587.1c2.1 0 3.9-1.8 3.9-3.9 0-2.1-1.8-3.8-3.9-3.8-2.1 0-3.8 1.7-3.8 3.8 0 2.1 1.7 3.9 3.8 3.9z"/>
				<path id="&lt;Path&gt;" class="s36" d="m280.7 574.6c1.6 0 2.8-1.2 2.8-2.8 0-1.5-1.2-2.8-2.8-2.8-1.5 0-2.8 1.3-2.8 2.8 0 1.6 1.3 2.8 2.8 2.8z"/>
				<path id="&lt;Path&gt;" class="s36" d="m284.2 586.4c1.1 0 2-0.8 2-1.9 0-1-0.9-1.9-2-1.9-1 0-1.9 0.9-1.9 1.9 0 1.1 0.9 1.9 1.9 1.9z"/>
				<path id="&lt;Path&gt;" class="s4" d="m281.2 623.6c-18.1 0.1-35.9-3.7-52.5-10.9-4.5-2-6.5-7.2-4.5-11.7 1.9-4.5 7.2-6.5 11.6-4.6 28.9 12.6 61.8 12.6 90.7 0 4.5-2 9.7 0.1 11.7 4.6 1.9 4.5-0.1 9.7-4.6 11.7-16.5 7.2-34.4 11-52.4 10.9z"/>
				<path id="&lt;Path&gt;" class="s29" d="m338.2 601c-1.2-2.7-3.6-4.6-6.4-5.1 0.9 4-1.2 8.2-5.1 9.9-16.5 7.3-34.4 11-52.4 10.9-17.4 0.1-34.6-3.4-50.6-10.1 0.6 2.6 2.4 4.9 5 6.1 16.6 7.2 34.4 11 52.5 10.9 18 0.1 35.9-3.7 52.4-10.9 4.5-2 6.5-7.2 4.6-11.7z"/>
				<path id="&lt;Path&gt;" class="s4" d="m295.6 584.3c-4.5 0-8.6-2.6-10.5-6.6l4.5-2.2c1.6 3.3 5.5 4.8 8.8 3.3 3.3-1.5 4.8-5.5 3.2-8.8 0 0 0-0.1 0-0.1l4.5-2.1c2.8 5.8 0.3 12.7-5.5 15.4-1.6 0.7-3.3 1.1-5 1.1z"/>
				<path id="&lt;Path&gt;" class="s4" d="m241.3 591.9h0.1c6.4 0 11.5-5.1 11.6-11.4l-5-0.1c0 3.6-3 6.5-6.6 6.5h-0.1q-1.1 0-2.1-0.4l-2 4.6c1.3 0.5 2.7 0.8 4.1 0.8z"/>
				<path id="&lt;Compound Path&gt;" fill-rule="evenodd" class="s37" d="m278 534.9c-2.3 10.1-12.3 16.4-22.4 14.2l7.8-17.7q0.5 0.1 1 0.1c1.4 0 2.8-0.7 3.6-1.9 1.3-2 0.7-4.7-1.3-6l3.7-8.2c5 3.5 8 9.2 8 15.4q0 2.1-0.4 4.1zm-13.2 4.7c0 1.1 0.9 2 2 2 1 0 1.9-0.9 1.9-2 0-1-0.9-1.9-1.9-1.9-1.1 0-2 0.9-2 1.9z"/>
				<path id="&lt;Compound Path&gt;" fill-rule="evenodd" class="s35" d="m278.9 532.7c-2.2 10.1-12.2 16.5-22.4 14.2l7.8-17.7q0.5 0.2 1 0.2c1.5 0 2.8-0.8 3.6-2 1.3-1.9 0.7-4.6-1.2-5.9l3.6-8.3c5.1 3.5 8.1 9.3 8.1 15.4q0 2.1-0.5 4.1zm-13.1 4.8c0 1.1 0.8 1.9 1.9 1.9 1.1 0 1.9-0.8 1.9-1.9 0-1.1-0.8-1.9-1.9-1.9-1.1 0-1.9 0.9-1.9 1.9z"/>
				<path id="&lt;Path&gt;" class="s36" d="m265.3 529.4c2.4 0 4.3-2 4.3-4.3 0-1.5-0.7-2.8-1.9-3.6l-3.4 7.7q0.5 0.2 1 0.2z"/>
				<path id="&lt;Path&gt;" class="s36" d="m267.7 539.4c1.1 0 1.9-0.8 1.9-1.9 0-1-0.8-1.9-1.9-1.9-1.1 0-1.9 0.9-1.9 1.9 0 1.1 0.8 1.9 1.9 1.9z"/>
				<path id="&lt;Path&gt;" class="s4" d="m276 548.3c-4.2-4.8-3.7-12.2 1.2-16.4 2-1.7 4.4-2.7 7-2.8l0.3 5c-3.7 0.2-6.5 3.3-6.3 6.9 0.2 3.7 3.2 6.5 6.9 6.3l0.2 5c-3.1 0.2-6.1-0.9-8.4-3q-0.5-0.5-0.9-1z"/>
			</g>
			<g id="&lt;Group&gt;">
				<path id="&lt;Path&gt;" class="s35" d="m399.5 125.6h58.9l22.6 18.2c2.5 2.1 6.2 1.6 8.2-0.8 0.8-1 1.3-2.3 1.3-3.6v-63.4c0-27.4-22.3-49.6-49.7-49.6h-41.3c-27.4 0-49.7 22.2-49.7 49.6 0 27.4 22.2 49.6 49.7 49.6z"/>
				<path id="&lt;Path&gt;" class="s19" d="m422.4 94.2l10.1 7c1.8 1.3 4.4 0.8 5.6-1 0.7-1 1-2.3 0.5-3.5l-3.4-11.8c-0.5-1.6 0.1-3.2 1.4-4.3l9.8-7.5c1.8-1.4 2.1-3.9 0.8-5.7-0.8-0.9-1.9-1.5-3.2-1.6l-12.3-0.3c-1.7-0.1-3.1-1.1-3.7-2.7l-4.1-11.6c-0.8-2.1-3-3.2-5.1-2.4-1.2 0.4-2.1 1.4-2.5 2.4l-4.1 11.6c-0.6 1.6-2 2.6-3.7 2.7l-12.3 0.3c-2.2 0.1-4 2-4 4.2 0 1.1 0.6 2.3 1.6 3.1l9.8 7.5c1.3 1 1.8 2.7 1.4 4.3l-3.4 11.8c-0.7 2.1 0.6 4.4 2.7 5.1 1.1 0.3 2.4 0.2 3.4-0.5l10.1-7c1.4-1 3.2-1 4.6-0.1z"/>
			</g>
			<g id="&lt;Group&gt;">
				<path id="&lt;Path&gt;" class="s38" d="m79.8 141.4h192.2c13.4 0 24.2 10.8 24.2 24.2v192.2c0 13.4-10.9 24.2-24.2 24.2h-192.2c-13.4 0-24.2-10.9-24.2-24.2v-192.2c-0.1-13.4 10.8-24.2 24.2-24.2z"/>
			</g>
			<g id="&lt;Group&gt;">
				<path id="&lt;Path&gt;" class="s23" d="m202.1 305.9l28.3-4.6c5.3-1 9-6 8.1-11.3l-11.2-68.7c-0.9-5.4-5.9-9-11.2-8.1l-102.6 16.6c-5.4 0.9-8.9 5.9-8.1 11.2l10.5 64.5 0.7 4.1c0.9 5.4 5.8 9.1 11.2 8.2l46.6-7.5z"/>
				<path id="&lt;Path&gt;" class="s39" d="m228.9 230.9l-122 19.8 3.1 19.2 122-19.8z"/>
				<path id="&lt;Path&gt;" class="s40" d="m134.7 281l16.8-2.7c3.4-0.6 6.7 1.8 7.2 5.3l1.2 6.7c0.5 3.4-1.9 6.6-5.3 7.2l-16.9 2.8c-3.5 0.5-6.7-1.9-7.2-5.3l-1.2-6.7c-0.4-3.5 1.8-6.7 5.4-7.3z"/>
			</g>
			<g id="&lt;Group&gt;">
				<g id="&lt;Group&gt;">
					<path id="&lt;Path&gt;" class="s41" d="m652.4 197h363c14.6 0 26.3 12 26.3 26.8v321.8c0 14.8-11.7 26.8-26.3 26.8h-363c-14.5 0-26.3-12-26.3-26.8v-321.8c0-14.8 11.8-26.8 26.3-26.8z"/>
					<path id="&lt;Path&gt;" class="s42" d="m1042.5 479.9h-416.4"/>
					<path id="&lt;Path&gt;" class="s43" d="m652.3 197h363c14.5 0 26.3 12 26.3 26.8v28.1h-415.6v-28.1c0-14.8 11.8-26.8 26.3-26.8z"/>
					<path id="&lt;Path&gt;" class="s41" d="m659 235.2c5.1 0 9.3-4.3 9.3-9.6 0-5.2-4.2-9.5-9.3-9.5-5.2 0-9.4 4.3-9.4 9.5 0 5.3 4.2 9.6 9.4 9.6z"/>
					<path id="&lt;Path&gt;" class="s41" d="m689.4 235.2c5.2 0 9.4-4.3 9.4-9.6 0-5.2-4.2-9.5-9.4-9.5-5.1 0-9.3 4.3-9.3 9.5 0 5.3 4.2 9.6 9.3 9.6z"/>
					<path id="&lt;Path&gt;" class="s41" d="m719.9 235.2c5.2 0 9.4-4.3 9.4-9.6 0-5.2-4.2-9.5-9.4-9.5-5.1 0-9.3 4.3-9.3 9.5 0 5.3 4.2 9.6 9.3 9.6z"/>
				</g>
				<g id="&lt;Group&gt;">
					<path id="&lt;Path&gt;" class="s44" d="m923 388.8c0 0-31.1 42.5-93.3 42.5-62.2 0-93.4-42.5-93.4-42.5z"/>
					<path id="&lt;Path&gt;" class="s19" d="m848.1 406.8c-3.5 13.6-17.3 21.7-30.9 18.2-13.3-3.4-21.4-16.8-18.3-30.2 3.3-13.6 20.1-34.5 33.7-31.2 13.6 3.3 18.8 29.6 15.5 43.2z"/>
					<path id="&lt;Path&gt;" class="s35" d="m823.5 414.3c7.4 0 13.4-6 13.4-13.5 0-7.4-6-13.4-13.4-13.4-7.4 0-13.5 6-13.5 13.4 0 7.5 6.1 13.5 13.5 13.5z"/>
					<path id="&lt;Path&gt;" class="s45" d="m817.2 425c1.7 0.4 3.4 0.7 5 0.8 2.7-0.1 5.3-0.7 7.8-1.7 0.7-4.2 0.4-8.7-1.1-13.2-3.3-9.9-13.7-22.8-24.5-28.5-2.6 4.3-4.6 8.6-5.5 12.4-3.1 13.4 5 26.8 18.3 30.2z"/>
					<path id="&lt;Path&gt;" class="s19" d="m823.8 409c4.8 14.4-3 29.9-17.4 34.7-14.4 4.8-29.9-3-34.7-17.3-4.9-14.4-1.5-43.3 12.9-48.1 14.3-4.8 34.4 16.2 39.2 30.7z"/>
					<path id="&lt;Path&gt;" class="s35" d="m797.7 432.2c8.1 0 14.6-6.5 14.6-14.6 0-8-6.5-14.5-14.6-14.5-8 0-14.5 6.5-14.5 14.5 0 8.1 6.5 14.6 14.5 14.6z"/>
					<path id="&lt;Path&gt;" class="s35" d="m835.3 426.5c-1.4-0.5-2-2.1-1.5-3.4l56.3-140.5 8.8 3.7-60.2 138.8c-0.5 1.4-2.1 2-3.4 1.4z"/>
					<path id="&lt;Path&gt;" class="s23" d="m884.3 319.9l14.6-33.6-8.8-3.7-13.7 34z"/>
					<path id="&lt;Path&gt;" class="s4" d="m894.5 289.2c2.6 0 4.7-2.1 4.7-4.7 0-2.7-2.1-4.8-4.7-4.8-2.7 0-4.8 2.1-4.8 4.8 0 2.6 2.1 4.7 4.8 4.7z"/>
					<path id="&lt;Path&gt;" class="s35" d="m835 439.6c-1.2-0.9-1.5-2.5-0.6-3.7l85.6-124.8 7.8 5.5-89.2 122.4c-0.8 1.1-2.4 1.4-3.6 0.6z"/>
					<path id="&lt;Path&gt;" class="s23" d="m900.2 339.9l7 5 20.6-28.2-7.8-5.6z"/>
					<path id="&lt;Path&gt;" class="s4" d="m923.8 318.7c2.7 0 4.8-2.1 4.8-4.7 0-2.7-2.1-4.8-4.8-4.8-2.6 0-4.7 2.1-4.7 4.8 0 2.6 2.1 4.7 4.7 4.7z"/>
					<path id="&lt;Path&gt;" class="s45" d="m779.8 438.4c6.1-2.6 10.4-8.7 10.4-15.9 0-9.2-7.2-16.8-16.3-17.2q-2.1 0-4 0.6c-0.7 7.5-0.1 15 1.8 20.5 1.6 4.8 4.4 8.9 8.1 12z"/>
					<path id="&lt;Path&gt;" class="s5" d="m769.7 436.9c9.6 0 17.3-7.7 17.3-17.3 0-9.6-7.7-17.3-17.3-17.3-9.6 0-17.3 7.7-17.3 17.3 0 9.6 7.7 17.3 17.3 17.3z"/>
					<path id="&lt;Path&gt;" class="s35" d="m769.7 429.3c5.4 0 9.8-4.3 9.8-9.7 0-5.4-4.4-9.8-9.8-9.8-5.4 0-9.7 4.4-9.7 9.8 0 5.4 4.3 9.7 9.7 9.7z"/>
					<path id="&lt;Path&gt;" class="s5" d="m888.3 448.5c13.8 0 24.9-11.2 24.9-24.9 0-13.8-11.1-24.9-24.9-24.9-13.8 0-24.9 11.1-24.9 24.9 0 13.7 11.1 24.9 24.9 24.9z"/>
					<path id="&lt;Path&gt;" class="s35" d="m888.3 441c9.5 0 17.3-7.8 17.3-17.4 0-9.5-7.8-17.3-17.3-17.3-9.6 0-17.4 7.8-17.4 17.3 0 9.6 7.8 17.4 17.4 17.4z"/>
					<path id="&lt;Path&gt;" class="s5" d="m888.3 433.4c5.3 0 9.7-4.4 9.7-9.8 0-5.4-4.4-9.7-9.7-9.7-5.4 0-9.8 4.3-9.8 9.7 0 5.4 4.4 9.8 9.8 9.8z"/>
					<path id="&lt;Path&gt;" class="s45" d="m872.7 404.2c-4.6 3.7-8 9.1-9 15.4-2.2 13.6 7.1 26.4 20.6 28.6 1.1 0.2 2.1 0.3 3.2 0.3 1.1-3.7 1.8-7.7 1.8-11.8 0-13.4-6.6-25.2-16.6-32.5z"/>
					<path id="&lt;Path&gt;" class="s46" d="m803.9 383.3c9 6.5 17.1 17.2 19.9 25.7"/>
					<path id="&lt;Path&gt;" class="s5" d="m844.5 474.5c22.1 0 40.1-17.9 40.1-40 0-22.2-18-40.1-40.1-40.1-22.1 0-40.1 17.9-40.1 40.1 0 22.1 18 40 40.1 40z"/>
					<path id="&lt;Path&gt;" class="s35" d="m844.5 467c17.9 0 32.5-14.6 32.5-32.5 0-18-14.6-32.5-32.5-32.5-18 0-32.5 14.5-32.5 32.5 0 17.9 14.5 32.5 32.5 32.5z"/>
					<path id="&lt;Path&gt;" class="s5" d="m844.5 459.4c13.8 0 24.9-11.2 24.9-24.9 0-13.8-11.1-25-24.9-25-13.8 0-24.9 11.2-24.9 25 0 13.7 11.1 24.9 24.9 24.9z"/>
					<path id="&lt;Path&gt;" class="s35" d="m844.5 451.8c9.6 0 17.3-7.8 17.3-17.3 0-9.6-7.7-17.4-17.3-17.4-9.6 0-17.3 7.8-17.3 17.4 0 9.5 7.7 17.3 17.3 17.3z"/>
					<path id="&lt;Path&gt;" class="s5" d="m844.5 444.2c5.4 0 9.7-4.4 9.7-9.7 0-5.4-4.3-9.8-9.7-9.8-5.4 0-9.8 4.4-9.8 9.8 0 5.3 4.4 9.7 9.8 9.7z"/>
					<path id="&lt;Path&gt;" class="s47" d="m872 404.3c8.1 7.8 12.5 18.6 12.3 29.8"/>
					<path id="&lt;Path&gt;" class="s4" d="m829.7 431.3c-62.2 0-93.4-42.5-93.4-42.5 0 51.6 41.8 93.4 93.4 93.4 51.5 0 93.3-41.8 93.3-93.4 0 0-31.1 42.5-93.3 42.5z"/>
					<path id="&lt;Path&gt;" class="s48" d="m886.2 418c-10.6 32.3-38.4 56.9-72.6 62.8 5.2 0.9 10.6 1.4 16.1 1.4 51.5 0 93.3-41.8 93.3-93.4 0 0-12.8 17-36.8 29.2z"/>
					<path id="&lt;Path&gt;" class="s23" d="m901.4 448.6c-2.4-3.4-5.3-6.4-10.3-6.4-6.5 0-9.6 5-12.3 9.3-2.7 4.4-4.7 7.1-8.2 7.1-3.5 0-5.4-2.7-8.2-7.1-2.7-4.4-5.8-9.3-12.2-9.3-6.5 0-9.6 5-12.3 9.3-2.7 4.4-4.7 7.1-8.2 7.1-3.5 0-5.4-2.7-8.2-7.1-2.7-4.4-5.8-9.3-12.2-9.3-6.5 0-9.6 5-12.3 9.3-2.7 4.4-4.7 7.1-8.2 7.1-3.5 0-5.4-2.7-8.2-7.1-2.7-4.4-5.8-9.3-12.2-9.3-5.1 0-8.1 3-10.4 6.5 1 1.2 2.1 2.5 3.2 3.7 2.3-3.5 4.1-5.5 7.2-5.5 3.5 0 5.4 2.7 8.2 7.1 2.7 4.4 5.8 9.4 12.2 9.4 6.5 0 9.5-5 12.3-9.4 2.7-4.4 4.7-7.1 8.2-7.1 3.5 0 5.4 2.7 8.2 7.1 2.7 4.4 5.8 9.4 12.2 9.4 6.5 0 9.6-5 12.3-9.4 2.7-4.4 4.7-7.1 8.2-7.1 3.5 0 5.4 2.7 8.2 7.1 2.7 4.4 5.8 9.4 12.2 9.4 6.5 0 9.5-5 12.3-9.4 2.7-4.4 4.7-7.1 8.2-7.1 3 0 4.9 2 7.1 5.4q1.6-1.8 3.2-3.7z"/>
					<path id="&lt;Path&gt;" class="s44" d="m855.8 478.5h-52.3v15.2h52.3z"/>
					<path id="&lt;Path&gt;" class="s23" d="m855.8 478.5h-52.3v6.5h52.3z"/>
					<path id="&lt;Path&gt;" class="s24" d="m855.8 478.5h-32.1v6.5h32.1z"/>
				</g>
			</g>
			<g id="&lt;Group&gt;">
				<path id="&lt;Path&gt;" class="s49" d="m545.8 978.7l-33.7-35.8c-2.4-18.1-3-41.6-2.4-59.4l83.8 3.7c-3.6 23.4-5.9 47.3 1.6 54.7 0.9 1 1.8 1.8 2.7 2.6l-7.6 34.3h-8.4z"/>
				<path id="&lt;Path&gt;" class="s49" d="m407.1 980.5l-26.5-36.4c-0.4-19.1 1.4-38.7 4.9-56.3l87.9-0.7c-6.5 18.1-9.9 32.5-9.2 39.8 0.7 5.5 3 10.9 6.6 15.2l-3.4 38.4z"/>
				<path id="&lt;Path&gt;" class="s4" d="m383.3 974c-1.7-9.8-2.6-20.5-2.8-29.9q2.2-0.3 4.5-0.3c18 0 34.3 12.4 39.3 29.8z"/>
				<path id="&lt;Path&gt;" class="s4" d="m582.8 521.7l-108.4 0.5h-0.6c-0.1 0-0.3 0-0.5 0.2-29.6 25.6-33.5 115.2-29 164.1l0.2 2.5c4.8 52.1-4.6 69.6-21.6 101.4-3 5.5-6 11.3-9.3 17.6-13.2 25.4-22.6 52.5-28.2 80.6l87.3-0.1c1.1-3 2.3-6.2 3.5-9.4 7.1-18.2 15.1-35.3 22.8-51.9 10.2-21.9 20.8-44.5 29.9-70.9h0.1c-0.9 20.3-5.6 44.9-13.7 83-2.3 11.3-4.1 23.3-5.1 35.6-0.5 5.4-0.7 7.7-0.8 11.7l84.1 1.9c0.3-1.9 0.6-3.8 0.9-5.8 0.5-2.6 1-5.2 1.5-7.9 1.3-7.7 2.8-15.8 4.4-24.5 5.8-31.8 12.4-68 16.5-107.3 10.5-98.2-33.5-220-34-221.3z"/>
				<path id="&lt;Path&gt;" class="s50" d="m506.1 812c0 0 6.4-59.1-10-117.2-16.8-59.9-19.3-66.4-10.2-89.3l4.1 18.9 34.4 87.6 4.7 44.1c-12.5 33.5-12.3 31.8-23 55.9z"/>
				<path id="&lt;Path&gt;" class="s30" d="m485.5 600c3.9 40.2 23.1 67.2 33 95 8.2 25.1 11 27.4 10.4 61.9"/>
				<path id="&lt;Path&gt;" class="s4" d="m517.7 973.7c-2.3-9.7-4.2-20.4-5.6-30.8 19.1 0.6 35.3 13 41.5 30.8z"/>
				<path id="&lt;Path&gt;" class="s4" d="m581.4 973.6c1.3-11.4 7.2-22.2 16.2-29.2 3.9 3.4 8.2 6.5 12.2 9.6 8.1 5.9 15.6 11.6 20.3 18.8 0.1 0.1 0.2 0.8 0.1 0.8z"/>
				<path id="&lt;Path&gt;" class="s4" d="m452.1 973.1c0.4-12.8 7.5-24.7 18.6-31.1 3.2 4.1 7.3 7.6 11.6 11.2 6.5 5.6 13.3 11.4 17.1 19.8l-1.2 5.8z"/>
				<path id="&lt;Path&gt;" class="s30" d="m559.6 522.4c0 0 34.7 133 24.4 221.9-8.7 75-22.1 143.4-22.1 143.4"/>
				<path id="&lt;Path&gt;" class="s34" d="m521.5 987.7c-0.2-0.6-2-5.7-3.9-14.5l112.6-0.1c2.8 4.3 4.5 9.6 4.5 14.7z"/>
				<path id="&lt;Path&gt;" class="s34" d="m386.4 987.7c-1.5-4.9-2.6-9.9-3.3-14.6l116.3-0.1c2.1 4.7 3.1 9.7 3.2 14.7z"/>
				<path id="&lt;Path&gt;" class="s49" d="m774.5 590.5c-7.1 0-31.6-24.3-31.9-24.5-0.2 0-21.6-4-29-18.8 0 0 0 0-0.1 0-0.9 0-9.3-0.3-19.6-1.1-0.4 0-0.6-0.1-1-0.1l18.7-58.4c49.2 17.4 77.2 31.7 79.3 40.9 0.4 1.8-0.1 3.4-0.6 4.5-0.6 0.4 20.4 17.5 19.3 26.9-0.2 1.9-1.3 3.4-3.2 4.3 0 0 0.8 4.2-1.5 7-1.3 1.6-3.3 2.3-6 2.3 0 0 0 1.7-1 3.3-0.9 1.5-2.8 3.4-6.8 3.4-0.5 0-1 0-1.6-0.1-9.3-0.9-21.3-10.2-21.5-10.3 0.2 0.2 10.4 13.3 9.1 18.7-0.1 1-0.7 1.6-1.6 1.9-0.4 0-0.7 0.1-1 0.1z"/>
				<path id="&lt;Path&gt;" class="s49" d="m495.5 346.9c0-0.7 0.8-60.2 0.8-73.5-0.1-23.4 13.5-38.3 36.9-38.9l2.7-1.4c19 0 32-0.1 39.8 12.3 4.3 6.8 7.6 22.2 9.3 34.9 0 0.2 7.8 1.5 8.5 5.2 0.6 3.8-6.4 9.6-6.4 9.6 0 0 5.4 18.7 0 30.5-5.3 11.8-20.4 12.2-33.4 9l-0.3 12.9z"/>
				<path id="&lt;Path&gt;" class="s51" d="m539.5 328.1c5.7 3.3 14 6.5 14.1 6.5l-0.2 9.9-14.2-15.9c-0.3-0.3 0-0.7 0.3-0.5z"/>
				<path id="&lt;Path&gt;" class="s52" d="m580.2 256.8c-1-4.1-2.2-7.8-4.3-11.4-6.5-10.2-16.6-16-30.1-18.7-0.1 0 0.1-1 0.4-2 3.3-11.9 1.5-22.7-4.8-30.3-5.7-6.6-14.4-10.3-24.8-10.3-1 0-1.9 0-2.1-0.7-1-4.5-2.8-9.3-5.9-13.1-4.4-5.2-11.4-8.1-19.8-8.1-11.2 0-23.7 5.1-34.2 13.9-9.2 7.7-15.9 17.4-18.7 27.2-2.8 9.8-1.5 18.7 3.7 24.9 5.4 6.7 14.9 7.4 14.5 7.5-2.3 10.4-0.6 20.1 5.4 27.3 5.6 6.7 14.3 10.3 24.7 10.3 3.2 0 9.9-1.4 9.8-1 0 13.2 0.5 40.6 1.5 58.5h0.3c5.2-0.4 17.8-4.7 27.9-19.5 0.4-0.6-12.7-12.7-13.1-22.9-0.2-4.5 1.3-8.4 4.5-11.7 2.8-2.8 6.1-4.2 9.7-4.2 10.7 0 21.1 12.6 21.2 12.5 0.1 0.1 11.3-6.6 9.5-23-0.4-0.3 3.1 0.2 6.5 0.2 11.4 0 17.9-5.2 18.2-5.4z"/>
				<path id="&lt;Path&gt;" class="s35" d="m693.9 546.1c-17.5-1.4-49.4-5.3-65.4-15.7-22-14.3-36.5-46.7-38.9-52.5-0.1-0.2-0.5-0.1-0.5 0.1l-6.3 43.7c-0.1 0.7-0.7 1.3-1.5 1.3l-107.4-0.1c-0.4 0-0.9 0.3-1.3 0.7l-12 17.1c-0.3 0.5-1.1 0.8-1.7 0.5-3.1-1.1-12.2-5-20.7-13.2-9.7-9.1-20.5-25.8-17.5-52.9 4.7-44.1 25.3-92.2 35.5-106.7 18.4-14.3 36.7-16 45.5-16.5 3.6-0.7 24.2 0.1 39.5-1.3 8.9 0.9 14.5 0.6 17.4 1.3 4.3-0.7 36.8 1 58.7 25.9 17.6 29 44.5 87.3 47.5 94 0.2 0.3 0.5 0.6 0.9 0.8 3.8 1.1 23.7 7.1 46.3 15.1 0.8 0.3 1.2 1.1 0.9 2z"/>
				<path id="&lt;Path&gt;" class="s50" d="m460 541.7c-4.7-1.6-9.5-4.1-14-7.2l0.1-0.1c11.1-16.9 13.8-34.4 14.7-63.6 0-0.5 0.9-0.6 1.1-0.1l11.3 52c0 0.1 0 0.3-0.1 0.4z"/>
				<path id="&lt;Path&gt;" class="s50" d="m551.5 521.1l26-65.9c0.5-1.2 2.2-1.2 2.6 0l8.9 21.5c0.1 0.3 0.1 0.5 0.1 0.8l-6.4 44.4c0 0.6-0.6 1.2-1.4 1.2h-28.5c-1 0-1.7-1.1-1.3-2z"/>
				<path id="&lt;Path&gt;" class="s4" d="m502.6 442.6c-2 0-4-0.1-6.2-0.4-8.7-1.4-15.3-5.5-19.7-11.9-8.1-11.7-7-28.6-6-35.5 0.1-1.5-1.3-2.7-2.7-2.3-3.9 1-7 1.5-9.7 1.5-4.3 0-8-1.1-12.6-3.7-0.6-0.3-0.8-0.9-0.5-1.5 3.9-8.7 7.7-16 10.9-20.5 12.9-18.5 37.3-22.4 39.4-22.4 0 0 26.5-0.2 44.7-0.2 14.2 0 16.1 0.3 16.1 0.3 0 0 42.3 1.2 61 31.8 5 8.2 10.8 18.8 15.2 27.4 0.4 0.8-0.3 1.9-1.2 1.9-10.4-1-19-7.8-22.9-11.7-0.8-0.7-2.2-0.1-2.1 1 0.3 6-0.1 18.6-6.5 26.6-3.5 4.3-8.3 6.8-14.3 7.4-1.3 0.1-2.4 0.2-3.6 0.2-21.7 0-33-19.2-37-27.9-0.5-1.3-2.3-1.2-2.7 0.2-3.2 11.1-13.9 39.7-39.6 39.7z"/>
				<path id="&lt;Path&gt;" class="s52" d="m573.8 283.5c1.5 0 2.8-1.3 2.8-2.9 0-1.5-1.3-2.8-2.8-2.8-1.6 0-2.9 1.3-2.9 2.8 0 1.6 1.3 2.9 2.9 2.9z"/>
				<path id="&lt;Path&gt;" class="s53" d="m569.4 299.7c1.7 2.1 4.5 3.2 7.2 2.9"/>
				<path id="&lt;Path&gt;" class="s53" d="m526.5 288.8l7.2 7"/>
				<path id="&lt;Path&gt;" class="s53" d="m543.8 330.4c3.2 1.6 6.6 2.9 9.8 4.2"/>
				<path id="&lt;Path&gt;" class="s30" d="m473.1 523l-13.5-62.8"/>
				<path id="&lt;Path&gt;" class="s30" d="m589.2 477l-10.9-26.3"/>
				<path id="&lt;Path&gt;" class="s53" d="m806.4 564.2c-11.3-11.5-23.5-22.2-36.5-31.8"/>
				<path id="&lt;Path&gt;" class="s53" d="m798 574.5c0 0-17.8-17.8-35.6-30"/>
				<path id="&lt;Path&gt;" class="s53" d="m768.1 569.8l-13.2-13.1"/>
			</g>
			<g id="&lt;Group&gt;">
				<path id="&lt;Path&gt;" class="s5" d="m1002.7 103.6c-29.1 0-52.7 23.6-52.7 52.7 0 29.1 23.6 52.7 52.7 52.7 29.1 0 52.7-23.6 52.7-52.7 0-29.1-23.6-52.7-52.7-52.7z"/>
				<path id="&lt;Path&gt;" class="s19" d="m974.6 163.3c0.6 2 2.4 3.2 4.4 3.2 0 0 0 0.1 0 0.1-0.6 1.1-0.8 2.4-0.5 3.6 0.7 1.9 2.5 3.2 4.5 3.2 0 0 0 0 0 0-0.8 1.4-0.9 3.1-0.1 4.5 1.1 1.9 3.3 2.7 5.4 2.1l11.8-3.4c4.2-1.2 8.2-3 12-5.2 1.4-0.8 2.1-2.5 1.7-4.1l-6.9-23.6c-0.3-0.8-0.9-1.6-1.7-2-3.9-2.3-15.9-9.5-17.7-10-8.2-1 0.4 11.7 2.1 14.6 0 0 0 0 0 0-1.1 0.3-13.8 4.1-13.8 4.1-4.4 1.1-4.8 7.5-0.3 8.6q0.1 0.1 0 0.2c-1 1-1.4 2.7-0.9 4.1z"/>
				<path id="&lt;Path&gt;" class="s19" d="m1010.2 140.7l8.3 28.6c0.5 1.4 1.9 2.2 3.3 1.8l10-2.9c1.4-0.4 2.2-1.8 1.8-3.2l-8.4-28.7c-0.4-1.4-1.8-2.2-3.2-1.8l-10.1 2.9c-1.4 0.5-2.3 2-1.7 3.3z"/>
			</g>
		</g>
	</g>
</svg>