<?xml version="1.0" encoding="utf-8"?>
<!-- Generator: Adobe Illustrator 21.0.0, SVG Export Plug-In . SVG Version: 6.00 Build 0)  -->
<svg version="1.1" id="Layer_1" xmlns="http://www.w3.org/2000/svg" xmlns:xlink="http://www.w3.org/1999/xlink" x="0px" y="0px"
	 viewBox="0 0 1546 1023" style="enable-background:new 0 0 1546 1023;" xml:space="preserve">
<style type="text/css">
	.st0{fill:#71C8B7;}
	.st1{fill:#DE5E55;}
	.st2{fill:#D1403D;}
	.st3{fill:#E1DFE4;}
	.st4{fill:#310089;}
	.st5{fill:#FFFFFF;}
	.st6{fill:#ECB1BF;}
	.st7{fill:#DB8AA1;}
	.st8{fill:none;stroke:#000000;stroke-linecap:round;stroke-linejoin:round;stroke-miterlimit:10;}
	.st9{fill:#C0E2DD;}
	.st10{fill:#F1D131;}
	.st11{fill:#EF9D33;}
	.st12{fill:#C1332F;}
	.st13{fill:#474744;}
	.st14{fill:#333333;}
	.st15{fill:none;stroke:#333333;stroke-width:3;stroke-miterlimit:10;}
</style>
<title>Untitled-2-ai</title>
<g>
	<path class="st0" d="M940,462.1c-12.2,26.1-31.1,48.7-53.7,66.1c-22.9,17.8-49.6,29.3-75.8,41.1c-26.3,11.8-52.9,24.2-74.5,43.9
		c-10.8,9.8-19.6,21.6-30,32c-10.6,10.6-22.6,18.7-37.3,22c-26.4,5.9-55.1,0.7-79.5-10.4c-18.8-8.6-35.8-21.1-50.2-36.2
		c-15.9-13-28.4-30.2-36.9-49.4c-12.6-28.3-16.8-60.1-14.6-90.9c2.2-31.3,11-61.9,24-90.2c12.8-27.8,29.8-53.7,49.7-76.9
		c18.9-22,40.7-41.6,64.9-57.5c24-15.8,50.6-28,78.4-35c28.2-7,57.7-8.7,86.4-4.6c28.5,4,56.3,13.7,80.7,29.4
		c23.1,14.8,42.6,34.9,56.9,58.7c14.1,23.4,23.2,49.9,25.6,77.3C956.7,409.1,951.8,437,940,462.1"/>
	<path class="st1" d="M939.7,850.2H643.3c1-3.5,2.1-7.4,3.2-11.5c0.4-1.6,0.9-3.2,1.3-4.8c4.4-15.9,9.7-35.6,15.5-56.9
		c0.4-1.6,0.8-3.1,1.3-4.7v0c3.7-13.8,7.5-28.1,11.4-42.5c0.5-1.7,0.9-3.4,1.3-5c5.1-19.1,10.2-38.2,14.9-55.9
		c0.5-1.8,1-3.5,1.4-5.2c6.5-24.4,12.3-46,16.3-61.2c0.1-0.5,0.2-0.9,0.3-1.4c0.3-1.6,0.6-3.3,0.9-4.9c0.6-3.5,1.1-7,1.6-10.5
		c1.5-11.3,2.6-23.2,3.3-35.3c0.1-1.4,0.2-2.9,0.2-4.3c0.9-16.7,1-33.7,0.9-50c0-1.3-0.1-2.7-0.1-4c-0.4-21.4-1.4-41.2-2.4-56.9
		c-0.1-1.3-0.2-2.5-0.3-3.8c-0.9-12.4-1.7-21.7-2.2-26.5c-0.2-2.4-0.4-3.7-0.4-3.7l20-3.4c0,0,0.2,1.2,0.5,3.4c0.4,3,1.1,7.9,1.9,14
		c0.2,1.2,0.3,2.4,0.5,3.6c2,14.5,4.7,34.3,7.3,51.9c0.2,1.2,0.3,2.4,0.5,3.6c2,14.1,3.9,26.5,5,32.9c0,0,3.5,1.4,9.8,3.3
		c1.1,0.3,2.3,0.7,3.6,1c10.5,2.8,26.7,6,46.6,6.3c1.7,0,3.5,0.1,5.3,0c18.6-0.2,40.1-2.9,63-10.6c0,0-1.7-12.9-4.9-29.9
		c-0.2-1.1-0.4-2.2-0.6-3.3c-2.2-11.7-5.1-24.9-8.6-37.2c-0.3-1.1-0.6-2.1-1-3.2c-2.9-9.8-6.3-18.9-10-25.8c3.8-0.5,7.8-2,11.6-4.2
		l0,0c0.2,0.4,5,8.1,11.7,20c0.5,0.9,1,1.8,1.5,2.7c5.2,9.3,11.3,20.7,17.4,33.1c0.5,0.9,0.9,1.9,1.4,2.8
		c6.6,13.5,13.1,28.1,18.2,42.1c0.4,1,0.7,2,1.1,3c6.2,17.6,9.9,34.2,8.8,46.6c0.1,0.6,0.2,2.4,0.4,5.1c0.1,1,0.1,2.2,0.2,3.5v0
		c0.5,11.6,1,32.9,1.4,51.9c0,1.2,0.1,2.3,0.1,3.4c0.4,17.8,0.8,33,1.2,35.2c0,0,0,0.1,0,0.1c0.2,1.1,0.4,2.1,0.6,3.2
		c2.4,13.1,4.4,26.4,5.9,39.6c0.3,2.6,0.6,5.3,0.9,7.9c0.1,1.1,0.2,2.3,0.3,3.4v0c1.2,11.9,2.1,23.9,2.8,35.9
		c0.1,1.2,0.1,2.4,0.2,3.6c0.8,15.7,1.4,31.5,1.7,47.2c0,1.3,0.1,2.4,0.1,3.7v0c0.2,11.6,0.4,23.2,0.6,34.8
		C938.7,839.8,939.6,843.2,939.7,850.2"/>
	<path class="st2" d="M760.8,511.4c-14.9,13-29.9,25.9-44.8,38.9c0.1-1.4,0.2-2.9,0.2-4.3c0.6-0.5,1.1-1,1.7-1.5
		c13.1-11.4,26.2-22.7,39.3-34.1C758.3,510.8,759.5,511.1,760.8,511.4"/>
	<path class="st2" d="M812.6,517.8c-14.8,10.8-29.4,22-43.7,33.5c-20,16-39.6,32.6-58.7,49.8c0.3-1.6,0.6-3.3,0.9-4.9
		c4.1-3.7,8.3-7.3,12.4-11c27.1-23.6,55.1-46.1,83.9-67.5C809.1,517.8,810.9,517.8,812.6,517.8"/>
	<path class="st2" d="M894.2,462.3c-7.6,4.7-15.1,9.5-22.6,14.5c-0.3,0.2-0.6,0.4-0.9,0.6c-0.2-1.1-0.4-2.2-0.6-3.3
		c7.5-5,15.1-9.8,22.8-14.6C893.3,460.4,893.8,461.3,894.2,462.3"/>
	<path class="st2" d="M913.5,507.4c-6.9,4.3-13.8,8.6-20.7,13c-21,13.5-41.8,27.4-62.3,41.7c-20.5,14.3-40.6,29.1-60.6,44.2
		c-20,15.2-39.7,30.9-59.1,46.9c-6.3,5.2-12.5,10.4-18.7,15.7c0.5-1.8,1-3.5,1.4-5.2c7.6-6.5,15.2-12.8,22.9-19.1
		c19.4-15.9,39.1-31.3,59-46.3c20-15.1,40.3-29.7,60.8-43.9c20.6-14.3,41.6-28.2,62.8-41.6c4.4-2.8,8.9-5.6,13.3-8.3
		C912.8,505.4,913.1,506.4,913.5,507.4"/>
	<path class="st2" d="M922.8,562.7L922.8,562.7c-8.1,4.7-16.3,9.4-24.4,14.3c-22.9,13.6-45.5,27.7-67.9,42.2
		c-22.3,14.5-44.3,29.3-66,44.6c-21.8,15.4-43.3,31.2-64.5,47.4c-8.1,6.1-16,12.4-24,18.7c0.5-1.7,0.9-3.4,1.3-5
		c9.6-7.6,19.3-15.1,29.1-22.5c21.3-16.1,42.9-31.8,64.8-47.1c22-15.3,44.3-30.2,66.8-44.7c22.4-14.4,45.2-28.3,68.1-41.9
		c5.5-3.2,11-6.4,16.5-9.6C922.7,560.2,922.8,561.4,922.8,562.7"/>
	<path class="st2" d="M924.3,618c-5.2,2.6-10.3,5.3-15.4,7.9c-24.3,12.7-48.4,25.9-72.3,39.6c-23.8,13.7-47.4,27.9-70.7,42.5
		c-23.3,14.7-46.3,29.8-68.9,45.4c-11.3,7.8-22.5,15.6-33.7,23.6c0.4-1.6,0.8-3.1,1.3-4.7v0c13-9.3,26.2-18.5,39.5-27.5
		c22.8-15.5,45.8-30.5,69.2-45.1c23.5-14.6,47.2-28.7,71.2-42.3c23.8-13.5,47.9-26.5,72.2-39c2.5-1.3,5-2.6,7.6-3.9
		C924.2,615.7,924.2,616.8,924.3,618"/>
	<path class="st2" d="M926,656.4c-11.1,6.4-22.2,12.9-33.3,19.5c-24.2,14.3-48.1,29-71.9,44c-23.9,15.1-47.5,30.5-71,46.3
		c-23.4,15.7-46.5,31.7-69.4,48c-11.4,8.1-22.7,16.3-34,24.6c0.4-1.6,0.9-3.2,1.3-4.8c13.1-9.6,26.3-19.1,39.5-28.4
		c23-16.2,46.2-32.1,69.6-47.8c23.5-15.6,47.2-31,71.2-46c23.8-14.9,47.8-29.5,72-43.8c8.5-5,16.9-9.9,25.4-14.8c0,0,0,0.1,0,0.1
		C925.7,654.3,925.9,655.4,926,656.4"/>
	<path class="st2" d="M933.1,707.5L933.1,707.5c-9.8,6.2-19.6,12.5-29.4,18.7c-36.9,23.5-73.8,46.9-110.8,70.4
		c-28.2,17.9-56.3,35.8-84.5,53.7h-5.8c13.4-8.5,26.9-17.1,40.3-25.6c36.9-23.5,73.9-46.9,110.8-70.4c26.4-16.7,52.7-33.5,79-50.2
		C932.9,705.1,933,706.3,933.1,707.5"/>
	<path class="st2" d="M936.1,747c-2.3,1.5-4.5,3.1-6.8,4.6c-28.3,19.4-56.6,38.8-84.9,58.2c-19.6,13.5-39.2,26.9-58.9,40.4H780
		c8.5-5.8,16.9-11.6,25.4-17.4c28.3-19.4,56.6-38.8,84.9-58.2l45.5-31.2C936,744.6,936,745.8,936.1,747"/>
	<path class="st2" d="M938,797.9L938,797.9c-25.8,17.4-51.6,34.9-77.3,52.3h-5.5c3.8-2.5,7.6-5.1,11.4-7.7
		c23.8-16.1,47.6-32.2,71.4-48.3C937.9,795.5,937.9,796.7,938,797.9"/>
	<path class="st2" d="M742.4,474.3l-25.4,21.7c0-1.3-0.1-2.7-0.1-4c8.3-7.1,16.6-14.2,24.9-21.3
		C742.1,471.9,742.3,473.2,742.4,474.3"/>
	<path class="st2" d="M734.7,418.8c-6.7,5.5-13.4,10.9-20.1,16.3c-0.1-1.3-0.2-2.5-0.3-3.8c6.6-5.4,13.2-10.8,19.9-16.2
		C734.3,416.4,734.5,417.6,734.7,418.8"/>
	<path class="st2" d="M875.4,426.3c-4.6,3.5-9.3,7-14,10.5c-0.3-1.1-0.6-2.1-1-3.2c4.5-3.3,8.9-6.7,13.4-10
		C874.4,424.5,874.9,425.4,875.4,426.3"/>
	<path class="st3" d="M1049.6,527.4l-32.7,47.4l-18.6,27l-0.1,0c-2.6-7.3-6.2-14.5-11.8-19.8c-1.6-1.5-3.4-2.9-5.6-3.3
		c-2.2-0.4-4.7,0.4-5.7,2.4c-0.6,1.1-0.6,2.4-0.6,3.6c0.1,2.7,0.5,5.4,1.4,7.9l-0.2,0.2c-3.2-4.5-7.2-8.2-12-10.8
		c-2.7-1.5-6.5-2.3-8.3,0.2c-0.9,1.2-0.9,2.9-0.7,4.5c0.4,2.6,1.5,5.1,2.6,7.5c3.7,8.2,7.3,16.4,11,24.6c-2.5-3.2-5.2-6.2-8.2-8.9
		c-7.4-6.6-17-11.2-26.7-10.3c-1,0.1-2.1,0.3-2.9,0.9c-1.3,1-1.7,2.9-1.3,4.5c0.4,1.6,1.4,3,2.4,4.3c8.3,10.4,19.7,18.4,25.5,30.4
		l-0.1,0.1c-3.1-4-6.4-7.8-10.2-11.2c-5.8-5.2-12.9-9.4-20.6-10.5c-3.4-0.5-7.9,0.4-8.7,3.8c-0.6,2.9,1.9,5.5,4.1,7.4
		c5,4.3,10,8.7,14.7,13.4c-0.4,0.2-0.8,0.4-1.2,0.6l-12.7-4.9l-51.2-19.8l20.4-25.8l5.6-7.1l25-31.6l32.8-41.6l6.9-8.7L1049.6,527.4
		z M971.9,526.9c2.7-2.8,3-7,0.6-9.5c-2.4-2.4-6.5-2.2-9.3,0.6c-2.7,2.8-3,7-0.6,9.5C965,529.9,969.1,529.7,971.9,526.9"/>
	<path class="st4" d="M972.4,517.4c2.4,2.4,2.1,6.7-0.6,9.5c-2.7,2.8-6.9,3-9.3,0.6c-2.4-2.4-2.1-6.7,0.6-9.5
		C965.9,515.2,970.1,515,972.4,517.4"/>
	<path class="st5" d="M955.1,512.4L922.3,554c4.2-45.8-59.1-148.9-60.1-150.4c1.2,0.3,27.4,8.2,46.8,15.1c9.1,3.2,16.6,6.3,19.6,8.3
		c9.4,6.4-8,11.6-8,11.6s20.5,4.9,14.2,13.4L955.1,512.4L955.1,512.4z"/>
	<path class="st4" d="M954.9,297.4c1.9,17-18,31.5-14,48.1c1.3,5.1,4.7,9.6,5.8,14.8c2.2,10.9-6.5,20.6-14.5,28.3
		c-8,7.6-16.5,17.6-14,28.4c0,0-0.3-0.4-1-1c-4.8-4.9-25.7-25.4-41.9-23.1c21.6-22.7,40.4-66.9,45.3-105.5c0,0-15.3,16.8-27.4,11.9
		c-12.1-5-18-10.4-42.8,4.7c-19.3,11.8-32.2-7.9-32.2-7.9s5.7-21.7-13.7-23c-19.4-1.3-21.5,31.5-12,42.1l-21.8,36.2
		c-20.9-4.9-33.2-20.4-39.2-49c-6-28.6-32.1-28.3-32.1-28.3c-1.1-7.9,4.3-15.4,10.6-20.3c6.3-4.9,13.7-8.2,19.3-13.8
		c10-9.8,13.8-25.8,26-32.5c12.2-6.8,27.8-1.4,40.9-6c11.3-4,20-15,31.9-16.4c15.9-1.8,28.6,14,44.4,16.3
		c10.6,1.5,21.7-3.1,31.8,0.6c12.3,4.6,17.2,19.5,19.4,32.7c6.8-1.5,14.6-2.8,20,1.7c5,4.2,5.7,11.8,4.9,18.4
		c-0.9,6.6-2.9,13.2-1.9,19.7C948.2,282.5,954,289.3,954.9,297.4"/>
	<path class="st6" d="M897.3,585.6l-5.6,7.1l-20.8-3c6.8,8.3-2.2,16.6-2.2,16.6c1.9,13.1-10.3,12.2-10.3,12.2s6.4,11.5-6,14.4
		c-12.4,2.9-47.6-15.2-47.6-15.2c-32.2,22-80.1,58.7-116.5,68.3c-19.3,5.1-35.4,2.6-44.2-13.7C618.9,625.2,631,571.8,631,571.8
		l81.6,13.9h0c-0.8,5.8-1.7,11.4-2.8,16.9c33.3-12.5,78.9-28.2,103.7-30.7C856,567.5,861.2,561.5,897.3,585.6"/>
	<path class="st6" d="M741.7,400l29.2-48.6l21.8-36.2c-9.5-10.6-7.4-43.4,12-42.1c19.4,1.3,13.7,23,13.7,23s12.8,19.7,32.2,7.9
		c24.8-15.1,30.7-9.7,42.8-4.7c12.1,4.9,27.4-11.9,27.4-11.9c-4.9,38.6-23.7,82.8-45.3,105.5c-4.3,4.5-8.7,8.2-13.2,10.8
		c-3.9,2.3-7.8,3.7-11.6,4.2c-1.4,0.2-2.9,0.2-4.3,0.2c-28.8-1.7-54.1-56.8-54.1-56.8s-10.2,70.6,56.8,76.9
		c-11.8,57-29.8,60.9-29.8,60.9C794,486,741.7,400,741.7,400"/>
	<path class="st6" d="M1020.3,581.2c-0.2,2.6-1.5,5-2.7,7.2c-7.5,13.4-16,26.3-20.4,41c-2.8,9.2-4,19-6.6,28.3
		c-2.6,9.3-7,18.6-14.7,24.3c-6.1,4.5-13.6,6.4-21.1,7.5c-7.8,1.2-16.2,1.7-22.6,6.5l-0.2,0c-1.6-14.3-3.8-28.6-6.4-42.8
		c0.6-2.6,2.2-4.8,4.2-6.5c1.7-1.4,3.6-2.5,5.5-3.5c0.4-0.2,0.8-0.4,1.2-0.6c-4.8-4.6-9.7-9.1-14.7-13.4c-2.2-1.9-4.8-4.5-4.1-7.4
		c0.8-3.4,5.3-4.3,8.7-3.8c7.7,1.1,14.8,5.2,20.6,10.5c3.8,3.4,7,7.2,10.2,11.2l0.1-0.1c-5.8-12-17.2-20.1-25.5-30.5
		c-1-1.3-2-2.7-2.4-4.3c-0.4-1.6,0-3.5,1.3-4.5c0.8-0.6,1.9-0.8,2.9-0.9c9.7-0.8,19.3,3.7,26.7,10.3c3,2.7,5.7,5.7,8.2,8.9
		c-3.7-8.2-7.4-16.4-11-24.6c-1.1-2.4-2.2-4.9-2.6-7.5c-0.2-1.5-0.2-3.2,0.7-4.5c1.8-2.5,5.6-1.7,8.3-0.2c4.8,2.6,8.8,6.4,12,10.8
		l0.2-0.2c-0.9-2.5-1.3-5.2-1.4-7.9c0-1.2,0-2.5,0.6-3.6c1-2,3.5-2.8,5.7-2.4c2.2,0.4,4,1.8,5.6,3.3c5.6,5.3,9.3,12.4,11.8,19.8
		l0.1,0l18.6-27C1019.3,575.8,1020.5,578.6,1020.3,581.2"/>
	<path class="st7" d="M881.8,331.3l-3.3,42c-5-2-10.8-9.7-10.8-9.7c-4.4,1.6-6.6,0-6.6,0L881.8,331.3z"/>
	<path class="st5" d="M850.6,407.8c16,29.7,25.1,99.4,25.1,99.4c-70.7,23.8-128.2,0-128.2,0c-3.3-19-12.9-89.6-15.2-106l9.4-1.3
		c0,0,52.3,86,77.4,88.9c0,0,18-3.9,29.8-60.9l-2.7-20C847.7,408.1,849.1,408,850.6,407.8"/>
	<path class="st7" d="M846.3,408l2.7,20c-67-6.2-56.8-76.9-56.8-76.9S817.5,406.3,846.3,408"/>
	<path class="st7" d="M829.9,321.7c7.1,0,12.8,5.9,12.8,13.1c0,7.2-5.7,13.1-12.8,13.1c-7.1,0-12.8-5.9-12.8-13.1
		C817.1,327.5,822.8,321.7,829.9,321.7"/>
	<path class="st5" d="M712.2,404.9c1.9,19.4,9.9,111.8,0.5,180.7h0L631,571.8l-10.7-1.8c0,0,4.6-54.1,11.4-96.5
		c6.9-42.4,25.1-38.4,25.1-38.4s-6.5-5.2-6.9-11C649.7,418.3,712.1,404.9,712.2,404.9L712.2,404.9z"/>
	<path class="st8" d="M920.7,287.2c-4.9,38.6-23.7,82.8-45.3,105.5c-4.3,4.5-8.7,8.2-13.2,10.8c-3.9,2.3-7.8,3.7-11.6,4.2
		c-1.4,0.2-2.9,0.3-4.3,0.2c-28.8-1.7-54.1-56.8-54.1-56.8"/>
	<path class="st8" d="M846.3,408l2.7,20c-11.8,57-29.8,60.9-29.8,60.9C794,486,741.7,400,741.7,400l29.2-48.6l21.8-36.2
		c-9.5-10.6-7.4-43.4,12-42.1c19.4,1.3,13.7,23,13.7,23"/>
	<path class="st8" d="M712.6,585.6L631,571.8l-10.7-1.8c0,0,4.6-54.1,11.4-96.5c6.9-42.4,25.1-38.4,25.1-38.4s-6.5-5.2-6.9-11
		c-0.3-5.8,62.1-19.2,62.1-19.2"/>
	<path class="st8" d="M862.2,403.6c1.2,0.3,27.4,8.2,46.8,15.1c9.1,3.2,16.6,6.3,19.6,8.3c9.4,6.4-8,11.6-8,11.6s20.5,4.9,14.2,13.4
		l20.1,60.4"/>
	<path class="st8" d="M631,571.8c0,0-12.1,53.4,13.2,100.5c8.8,16.3,24.9,18.8,44.2,13.7c36.4-9.7,84.3-46.3,116.5-68.3
		c0,0,35.2,18.1,47.6,15.2c12.4-2.8,6-14.4,6-14.4s12.2,0.8,10.3-12.2c0,0,9-8.3,2.2-16.6l20.8,3"/>
	<path class="st8" d="M669.2,618.5c0,0,17.3-7.2,40.7-16c33.3-12.5,78.9-28.2,103.7-30.7c42.3-4.3,47.5-10.3,83.6,13.9"/>
	<polyline class="st8" points="937.6,644.2 935.2,643.3 922.5,638.4 871.3,618.5 891.7,592.7 897.3,585.6 922.3,554 955.1,512.4 
		962,503.7 1049.6,527.4 1016.9,574.9 998.3,601.9 997.9,602.5 	"/>
	<path class="st8" d="M947.5,653.9c-3.6-3.9-7.3-7.6-11.1-11.2c-4.8-4.6-9.7-9.1-14.7-13.4c-2.2-1.9-4.8-4.5-4.1-7.4
		c0.8-3.4,5.3-4.3,8.7-3.8c7.7,1.1,14.8,5.2,20.6,10.5c3.8,3.4,7,7.2,10.2,11.2c1.8,2.2,3.4,4.5,5.1,6.8"/>
	<path class="st8" d="M957,639.7c-5.8-12-17.2-20.1-25.5-30.4c-1-1.3-2-2.7-2.4-4.3c-0.4-1.6,0-3.5,1.3-4.5c0.8-0.6,1.9-0.8,2.9-0.9
		c9.7-0.8,19.3,3.7,26.7,10.3c3,2.7,5.7,5.7,8.2,8.9c3.6,4.5,6.9,9.5,10.1,14.4"/>
	<path class="st8" d="M968.5,619.1c-0.1-0.1-0.1-0.3-0.2-0.4c-3.7-8.2-7.4-16.4-11-24.6c-1.1-2.4-2.2-4.9-2.6-7.5
		c-0.2-1.5-0.2-3.2,0.7-4.5c1.8-2.5,5.6-1.7,8.3-0.2c4.8,2.6,8.8,6.4,12,10.8c1.4,2,2.7,4.1,3.8,6.2c3.6,7.1,5.6,14.9,6.9,22.7"/>
	<path class="st8" d="M975.9,592.6c-0.9-2.5-1.3-5.2-1.4-7.9c0-1.2,0-2.5,0.6-3.6c1-2,3.5-2.8,5.7-2.4c2.2,0.4,4,1.8,5.6,3.3
		c5.6,5.3,9.3,12.4,11.8,19.8"/>
	<path class="st8" d="M1016.9,574.9c2.4,0.9,3.6,3.8,3.4,6.4c-0.2,2.6-1.5,5-2.7,7.2c-7.5,13.4-16,26.3-20.4,41
		c-2.8,9.2-4,19-6.6,28.3c-2.6,9.3-7,18.6-14.7,24.3c-6.1,4.5-13.6,6.4-21.1,7.5c-7.8,1.2-16.2,1.7-22.6,6.5"/>
	<path class="st8" d="M936.7,642.5c-0.1,0-0.2,0.1-0.3,0.2c-0.4,0.2-0.8,0.4-1.2,0.6c-1.9,1-3.8,2.1-5.5,3.5c-2,1.7-3.6,3.9-4.2,6.5
		c-0.1,0.1-0.1,0.3-0.1,0.4"/>
	<polyline class="st8" points="741.7,400 732.3,401.3 732.2,401.3 	"/>
	<path d="M871.8,324.4c-1.8,3.9-5.8,5.8-8.9,4.3c-3.1-1.5-4.2-5.9-2.4-9.7c1.8-3.9,5.8-5.8,8.9-4.3
		C872.5,316.2,873.6,320.5,871.8,324.4"/>
	<path d="M900.4,341.5c-1.8,3.9-5.8,5.8-8.9,4.3c-3.1-1.5-4.2-5.9-2.4-9.7c1.8-3.9,5.8-5.8,8.9-4.3
		C901.1,333.3,902.2,337.6,900.4,341.5"/>
	<path d="M857.5,384.6c-9.4-4.8-17.7-13.1-19.2-24.1c-0.3-2-3.3-1.7-3.1,0.3c1.7,12.2,10.6,21.3,21,26.7
		C857.9,388.4,859.2,385.5,857.5,384.6"/>
	<path class="st4" d="M881.9,304.1c-0.4-1.1-1.2-2.2-2.4-2.6c-5.5-1.9-11.4-2.6-17.1-1.6c-1.2,0.2-2.3,0.7-3.1,1.7
		c-0.7,0.9-1.2,2.3-1.1,3.4c0.3,2.3,2.5,4.7,5,4.3c1.9-0.4,3.9-0.5,5.9-0.5c2.4,0.2,4.8,0.6,7.1,1.4c-0.1,0-0.2-0.1-0.4-0.1
		c1.1,0.4,2.2,0.5,3.3,0.1c1-0.4,2.1-1.3,2.6-2.4C882.2,306.6,882.4,305.3,881.9,304.1"/>
	<path class="st4" d="M913.7,323.5c-1.2-2.2-2.8-4.2-4.6-5.9c-1.8-1.7-3.9-3.2-6.1-4.2c-1.1-0.5-2.5-0.6-3.6-0.2
		c-1,0.4-2.1,1.3-2.6,2.4c-0.5,1.1-0.6,2.5-0.2,3.7c0.5,1.1,1.2,2.1,2.4,2.6c0.6,0.3,1.1,0.6,1.7,1c1.1,0.8,2.1,1.6,3,2.6
		c0.9,1.1,1.7,2.2,2.4,3.5c0.5,1,1.9,1.7,2.9,1.9c1.1,0.2,2.6-0.1,3.5-0.8c0.9-0.7,1.7-1.8,1.9-3l0.1-1.3
		C914.5,325,914.2,324.2,913.7,323.5"/>
	<path class="st9" d="M653.5,821v55.5c-53.8-28.1-97.6,0-97.6,0v-73.1c0,0,18.7-11.6,44.9,7C626.9,828.9,653.5,821,653.5,821
		 M641.6,842.8c0-4.4-3.5-7.9-7.8-7.9c-4.3,0-7.8,3.6-7.8,7.9c0,4.4,3.5,7.9,7.8,7.9C638.1,850.7,641.6,847.1,641.6,842.8
		 M623.4,851.4c0-1.7-1.3-3.1-3-3.1c-1.7,0-3,1.4-3,3.1c0,1.7,1.3,3.1,3,3.1C622.1,854.5,623.4,853.1,623.4,851.4 M608.4,832.3
		c0-2.2-1.7-3.9-3.9-3.9c-2.1,0-3.9,1.8-3.9,3.9c0,2.2,1.8,4,3.9,4C606.6,836.3,608.4,834.5,608.4,832.3 M594.8,843.9
		c0-3.7-3-6.8-6.6-6.8c-3.7,0-6.6,3-6.6,6.8c0,3.7,2.9,6.7,6.6,6.7C591.8,850.7,594.8,847.7,594.8,843.9 M587.5,823.7
		c0-3.4-2.7-6.1-6-6.1c-3.3,0-6,2.7-6,6.1c0,3.4,2.7,6.1,6,6.1C584.8,829.8,587.5,827,587.5,823.7"/>
	<path class="st5" d="M653.5,876.4h-48.3h-49.3C555.9,876.4,599.8,848.3,653.5,876.4"/>
	<path class="st5" d="M604.5,828.4c2.2,0,3.9,1.8,3.9,3.9c0,2.2-1.7,4-3.9,4c-2.1,0-3.9-1.8-3.9-4
		C600.6,830.1,602.3,828.4,604.5,828.4"/>
	<path class="st5" d="M581.5,817.5c3.3,0,6,2.7,6,6.1c0,3.4-2.7,6.1-6,6.1c-3.3,0-6-2.7-6-6.1C575.5,820.3,578.2,817.5,581.5,817.5"
		/>
	<path class="st5" d="M588.1,837.2c3.7,0,6.6,3,6.6,6.8c0,3.7-3,6.7-6.6,6.7c-3.7,0-6.6-3-6.6-6.7
		C581.5,840.2,584.5,837.2,588.1,837.2"/>
	<path class="st5" d="M620.4,848.3c1.7,0,3,1.4,3,3.1c0,1.7-1.3,3.1-3,3.1c-1.7,0-3-1.4-3-3.1C617.4,849.7,618.7,848.3,620.4,848.3"
		/>
	<path class="st5" d="M633.8,834.8c4.3,0,7.8,3.6,7.8,7.9c0,4.4-3.5,7.9-7.8,7.9c-4.3,0-7.8-3.6-7.8-7.9
		C626,838.4,629.5,834.8,633.8,834.8"/>
	<path class="st10" d="M642.8,733.9v24.7h-9.1h-58.1h-8.1v-24.7c0,0,4.9,12.3,37.6,12.3C637.9,746.3,642.8,733.9,642.8,733.9"/>
	<path class="st11" d="M567.6,733.9h75.3c0,0-4.9,12.3-37.6,12.3C572.5,746.3,567.6,733.9,567.6,733.9"/>
	<path class="st0" d="M653.5,789.3V821c0,0-26.6,7.9-52.8-10.7c-26.1-18.6-44.9-7-44.9-7v-14c0-15.6,19.8-16.3,19.8-16.3v-14.4h58.1
		V773C633.7,773,653.5,773.6,653.5,789.3"/>
	<polygon class="st8" points="642.8,733.9 642.8,758.6 633.7,758.6 575.7,758.6 567.6,758.6 567.6,733.9 	"/>
	<path class="st8" d="M633.7,758.6V773c0,0,19.8,0.6,19.8,16.3V821v55.5h-48.3h-49.3v-73.1v-14c0-15.6,19.8-16.3,19.8-16.3v-14.4"/>
	<path class="st8" d="M555.9,803.3c0,0,18.7-11.6,44.9,7c26.2,18.6,52.8,10.7,52.8,10.7"/>
	<rect x="858.4" y="720.3" class="st12" width="37.7" height="155.8"/>
	<path class="st1" d="M976.4,876h-80.3V720.3h80.3V876z M963.2,742.7h-53.4v113.8h53.4V742.7z"/>
	<rect x="909.7" y="742.7" class="st0" width="53.4" height="113.8"/>
	<polygon class="st8" points="896.1,720.3 976.4,720.3 976.4,876 896.1,876 858.4,876 858.4,720.3 	"/>
	<rect x="909.7" y="742.7" class="st8" width="53.4" height="113.8"/>
	<path class="st10" d="M883.6,759.7c0,0,21.3,125.9-115.7,125.9c-137,0-124.7-125.9-124.7-125.9s29.4,21.2,120.6,21.2
		C855.1,780.9,883.6,759.7,883.6,759.7"/>
	<path class="st11" d="M643.3,759.7h240.3c0,0-28.5,21.2-119.7,21.2C672.7,780.9,643.3,759.7,643.3,759.7"/>
	<path class="st8" d="M643.3,759.7h240.3c0,0,21.3,125.9-115.7,125.9C630.9,885.6,643.3,759.7,643.3,759.7z"/>
</g>
<g>
	<g>
		<path class="st13" d="M1119.8,336.9c-1.1-0.8-2.4-1-3.3-0.7c-0.7,0.2-1.2,0.5-1.5,0.8c-0.2,0.1-0.5,0.3-0.8,0.6
			c-0.6,0.6-1.3,1.6-1.4,2.9c-0.1,1.3,0.4,2.8,1.7,3.9c0.6,0.5,1.5,0.9,2.3,0.9c0.8,0.1,1.7-0.1,2.4-0.5c0.7-0.4,1.4-1,1.8-1.7
			c0.4-0.7,0.6-1.6,0.6-2.3C1121.7,339.2,1120.9,337.7,1119.8,336.9z M1118.3,343c-0.9,0.4-1.9,0.4-2.5-0.2c-0.7-0.5-1.1-1.5-1-2.2
			c0-0.8,0.4-1.4,0.7-1.9c0.3-0.3,0.5-0.6,0.7-0.7c0.2-0.1,0.4-0.1,0.7-0.1c0.5-0.1,1.3,0.1,1.9,0.6c0.6,0.5,1,1.4,1,2.3
			C1119.7,341.7,1119.2,342.6,1118.3,343z"/>
		<path class="st13" d="M1135.5,339.7c-0.1-0.8-0.3-1.6-0.8-2.4c-0.5-0.8-1.3-1.2-2-1.5c-2.8-0.9-4.9,0.3-5.3,0.9
			c-0.1,0.1-0.2,0.2-0.3,0.4c-0.2,0.1-0.3,0.3-0.5,0.5c-0.6,0.8-1.1,2-0.9,3.5c0.2,1.4,1,3,2.7,3.8c1.6,0.8,3.6,0.7,5.2-0.4
			c0.8-0.6,1.3-1.3,1.7-2.2C1135.6,341.5,1135.6,340.5,1135.5,339.7z M1133.3,341.6c-0.2,0.5-0.6,1-1,1.3c-0.9,0.7-2.2,0.7-3.1,0.3
			c-0.9-0.4-1.5-1.4-1.7-2.3c-0.2-0.9,0.1-1.7,0.4-2.3c0.3-0.5,0.6-0.8,0.8-1c0.2-0.1,0.5-0.1,0.8-0.2c0.7-0.1,1.7-0.1,2.5,0.3
			c0.4,0.2,0.8,0.4,1,0.8c0.2,0.4,0.4,1,0.4,1.5C1133.6,340.6,1133.5,341.1,1133.3,341.6z"/>
		<path class="st13" d="M1129.6,319.9c-0.1,0.4-0.2,0.7-0.5,1.1c-0.3,0.3-0.6,0.6-0.9,0.8c-0.3,0.2-0.7,0.3-1.1,0.2
			c-0.4,0-0.8-0.2-1.1-0.4c-0.5-0.4-0.6-1-0.7-1.3c-0.2-0.4-0.4-1-0.3-1.8c0-0.5,0.2-1.1,0.6-1.7c0.1-0.1,0.2-0.3,0.3-0.4
			c0.1-0.1,0.4-0.3,0.6-0.5c0.5-0.3,1-0.3,1.5-0.2c0.5,0.2,0.9,0.6,1.2,1.1c0.2,0.5,0.3,0.8,0.3,1.1
			C1129.6,318.5,1129.7,319.1,1129.6,319.9z"/>
		<path class="st13" d="M1168.3,308.8c-0.8-0.5-1.7-0.4-2.4-0.2c-0.7,0.2-1.2,0.7-1.6,1c-0.4,0.4-0.6,0.7-0.9,1.1
			c-0.2,0.3-0.5,0.7-0.6,1c-0.3,0.5-0.4,0.9-0.5,1.2c-0.2,0.1-0.3,0.3-0.5,0.6c-0.1,0.3-0.3,1,0.1,1.8c0.4,0.8,1.4,1.4,2.3,1.7
			c0.5,0.1,1,0.3,1.7,0.4c0.8,0,1.6-0.4,2.1-0.9c0.5-0.5,0.8-1.1,1.1-1.7c0.2-0.6,0.4-1.1,0.6-1.8c0.1-0.7,0.2-1.4,0-2.2
			C1169.5,310,1169,309.3,1168.3,308.8z M1163.9,314.7c0,0.1,0,0.1,0,0.2c0,0-0.1,0-0.1-0.1C1163.8,314.7,1163.8,314.7,1163.9,314.7
			z M1165.9,315.4c-0.1,0-0.2,0-0.4,0c0.1-0.1,0.2-0.2,0.4-0.3c0.1,0.1,0.2,0.1,0.3,0.2c0,0,0,0,0.1,0
			C1166.2,315.4,1166.1,315.4,1165.9,315.4z"/>
		<path class="st13" d="M1212,299.8c0-0.1,0.1-0.2,0.1-0.3c0,0,0.1,0,0.1,0c0.5-0.2,2.2-0.8,4.1-2.4c0.9-0.8,1.8-1.9,2.4-3.2
			c0.3-0.7,0.5-1.3,0.5-2.2c0-0.4-0.1-0.9-0.3-1.3c-0.2-0.5-0.7-1-1.3-1.1c-0.3-0.1-0.7-0.1-1,0c-0.3,0.1-0.6,0.2-0.8,0.3
			c-0.4,0.3-0.7,0.5-0.9,0.7c-0.5,0.4-0.9,0.8-1.3,1.2c-0.6,0.5-1.1,1-1.3,1.3c-0.2-0.7-0.5-1.4-0.9-2c-0.6-1-1.6-1.8-2.6-2.4
			c-2.1-1.2-4.5-1.4-6.7-0.9c-2.2,0.5-4.1,1.7-5.1,3.4c-1.1,1.7-1.3,3.4-1.1,4.7c0.1,0.8,0.3,1.4,0.6,1.9c-4-1.9-8.5-3.3-13.4-4
			c-6.6-1-13.8-0.7-20.7,0.4c-6.9,1.1-13.7,2.8-20.1,4.6c-2.7,0.8-5.2,1.7-7.6,2.8c-0.1-0.4-0.4-0.9-0.7-1.6c-0.5-1-1.2-2.3-2.3-3.5
			c-0.6-0.6-1.3-1.2-2.1-1.7c-0.8-0.5-1.8-0.9-3-1c-1.2-0.1-2.3,0.4-3.2,1c-0.9,0.6-1.7,1.4-2.3,2.3c-1.2,1.8-1.8,3.8-2.1,5.7
			c-0.3,1.9-0.2,3.8-0.1,5.4c0.1,1.6,0.4,3,0.6,4c0.2,1.1,0.4,1.9,0.5,2.3c0.3,0.8,0.5,1.1,0.7,1.2c-0.6,1.8-1,3.4-1.4,4.9
			c-0.5,1.9-0.9,3.4-1.4,4.7c-0.5,1.2-1,2.1-1.4,2.7c-1,1.6-2,2.4-2.5,2.9c-0.2,0.2-0.4,0.3-0.6,0.5c-0.4,0.3-0.7,0.6-0.8,0.8
			c-0.1,0.1-0.2,0.2-0.2,0.3c-1,0.8-2.4,2.3-3.3,4.6c-0.6,1.4-1,3.1-1.1,4.9c-0.1,1.8,0.1,3.9,0.8,6c0.4,1,1,2.1,1.8,3
			c0.8,0.9,1.9,1.6,2.9,2.1c1.7,0.8,3.6,1.4,5.5,1.8c0.1,0.4,0.2,0.8,0.4,1.4c0.2,0.8,0.6,1.7,1.1,2.8c0.2,0.4,0.4,0.8,0.7,1.3
			c0.3,0.5,0.7,1.1,1.1,1.7c0.9,1.2,2.1,2.7,3.7,4.2c2.4,2.3,5.7,4.6,9.7,6.4c0,0,0,0.1,0,0.1c0.1,0.6,0.4,2.3,1,4.5
			c0.1,0.6,0.3,1.1,0.5,1.8c0.2,0.6,0.4,1.3,0.8,2c0.4,0.7,1,1.4,1.7,1.8c0.7,0.5,1.5,0.8,2.3,0.9c1.6,0.4,3.2,0.3,4.7-0.2
			c0.7-0.3,1.4-0.7,2-1.2c0.6-0.5,1-1.2,1.3-1.7c0.6-1.2,0.8-2.2,1-2.9c0.2-0.6,0.3-1.1,0.3-1.4c0.3,0,0.6,0,0.9,0.1
			c0.1,0.3,0.2,0.5,0.3,0.8c0.3,0.8,0.6,1.7,0.9,2.7c0.3,0.9,0.7,1.9,1.3,2.9c0.6,1,1.3,2,2.3,2.7c1,0.7,2.2,1.3,3.6,1.3
			c1.3,0.1,2.6-0.3,3.7-1c1.1-0.6,2-1.5,2.6-2.4c1.3-1.9,1.9-4,2.3-5.6c0.2-0.7,0.4-1.4,0.5-2c0.4,0,0.8-0.1,1.2-0.1
			c0.9-0.1,1.9-0.2,2.8-0.3c0.1,0.8,0.5,2.1,1,3.7c0.2,0.6,0.4,1.1,0.7,1.8c0.3,0.6,0.8,1.3,1.5,1.7c0.7,0.5,1.6,0.6,2.3,0.7
			c0.7,0.1,1.4,0.1,2.1,0.1c1.4,0,3-0.3,4.3-1c0.9-0.5,1.3-1.1,1.7-1.6c0.4-0.5,0.7-1.1,1-1.6c0.7-1.3,1.1-2.4,1.3-3.2
			c0.3,0.9,0.5,1.9,0.9,2.9c0.4,1.1,0.8,2.3,1.9,3.3c2,2,5.4,2.4,7.9,1c1.3-0.7,2.2-1.8,2.9-3c0.7-1.1,1.2-2.3,1.6-3.4
			c0.8-2.2,1.5-4.4,2-6.4c0.8-3.2,1.2-5.8,1.3-7.2c1.1-1.2,2.1-2.5,2.9-3.8c1.9-2.9,3.3-5.9,4.4-8.8c2.1-5.8,2.9-11.3,3-15.6
			c0.2-4.3-0.3-7.4-0.5-9.1c-0.4-2.4-0.8-3.7-1.1-4.4c-0.1-0.4-0.3-0.6-0.4-0.7c-0.1-0.7-0.4-1.9-1.2-3.7c-0.6-1.4-1.8-4.1-4.1-7.3
			c-0.9-1.3-2-2.6-3.3-4c0,0,0.1-0.1,0.1-0.1C1208.7,305.1,1210.8,303.3,1212,299.8z M1212.6,294.1c0.1,0,0.2-0.1,0.3-0.1
			c0.3-0.1,1-0.6,1.8-1.2c0.4-0.3,0.9-0.7,1.4-1c0.3-0.2,0.5-0.4,0.7-0.5c0.3-0.1,0.2-0.1,0.2-0.1c0,0,0,0,0,0
			c0,0.1,0.1,0.3,0.1,0.5c0,0.2,0,0.4-0.1,0.7c-0.1,0.3-0.1,0.5-0.2,0.7c-0.4,1-1.1,1.8-1.8,2.5c-0.9,0.8-1.8,1.5-2.5,1.9
			C1212.8,296.6,1212.8,295.4,1212.6,294.1z M1162.7,295.8c6-0.9,12.1-1.2,17.9-0.6c0,0.1,0,0.1,0.1,0.2c0,0.1,0.1,0.4,0.1,0.6
			c0,0.2-0.1,0.5-0.2,0.6c-0.1,0-0.1,0.1-0.3,0.1c-0.2,0-0.5,0-0.8,0c-0.6,0-1.3,0.1-2,0.1c-2.9,0.1-6.4,0.5-9.9,1
			c-3.5,0.5-7.1,1.1-9.8,1.7c-0.7,0.1-1.2,0.1-1.7,0.1c-0.5-0.1-1-0.2-1.4-0.4c-0.8-0.3-1.4-0.7-1.8-0.9c-0.3-0.1-0.6-0.2-0.7-0.3
			C1155.6,297.1,1159.2,296.3,1162.7,295.8z M1120.9,302.8c0.3-1.7,0.9-3.4,1.9-4.9c1-1.4,2.4-2.5,3.8-2.4c0.7,0,1.4,0.3,2.1,0.7
			c0.7,0.4,1.2,0.8,1.7,1.3c1,1,1.7,2.1,2.2,3c0.3,0.6,0.6,1,0.8,1.4c-0.1,0-0.1,0-0.2,0.1c-1.2,0.6-2.4,1.4-3.5,2.1
			c0-0.1,0.1-0.1,0.1-0.2c0-0.2-0.1-0.4-0.3-0.7c-0.1-0.1-0.3-0.3-0.4-0.3c-0.3-0.5-0.7-1.2-1.6-1.7c-0.5-0.3-1.1-0.4-1.7-0.3
			c-0.6,0.1-1,0.4-1.4,0.8c-0.4,0.3-0.7,0.8-0.8,1.2c-0.2,0.4-0.3,0.9-0.3,1.3c-0.1,0.8,0,1.4,0.1,2.1c0.1,1.2,0.6,2.3,0.9,2.5
			c0.1,0,0.1,0.1,0.2,0.1c-1.3,1.6-2.4,3.3-3.1,5.1v0c0-0.8-0.3-3.2-0.5-6.2C1120.6,306.2,1120.6,304.5,1120.9,302.8z M1114.2,351
			c-0.9-0.5-1.8-1-2.4-1.7c-0.7-0.7-1.1-1.5-1.5-2.3c-0.7-1.7-0.8-3.6-0.8-5.2c0-1.7,0.4-3.2,0.8-4.4c0.9-2.5,2.4-3.9,3.1-4.6
			c1.1-1,1.9-1.4,2.4-1.7c0,0,0,0,0.1,0c1.1-0.4,2.8-0.9,5.2-1.1c2.7-0.2,6.3,0.1,10.1,1.1c1.9,0.5,3.9,1.3,5.6,2.5
			c1.7,1.2,3.1,3,3.5,5.1c0.5,2.1,0,4.5-1,6.5c-1.1,2-2.8,3.7-4.9,5c-4.1,2.5-9.2,3.3-13.8,2.8
			C1118.4,352.5,1116.1,351.9,1114.2,351z M1142.3,338c-0.6-2.7-2.4-4.9-4.4-6.2c-2-1.4-4.2-2.1-6.2-2.7c-2-0.5-3.9-0.8-5.7-0.9
			c1.7-0.1,3.7-0.2,5.8-0.1c2.9,0.2,6.1,0.9,8.9,2.7c1.4,0.9,2.6,2.1,3.5,3.5c0.9,1.4,1.5,3,1.7,4.7c0.2,1.7,0,3.4-0.6,5
			c-0.6,1.6-1.5,3-2.6,4.2c-2.2,2.4-5.2,3.7-8,4.2c-0.3,0.1-0.6,0.1-0.9,0.2c0.6-0.3,1.2-0.6,1.7-0.9c2.3-1.4,4.3-3.3,5.6-5.8
			C1142.4,343.5,1142.9,340.7,1142.3,338z M1209.9,310.8c2.3,3,3.5,5.6,4.2,6.9c1,1.9,1.4,3,1.7,3.7c0.1,0.2,0.2,0.3,0.3,0.4v0
			c0,0,0,0,0,0c0.1,0.8,0.3,2.1,0.5,4.3c0.1,1.6,0.4,4.7,0.2,8.8c-0.2,4.1-1,9.4-3.2,15c-1,2.8-2.4,5.6-4.2,8.4
			c-0.5,0.7-1,1.5-1.6,2.2c0,0,0,0,0,0c-0.2,0-0.3,0-0.6,0.8c-0.1,0.2-0.2,0.5-0.3,0.9c-0.1,0.5-0.3,1.5-0.6,2.8v0
			c-0.3,1.3-0.7,3-1.2,4.9c-0.5,1.9-1.2,4-2,6.1c-0.4,1.1-0.9,2.1-1.4,3.1c-0.6,0.9-1.3,1.8-2.2,2.2c-1.7,1-4.2,0.7-5.6-0.7
			c-0.7-0.6-1.1-1.6-1.4-2.5c-0.3-1-0.7-2-1-2.9c-0.3-0.9-0.5-1.8-0.8-2.6c-0.2-0.7-0.4-1.4-0.5-2c-0.4-1.5-0.7-2.5-0.9-3.1
			c-0.5-1.5-0.8-1.7-1-1.7c-0.2,0-0.4,0.3-0.2,2c0.1,0.6,0.2,1.7,0.5,3.1c-2.2,0.4-4.5,0.8-6.7,1.2c-3.7,0.6-7.5,1.1-11.2,1.5
			c-0.1,0-0.3,0-0.4,0c0.3-1.3,0.5-2.3,0.6-2.8c0.2-1.4,0-1.7-0.2-1.7c-0.2-0.1-0.5,0.1-1,1.4c-0.2,0.5-0.6,1.7-1.1,3.3
			c-0.2,0.6-0.4,1.3-0.6,2.1c-0.1,0.4-0.3,0.9-0.4,1.3c-0.5,1.7-1.1,3.5-2.2,5c-1,1.4-2.9,2.6-4.6,2.5c-0.9,0-1.7-0.4-2.4-0.9
			c-0.7-0.5-1.3-1.3-1.8-2.1c-0.9-1.6-1.6-3.5-2.2-5.1c0,0,0,0,0-0.1c-0.3-0.7-0.5-1.4-0.7-2c-0.7-2.2-1.1-3.9-1.3-4.6
			c-0.4-1.3-0.7-1.4-0.9-1.4c-0.2,0-0.4,0.2-0.3,1.7c0,0.7,0.3,2.2,0.8,4.2c-4.1-0.3-8-0.9-11.5-2c-5.7-1.7-10.1-4.7-13.1-7.4
			c-1.5-1.4-2.7-2.8-3.6-3.9c-0.4-0.6-0.8-1.1-1.1-1.6c-0.3-0.5-0.6-0.9-0.8-1.2c-0.6-1-1-1.8-1.3-2.5c-0.2-0.3-0.3-0.6-0.4-0.9
			c0,0,0,0,0,0c0.2,0,0.3,0.1,0.5,0.1c0,0.1-0.1,0.1-0.1,0.2c0,0.1,0.1,0.2,0.5,0.2c0.4,0,1.1,0,2.3-0.1c0.8,0,2.3-0.1,4.3-0.2
			c2.1-0.1,4.7-0.1,7.8-0.6c1.5-0.3,3.1-0.7,4.7-1.5c1.6-0.7,3.1-1.8,4.4-3.2c1.3-1.4,2.3-3.1,3-4.9c0.7-1.9,0.9-3.9,0.6-5.9
			c-0.2-2-0.9-4-2-5.6c-1.1-1.7-2.6-3-4.2-4c-3.2-2-6.8-2.7-9.8-2.9c-3.1-0.1-5.7,0.2-7.8,0.5c-2.1,0.3-3.6,0.7-4.4,0.9
			c-2.2,0.7-2.5,1-2.4,1.3c-0.2,0-0.3,0.1-0.5,0.1c0.2-0.2,0.4-0.5,0.6-0.7c0.5-0.6,1.1-1.6,1.7-2.9c0.6-1.3,1.1-3,1.6-4.8
			c0.5-1.9,1.1-4,2-6.1c0.9-2.1,2.4-4.2,4.3-6.1c1.9-1.9,4.3-3.5,7-4.9c0.1-0.1,0.3-0.1,0.5-0.2c0.1,0,0.2,0,0.3,0
			c0.1,0,0.1-0.1,0.2-0.2c2.4-1.2,5.1-2.1,7.9-2.9c2.8-0.8,5.6-1.5,8.5-2.2c-0.1,0.2-0.1,0.4,0.7,1.2c0.3,0.3,0.9,0.8,1.8,1.3
			c0.5,0.2,1.1,0.5,1.8,0.6c0.7,0.1,1.5,0.1,2.3,0c2.7-0.4,5.9-1,9.2-1.4c-0.6,0.2-1.2,0.4-1.7,0.8c-1.9,1.2-3.2,2.8-4.2,4.2
			c-1,1.4-1.8,2.6-2.4,3.7c-0.6,1.1-0.9,2-0.9,2.5c-0.2,1.4,0.1,1.6,0.4,1.7c0.3,0,0.4-0.1,0.9-1.3c0.2-0.4,0.5-1.1,1.1-2.1
			c0.6-0.9,1.5-2.1,2.4-3.4c1-1.3,2.2-2.7,3.7-3.5c1.4-0.9,3.5-1.1,5-0.3c0.7,0.4,1.3,0.9,1.6,1.7c0.3,0.8,0.4,1.7,0.6,2.7
			c0.2,1.9,0.1,3.7-0.1,5.3c-0.4,3.2-1.4,5.5-1.7,6.3c-0.4,1.2-0.4,1.5-0.1,1.7c0.2,0.1,0.5,0.1,1.3-1.1c0.5-0.8,1.7-3.1,2.3-6.6
			c0.3-1.7,0.4-3.7,0.2-5.8c-0.1-1-0.2-2.1-0.7-3.3c-0.4-1.1-1.4-2.2-2.6-2.7c-0.8-0.4-1.7-0.6-2.6-0.6c2.8-0.4,5.6-0.6,7.9-0.9
			c0.7-0.1,1.4-0.1,2-0.2c0.3,0,0.6,0,1-0.1c0.4-0.1,0.8-0.3,1.1-0.6c0.6-0.7,0.6-1.4,0.6-1.9c0-0.2-0.1-0.3-0.1-0.4
			c0.2,0,0.4,0,0.6,0.1c6.4,0.9,12.3,3,16.9,5.9C1204.3,304.2,1207.6,307.7,1209.9,310.8z M1207.1,304.7c0,0-0.1,0.1-0.1,0.1
			c-1-1-2-1.9-3.2-2.8c0.1,0,0.2-0.1,0.4-0.2c0.4-0.3,1.4-1.3,2.1-3c0.3-0.9,0.6-1.8,0.6-3c0-0.6-0.1-1.2-0.3-1.8
			c-0.2-0.6-0.6-1.3-1.2-1.7c-0.6-0.5-1.5-0.7-2.2-0.5c-0.7,0.1-1.4,0.5-1.9,1.1c-0.5,0.6-0.8,1.3-0.7,2.1c0,0.4,0.2,0.8,0.4,1.1
			c0.3,0.3,0.5,0.5,0.7,0.6c0.9,0.6,1.7,0.8,2.5,0.8c0.2,0,0.4,0,0.5,0c-0.1,0.3-0.1,0.5-0.2,0.8c-0.4,1.4-1.1,2.3-1.3,2.7
			c-0.1,0.2-0.1,0.4-0.2,0.5c-0.8-0.6-1.6-1.2-2.5-1.7c-0.7-0.5-1.5-0.9-2.3-1.3c-0.1-0.2-0.2-0.5-0.4-1c-0.1-0.4-0.4-1.1-0.5-2.1
			c0-1,0.2-2.4,1-3.5c0.8-1.2,2.3-2.1,4-2.5c1.7-0.4,3.7-0.1,5.3,0.8c1.6,0.9,2.5,2.5,2.9,4.2c0.3,1.7,0.1,3.5-0.4,5
			C1209.3,302.3,1207.6,304.1,1207.1,304.7z M1204.9,295.9c-0.2,0-0.4,0-0.6,0c-0.4-0.1-1-0.3-1.5-0.7c-0.1-0.1-0.2-0.2-0.3-0.3
			c0,0,0-0.1,0-0.1c0-0.2,0.1-0.4,0.3-0.6c0.2-0.2,0.5-0.3,0.7-0.4c0.3,0,0.4,0,0.7,0.2C1204.6,294.3,1204.9,295.1,1204.9,295.9
			C1204.9,295.9,1204.9,295.9,1204.9,295.9z"/>
		<path class="st13" d="M1180.8,295.9c0,0.2-0.1,0.5-0.2,0.6c-0.1,0-0.1,0.1-0.3,0.1c-0.2,0-0.5,0-0.8,0c-0.6,0-1.3,0.1-2,0.1
			c-2.9,0.1-6.4,0.5-9.9,1c-3.5,0.5-7.1,1.1-9.8,1.7c-0.7,0.1-1.2,0.1-1.7,0.1c-0.5-0.1-1-0.2-1.4-0.4c-0.8-0.3-1.4-0.7-1.8-0.9
			c-0.3-0.1-0.6-0.2-0.7-0.3c3.5-0.8,7-1.6,10.6-2.1c6-0.9,12.1-1.2,17.9-0.6c0,0.1,0,0.1,0.1,0.2
			C1180.8,295.5,1180.8,295.7,1180.8,295.9z"/>
		<path class="st13" d="M1119.7,340.7c0,1-0.5,1.8-1.4,2.2c-0.9,0.4-1.9,0.4-2.5-0.2c-0.7-0.5-1.1-1.5-1-2.2c0-0.8,0.4-1.4,0.7-1.9
			c0.3-0.3,0.5-0.6,0.7-0.7c0.2-0.1,0.4-0.1,0.7-0.1c0.5-0.1,1.3,0.1,1.9,0.6C1119.3,338.9,1119.8,339.8,1119.7,340.7z"/>
		<path class="st13" d="M1133.3,341.6c-0.2,0.5-0.6,1-1,1.3c-0.9,0.7-2.2,0.7-3.1,0.3c-0.9-0.4-1.5-1.4-1.7-2.3
			c-0.2-0.9,0.1-1.7,0.4-2.3c0.3-0.5,0.6-0.8,0.8-1c0.2-0.1,0.5-0.1,0.8-0.2c0.7-0.1,1.7-0.1,2.5,0.3c0.4,0.2,0.8,0.4,1,0.8
			c0.2,0.4,0.4,1,0.4,1.5C1133.6,340.6,1133.5,341.1,1133.3,341.6z"/>
		<path class="st13" d="M1152.5,323.3c-0.2,0.4-0.4,0.9-0.9,1.3c-0.4,0.4-1,0.6-1.5,0.7c-1,0.1-1.9-0.5-2.2-1.1
			c-0.3-0.6-0.3-1-0.3-1.3c-0.2-0.6-0.3-1.7,0.2-2.9c0.2-0.4,0.4-0.8,0.8-1.2c0.4-0.4,1-0.8,1.7-0.8c0.7,0,1.4,0.3,1.8,0.7
			c0.5,0.4,0.8,1,0.9,1.6C1153.3,321.4,1152.9,322.5,1152.5,323.3z"/>
		<path class="st13" d="M1221.1,349.3c-0.2-0.1-0.4-0.1-0.7,0.3c-0.4,0.5-1.4,3.2-2.6,5.8c-0.6,1.3-1.3,2.5-1.8,3.5
			c-0.6,1-1,1.7-1.1,2c-0.1,0.5,0,0.7,0.2,0.9c0.2,0.1,0.4,0.2,0.8,0c0.3-0.2,1-0.8,1.7-1.8c0.7-1,1.5-2.3,2.1-3.6
			c1.3-2.7,2-5.6,2-6.3C1221.5,349.5,1221.3,349.4,1221.1,349.3z"/>
		<path class="st13" d="M1225.2,357.2c-0.1-0.3-0.3-0.4-0.6-0.5c-0.2-0.1-0.4-0.1-0.7,0.1c-0.3,0.3-1,1.8-1.8,3.3
			c-0.8,1.5-1.6,2.9-1.6,3.4c0,0.3,0.2,0.5,0.4,0.7c0.2,0.1,0.4,0.2,0.7,0.1c0.4-0.2,1.5-1.6,2.3-3.2
			C1224.8,359.4,1225.3,357.7,1225.2,357.2z"/>
		<path class="st13" d="M1120.5,368.2c-1.3-1.6-2.4-3.5-2.8-3.8c-0.3-0.2-0.5-0.2-0.8,0c-0.2,0.1-0.4,0.2-0.4,0.6
			c0,0.5,0.9,2.7,2.4,4.5c1.4,1.8,3.3,3.2,3.9,3.3c0.4,0.1,0.6-0.1,0.8-0.3c0.1-0.2,0.2-0.4,0-0.7
			C1123.4,371.3,1121.8,369.9,1120.5,368.2z"/>
	</g>
	<path class="st13" d="M1183.4,255.3c-0.6-2.4-1.5-4.9-3.3-6.7c-1.8-1.7-4-2.6-6.1-2.9c-0.3,0-0.6,0-0.8,0c-0.1-0.1-0.2-0.2-0.4-0.3
		c-0.6-0.4-3.8-0.9-7.1-0.6c-1.6,0.2-3.2,0.4-4.5,0.9c-1,0.3-1.8,0.9-2.2,1.4c-0.2-0.1-0.5-0.2-1.5,0.9c-0.7,0.7-2.4,3.2-3.5,6.8
		c-1.1,3.6-2,8.2-1.8,12.9c0.1,4.7,1.4,9.4,3.4,12.7c1,1.7,2,3,2.9,3.9c0.2,0.2,0.4,0.4,0.5,0.5c-0.1,0.1-0.1,0.3,0.1,0.7
		c0.1,0.2,0.4,0.4,0.9,0.7c0.4,0.2,1,0.4,1.6,0.5c1.2,0.3,2.7,0.5,4.2,0.5c3,0.1,6-0.4,6.6-0.8c0,0,0,0,0,0c1.2,0.1,2.3,0,3.5-0.3
		c1.5-0.4,2.9-1.3,3.9-2.5c1-1.1,1.8-2.5,2.3-3.9c1.1-2.8,1.5-5.6,1.9-8.3c0.2-1.4,0.3-2.8,0.5-4.1c0.1-1.4,0.2-2.8,0.1-4.1
		C1184.5,260.4,1184,257.8,1183.4,255.3z M1158.6,248.7c0.1-0.2,0.2-0.4,0.3-0.6c0,0,0.1,0.1,0.1,0.1c0.2,0.1,0.4,0.2,0.8,0
		c0.3-0.1,0.9-0.5,2-0.8c1.1-0.3,2.6-0.5,4.1-0.6c1.1-0.1,2.1-0.1,3.1-0.1c-0.2,0.1-0.4,0.2-0.6,0.3c-1.5,0.9-2.4,2.1-3.1,3
		c-0.4,0.5-0.7,1-0.9,1.4c-0.1-0.1-0.2-0.2-0.3-0.2c-0.4-0.2-2.2,0-4,0.2c-0.9,0.1-1.8,0.3-2.5,0.5c-0.3,0.1-0.6,0.2-0.8,0.3
		C1157.6,250.4,1158.3,249.2,1158.6,248.7z M1156.4,253.6c0.1,0.1,0.2,0.2,0.4,0.2c0.2,0,0.6,0,1.3-0.1c0.7,0,1.6-0.1,2.4-0.3
		c1.3-0.2,2.5-0.4,3.3-0.7c-0.5,1.1-1.3,2.8-2,5.2c-0.1-0.1-0.1-0.2-0.2-0.2c-0.4-0.2-2.3-0.3-4.1,0c-0.8,0.1-1.6,0.3-2.3,0.5
		c0.2-1,0.4-2,0.7-2.9C1156,254.6,1156.2,254.1,1156.4,253.6z M1154.3,268.1c0.7,0.1,1.7,0.1,2.8,0c1.6-0.1,3.3-0.5,3.6-0.8
		c0-0.1,0.1-0.1,0.1-0.2c0,1,0.1,2.1,0.3,3.2c0.2,1.3,0.5,2.6,0.9,4c-0.7-0.1-1.9,0-3.1,0c-1.4,0-2.9,0.1-3.5,0.3
		C1154.8,272.6,1154.4,270.4,1154.3,268.1z M1154.8,260.1c0.8-0.1,1.9-0.3,3-0.4c1.6-0.2,3.3-0.4,3.8-0.6c-0.3,1.5-0.6,3.1-0.7,4.9
		c-0.1,0.8-0.1,1.6-0.1,2.4c-0.1-0.1-0.1-0.2-0.3-0.3c-0.4-0.2-2-0.1-3.5,0c-1,0.1-1.9,0.1-2.6,0.3
		C1154.3,264.2,1154.5,262.1,1154.8,260.1z M1155.9,276.3c0.8,0.1,1.9,0.2,3.1,0.1c1.4,0,2.8-0.2,3.4-0.4c0.2,0.5,0.3,1,0.5,1.5
		c0.4,1.1,1,2.2,1.6,3.2c-0.7,0-1.7,0-2.8,0.2c-0.8,0.1-1.5,0.2-2.1,0.3c-0.5,0.1-0.9,0.1-1.1,0.1c-0.1,0-0.1,0.1-0.2,0.2
		c-0.4-0.6-0.8-1.3-1.2-2C1156.7,278.5,1156.3,277.4,1155.9,276.3z M1165.9,285.2c-1.4-0.1-2.8-0.2-3.9-0.3c-0.2,0-0.3,0-0.5-0.1
		c-0.4-0.3-1-0.8-1.7-1.6c-0.1-0.1-0.1-0.2-0.2-0.2c0.1,0,0.1,0,0.2,0c0.7,0.1,1.6,0,2.3-0.1c1.6-0.2,3.1-0.5,3.4-0.8c0,0,0,0,0,0
		c0.6,0.7,1.2,1.5,1.9,2.1c0.5,0.4,1,0.7,1.5,1.1C1168,285.2,1166.9,285.2,1165.9,285.2z M1182.5,267.2c-0.1,1.3-0.3,2.7-0.5,4
		c-0.4,2.7-0.8,5.4-1.8,7.8c-0.9,2.4-2.6,4.5-5,5.1c-1.1,0.3-2.4,0.4-3.5,0.1c-1.1-0.3-2.2-0.9-3.1-1.7c-1.8-1.6-3.1-3.8-3.9-6
		c-0.9-2.2-1.5-4.4-1.8-6.6c-0.3-2.1-0.4-4.2-0.3-6c0.1-1.9,0.3-3.6,0.7-5c0.6-2.9,1.5-5,2-6.1c0.3-0.5,0.7-1.2,1.4-2.1
		c0.6-0.8,1.5-1.8,2.7-2.5c1.2-0.7,2.8-1.1,4.5-0.9c1.7,0.2,3.6,1.1,5,2.5c1.3,1.4,2.2,3.6,2.7,5.9c0.5,2.3,1,4.9,1.1,7.4
		C1182.7,264.6,1182.6,265.8,1182.5,267.2z"/>
</g>
<g>
	<path class="st13" d="M356.7,822.6c-0.3-1.1-0.7-1.9-0.8-2.5c-0.1-0.3-0.1-0.5-0.1-0.8c0-0.3,0.1-0.7,0.2-1.1
		c0.1-0.5,0.2-1,0.2-1.6c0-0.6-0.1-1.4-0.4-2c-0.6-1.3-1.4-2-1.8-2.6c-0.5-0.6-0.6-0.8-0.6-1.4c-0.1-0.5,0-1.3,0.1-2
		c0.1-1.7-0.2-3.3-0.6-4.3c-0.4-1.1-0.9-1.8-1.2-2.2c-0.4-0.3-0.6-0.5-0.9-0.6c0.3-0.8,0.5-1.7,0.5-2.5c0.3-4-0.9-7.3-1.5-10
		c-1.4-5.4-0.5-9.6-0.4-11.1c0-0.2,0-0.3,0-0.5c0.3-0.5,0.5-1,0.8-1.6c0.9-2.1,2.7-6.2,3.8-12.1c0.5-3,0.8-6.4,0.5-10.2
		c-0.3-3.8-1.2-7.9-3-11.9c-1.8-4-4.5-8-8.1-11.3c-1.8-1.6-3.9-3.1-6.1-4.3c-2.2-1.2-4.7-2.2-7.1-2.9c-9.9-2.9-21.1-2.9-31.5,0.1
		c-5.2,1.5-10.2,3.8-14.7,6.7c-4.5,3-8.4,6.6-11.6,10.7c-6.4,8.1-9.8,18-9.6,26.8c0.1,4.4,1.1,8.6,2.7,12.1c1.7,3.5,4,6.2,6.1,8.4
		c4.3,4.2,8,6.7,10.1,7.8c2.9,1.5,4.7,2,5.8,2.1c0,0.3,0.3,0.6,1.2,1c0.8,0.4,3,1.1,5.5,2.8c1.2,0.9,2.5,2,3.7,3.3
		c1.2,1.3,2.2,2.9,3.2,4.6c1,1.7,2,3.5,3.2,5.2c1.1,1.7,2.5,3.2,4,4.3c1.4,1,2.8,1.7,4,2.1c0,0,0,0-0.1,0.1c-0.1,0.3-0.3,0.9-0.2,2
		c0.1,0.7,0.5,2.1,1.7,3.6c0.6,0.8,1.6,1.5,2.3,2.1c0.4,0.3,0.7,0.6,0.9,0.8c0.2,0.3,0.2,0.5,0.3,0.9c0,0.4,0,1,0,1.7
		c0,0.7,0,1.5,0.5,2.6c0.5,1,1.5,1.8,2.4,2.1c0.9,0.3,1.6,0.4,2,0.6c0.5,0.2,0.5,0.2,1,0.7c0.4,0.5,1.1,1.3,2,1.8
		c1.7,1.1,3.6,1.3,5.2,1.3c1.6,0,3.3-0.2,4.8-0.5c0,0,0,0.1,0,0.1c0.2,0.8,1.7,2.8,4.6,3.3c1.5,0.3,3,0.1,4.5-0.3
		c1.5-0.4,2.9-1,4.2-1.6c1.4-0.6,2.9-1.4,4.1-2.8c1.2-1.4,1.7-3,1.8-4.4c0.2-2.2-0.1-3.7-0.4-4.6c0.6-0.5,1.3-1.2,1.9-2.1
		C356.5,827.1,357.3,825,356.7,822.6z M309.9,816.4c-2.3-1.9-4.1-5.2-6.1-8.8c-1-1.8-2.2-3.6-3.6-5.1c-1.4-1.5-3-2.8-4.5-3.7
		c-3-1.8-5.7-2.3-6.6-2.3c-0.4,0-0.7,0.1-1,0.1c0,0-0.1,0-0.1-0.1c-0.9-0.5-2.6-1.2-5.4-3c-1.8-1.2-5.3-3.7-9.2-7.8
		c-1.9-2.1-4-4.6-5.3-7.7c-1.4-3.1-2.2-6.9-2.2-10.9c0-8,3.2-17.1,9.2-24.6c3-3.8,6.7-7.1,10.9-9.9c4.2-2.7,8.9-4.9,13.7-6.2
		c9.8-2.8,20.4-2.8,29.6-0.1c4.6,1.3,8.7,3.5,12,6.5c3.3,2.9,5.7,6.5,7.4,10.2c3.4,7.4,3.4,14.7,2.6,20.3c-0.9,5.6-2.4,9.6-3.1,11.7
		c-0.2,0.5-0.4,1.1-0.6,1.5c-0.1,0.2-0.2,0.5-0.3,0.8c-0.1,0.2-0.2,0.5-0.3,0.9c-0.5,1.2-0.8,2.1-1,2.7c-0.4,1.1-0.3,1.5-0.1,1.6
		c0.1,0,0.2,0,0.4-0.1c-0.2,2-0.1,4.6,0.5,7.3c0.6,2.9,1.5,6.1,1.2,9c-0.2,1.5-0.7,2.8-1.6,4c-0.9,1.2-2.3,2.3-3.7,3.3
		c-0.1,0.1-0.3,0.2-0.4,0.3c-0.1-0.2-0.2-0.4-0.3-0.7c-0.5-1-1.6-2.7-3.3-6c-1.1-2.1-3-6.3-4.8-12.3c-0.9-3-1.9-6.5-2.8-10.3
		c-0.3-1.5-0.8-3.1-1.1-4.7c0.4-0.2,0.8-0.5,1.1-0.8c1.1-0.9,2.2-1.9,3.1-2.9c0.9-1,1.9-2.2,2.4-3.8c0.5-1.6,0.6-3.4-0.3-5
		c-0.5-0.8-1.2-1.6-2.2-2c-1-0.4-2.1-0.3-2.9,0c-1.7,0.5-2.8,1.6-3.7,3c-0.8,1.3-1.1,2.6-1.3,3.9c-0.3,2-0.1,3.9,0.2,5.7
		c-1.2,0.5-2.4,0.8-3.6,0.7c0.5-0.8,1-1.7,1.2-2.8c0.5-1.7,0.4-3.8-0.6-5.5c-0.5-0.8-1.2-1.6-2.1-2.1c-0.9-0.6-2.1-0.8-3.1-0.7
		c-1.1,0.1-2.1,0.6-2.9,1.3c-0.8,0.7-1.3,1.7-1.6,2.7c-0.5,1.9-0.1,3.7,0.7,5.3c0.6,1.3,1.5,2.3,2.5,3.1c-0.3,0.3-0.6,0.5-1,0.7
		c-0.7,0.5-1.4,0.8-2.2,1.1c0.2-1.3,0.1-2.7-0.4-4c-0.3-0.8-0.8-1.6-1.4-2.4c-0.6-0.7-1.6-1.3-2.7-1.5c-2-0.5-4.4,0.4-5.5,2.4
		c-0.5,1-0.7,2-0.6,3.1c0.1,1,0.5,1.9,1,2.7c0.5,0.8,1.1,1.5,1.8,2s1.6,1,2.4,1.3c-0.8,1-1.7,1.8-2.8,2.5c-0.2-0.3-0.5-0.7-0.8-1
		c-1.6-1.9-3.7-3.6-6.5-4.4c-0.7-0.2-2.1-0.3-3,0.5c-0.9,0.7-1.3,1.6-1.5,2.5c-0.4,1.9,0.5,3.7,1.6,4.9c1.2,1.2,2.6,1.9,4.2,2.2
		c1.6,0.3,3.2,0.2,4.6-0.2c0.2,0,0.4-0.1,0.5-0.2c1.5,2.5,2.6,5.2,3.9,7.8c1.8,3.6,3.5,6.8,5.2,9.5c1.7,2.7,3.3,5,4.7,6.9
		c1.4,1.9,2.4,3.2,3,4.1c0.8,1.4,1.1,2.6,1.4,3.8c0.1,0.4,0.2,0.7,0.3,1c-4,1.2-7.1,1.3-8.3,1.3c-0.2,0-0.4,0-0.6,0
		C313.2,818.5,311.6,817.9,309.9,816.4z M311.3,779.4c0.3-0.4,0.6-0.9,0.9-1.4c0.4,0,0.8-0.1,1.2-0.2c1.6-0.4,3.1-1.1,4.5-2
		c0.8-0.5,1.5-1.1,2.2-1.8c0.7,0.2,1.5,0.4,2.2,0.4c1.7,0.1,3.2-0.2,4.7-0.7c0.4,1.4,0.7,2.8,1.1,4.1c1,3.8,2,7.3,3.1,10.4
		c2,6.1,4.2,10.4,5.5,12.5c1.9,3.1,3.3,4.7,4.2,5.5c0.3,0.3,0.5,0.4,0.7,0.5c-5.4,4.1-10.8,7.9-15.7,9.8c-0.4,0.1-0.8,0.3-1.1,0.4
		c0-0.2-0.1-0.5-0.1-0.8c-0.1-1.1-0.3-2.8-1.2-4.6c-0.5-1.2-1.6-2.8-2.9-4.6c-1.3-1.9-2.8-4.1-4.3-6.9c-1.6-2.7-3.3-5.9-4.9-9.4
		c-1.1-2.3-2.2-5-3.7-7.7C308.9,782,310.2,780.8,311.3,779.4z M309.2,774.2c-1-0.3-1.8-1-2.3-1.8c-0.5-0.9-0.5-1.7-0.2-2.2
		c0.3-0.5,1.1-0.8,1.7-0.6c0.6,0.1,1.2,0.8,1.5,1.8c0.3,1,0.3,2,0,3.1C309.8,774.4,309.5,774.3,309.2,774.2z M317,764.6
		c0.2-0.8,0.8-1.2,1.5-1.3c0.6-0.1,1.3,0.4,1.7,1.2c0.4,0.8,0.5,1.8,0.2,2.8c-0.2,0.8-0.7,1.6-1.2,2.3c-0.8-0.6-1.5-1.3-1.9-2.2
		C316.8,766.6,316.7,765.4,317,764.6z M329.2,764.9c0.2-0.9,0.5-2,1-2.6c0.5-0.7,1.2-1.3,1.9-1.5c0.6-0.1,0.9,0,1.2,0.6
		c0.3,0.6,0.3,1.6,0,2.4c-0.3,0.9-1,1.7-1.9,2.6c-0.7,0.8-1.5,1.4-2.2,2.1C329,767.3,329,766.1,329.2,764.9z M302.5,781.4
		c-1.9,0.4-3.8-0.1-5-1.3c-0.6-0.6-0.8-1.3-0.7-1.8c0-0.3,0.2-0.5,0.2-0.5c0,0,0,0,0,0c0,0,0.2,0,0.4,0.1
		C299.4,778.4,301.1,779.8,302.5,781.4C302.5,781.3,302.5,781.4,302.5,781.4z M350.9,834.7c-0.2,0.9-0.6,1.9-1.3,2.6
		c-0.7,0.7-1.7,1.3-3,1.8c-2.6,1.2-5.1,2.1-6.8,1.9c-1.1-0.1-1.9-0.5-2.4-0.9c3.5-1,6.7-2.5,9.2-4.1c1.8-1.2,3.3-2.4,4.5-3.5
		C351.1,833.2,351.1,834,350.9,834.7z M352.8,826.9c-0.3,0.5-0.6,0.9-0.9,1.3c-1.2,1-3.5,3.2-7,5.2c-2,1.2-4.3,2.2-6.9,3
		c-2.5,0.8-5.4,1.3-8.1,1.4c-1.3,0-2.5-0.2-3.3-0.8c-0.4-0.3-0.6-0.5-1.2-1.2c-0.3-0.3-0.6-0.7-1.1-1c-0.5-0.3-1-0.5-1.4-0.7
		c-0.9-0.3-1.6-0.4-2-0.5c-0.4-0.2-0.4-0.2-0.5-0.4c-0.1-0.2-0.2-0.6-0.2-1.2c0-0.6,0-1.3-0.1-2c-0.1-0.8-0.5-1.7-1-2.4
		c-0.5-0.6-1.1-1-1.6-1.3c-1-0.6-1.5-1-2-1.5c-1-1-1.4-2-1.6-2.4c-0.3-0.5-0.5-0.9-0.6-1.2c0.7,0.1,1.3,0.1,1.7,0
		c0.2,0,0.4-0.1,0.5-0.2c1.8,0.2,5.3,0.2,9.5-1c0.1,0,0.2,0,0.2,0c0,0,0,0,0,0c0.6-0.2,1.1-0.3,1.7-0.6c5.8-2,12-6.4,17.8-10.8
		c1.5-1.1,3-2.4,4.3-4c0.3-0.4,0.5-0.7,0.8-1.1c0.3,0.9,0.8,2.5,0.5,4.7c-0.1,0.7-0.3,1.5-0.2,2.6c0,1.1,0.7,2.5,1.3,3.2
		c0.6,0.8,1.1,1.4,1.3,1.8c0.1,0.3,0.1,0.9-0.1,1.8c-0.1,0.5-0.2,1-0.2,1.6c0,0.6,0.1,1.3,0.2,1.9c0.3,1.1,0.7,1.9,0.9,2.5
		C353.7,824.7,353.4,825.9,352.8,826.9z"/>
	<path class="st13" d="M351.2,832.6c0,0.6-0.1,1.4-0.3,2.2c-0.2,0.9-0.6,1.9-1.3,2.6c-0.7,0.7-1.7,1.3-3,1.8
		c-2.6,1.2-5.1,2.1-6.8,1.9c-1.1-0.1-1.9-0.5-2.4-0.9c3.5-1,6.7-2.5,9.2-4.1C348.5,834.9,350,833.7,351.2,832.6z"/>
	<path class="st13" d="M373.5,732.9c-0.4-0.6-1.1-1-1.7-1.1c-1.2-0.2-1.9,0-2.4,0.2c-1.2,0.3-2.3,0.8-3.2,1.4
		c-1.8,1.2-2.7,2.5-2.9,3c-0.1,0.4-0.1,0.6,0,0.8c-0.1,0.1-0.2,0.2-0.3,0.3c-0.2,0.3-0.5,0.7,0.3,1.4c0.3,0.2,0.9,0.5,1.7,0.6
		c0.8,0.1,1.7,0,2.7-0.2c0.9-0.2,2-0.4,3.2-0.8c0.6-0.2,1.2-0.5,1.9-1c0.3-0.3,0.7-0.6,0.9-1.1c0.3-0.5,0.5-1.1,0.5-1.7
		C374.1,734.2,373.9,733.5,373.5,732.9z"/>
	<path class="st13" d="M339.4,700l0,0.6c0,0.7-0.1,1.5-0.3,2.1c-0.3,1.4-0.9,2.5-1.6,3.5c-1.3,1.9-2.8,2.9-3.4,3.1
		c-1,0.3-1.3,0-1.5-0.3c-0.1-0.1-0.1-0.3-0.1-0.4c-0.3,0-0.6-0.2-0.9-0.9c-0.3-0.6-0.6-2.5-0.3-5c0.1-0.6,0.2-1.3,0.4-2
		c0.2-0.7,0.4-1.4,0.8-2.2c0.2-0.4,0.5-0.9,1-1.2c0.4-0.4,1.1-0.8,1.7-1c1.3-0.3,2.9,0.1,3.6,1.3c0.3,0.5,0.5,1.1,0.6,1.8
		C339.4,699.7,339.4,699.8,339.4,700z"/>
	<path class="st13" d="M289.7,707.7c-0.1,0.9-0.4,1.6-0.6,1.9c-0.7,0.9-1.1,0.7-1.4,0.5c-0.2,0.1-0.6,0.2-1.1,0
		c-0.6-0.2-2.1-1.2-3.4-3.4c-0.6-1.1-1.1-2.5-1.1-4.2c0-0.8,0.1-1.7,0.5-2.5c0.5-1.2,1.3-2.3,2.4-2.7c1.1-0.4,2.4,0,3.1,0.9
		c0.8,0.8,1.2,2.5,1.2,2.9c0.3,1.3,0.4,2.5,0.5,3.6C289.8,705.9,289.8,706.8,289.7,707.7z"/>
	<path class="st13" d="M285.7,701.3C285.7,701.3,285.7,701.3,285.7,701.3C285.7,701.3,285.7,701.3,285.7,701.3z"/>
	<path class="st13" d="M258.8,730.9c-0.3,0.4-0.7,0.5-0.9,0.5c0,0.3-0.2,0.6-0.9,0.9c-0.3,0.1-1,0.1-1.7,0c-0.8-0.1-1.5-0.3-2.5-0.7
		c-1-0.4-2.3-1-3.2-2.4c-0.5-0.7-0.8-1.5-0.8-2.5c0-1,0.4-2.3,1.3-3c0.8-0.7,2.2-0.8,3-0.6c0.8,0.2,1.5,0.6,2,0.9
		c1,0.6,1.9,1.4,2.6,2.1c0.6,0.7,1.3,1.5,1.5,2.5C259.5,729.8,259.1,730.6,258.8,730.9z"/>
	<path class="st13" d="M251.8,768.5c-0.1,0.1-0.2,0.1-0.2,0.1c0,0.3,0,0.7-0.5,1.1c-0.5,0.4-1.8,1.1-4,1.7c-1.1,0.3-2.4,0.5-3.8,0.4
		c-0.3,0-1-0.1-1.6-0.3c-0.6-0.2-1.1-0.5-1.5-0.9c-0.8-0.7-1.2-2-0.9-3c0.3-1.1,1.1-2,2.3-2.5c0.3-0.1,0.6-0.2,0.9-0.3
		c0.2,0,0.4-0.1,0.6-0.1c0.4,0,0.7-0.1,1-0.1c1.3-0.1,2.5-0.1,3.6,0c1,0.1,2.2,0.2,3.1,0.8c1,0.6,1.3,1.4,1.4,1.8
		C252.2,767.9,252,768.3,251.8,768.5z"/>
	<path class="st13" d="M267.3,803.6c-0.1,0.5-0.5,2-1.8,3.8c-0.7,0.9-1.6,1.8-2.9,2.6l-0.6,0.3c-0.3,0.1-0.5,0.2-0.8,0.3
		c-0.5,0.1-1.1,0.2-1.6,0.1c-1-0.1-2-0.8-2.3-1.8c-0.4-1-0.2-2.1,0.4-3.2c0.3-0.7,0.6-1.2,1-1.8c0.7-1.1,1.7-2.1,2.8-2.7
		c1.1-0.6,2.3-0.7,3.2-0.6c0.9,0.1,1.4,0.4,1.7,0.6c0.7,0.6,0.6,0.9,0.5,1.2C267.1,802.6,267.3,802.9,267.3,803.6z"/>
	<path class="st13" d="M338.9,820.7c0.3-0.6,0.1-1-0.2-1.4c-0.2-0.3-0.5-0.5-1.2-0.5c-0.8,0.1-3.7,1.9-6.8,3.2
		c-3,1.4-6.2,2.5-6.8,3.1c-0.4,0.5-0.4,0.9-0.3,1.3c0.1,0.4,0.2,0.7,0.9,0.8c0.8,0.2,4.4-0.6,7.7-2.1
		C335.7,823.8,338.6,821.5,338.9,820.7z"/>
	<path class="st13" d="M343.5,819.1c0.6,0.6,2.4-0.1,2.1-1c-0.1-0.3-0.3-0.7-0.5-1.1c-0.2-0.3-0.4-0.6-0.6-0.9
		c-0.6-0.6-2.4,0.1-2.1,1c0.1,0.3,0.3,0.7,0.5,1.1C343.1,818.6,343.3,818.9,343.5,819.1z"/>
	<path class="st13" d="M345.1,825.8c0.2-0.5,0-0.9-0.3-1.3c-0.2-0.3-0.5-0.5-1-0.5c-0.7,0-3,1.4-5.4,2.7c-2.3,1.3-4.7,2.4-5.1,3.1
		c-0.3,0.5-0.2,0.9,0,1.3c0.1,0.4,0.3,0.7,0.9,0.8c0.7,0.2,3.5-0.7,6-2.1C342.6,828.4,344.9,826.6,345.1,825.8z"/>
</g>
<g>
	<g>
		<g>
			<path class="st13" d="M282,393.5c14.4-0.4,28.8,2.8,42.7,6.3c11.5,2.9,23.6,6.1,34.3,11.4c0.8,0.4,2.3,0.9,2.9,1.7
				c2.3,3.1-3.3,13.5-4.5,16.5c-2,5.3-3.2,12.8-9.8,13.8c-5.2,0.8-9.4-3.4-13.7-5.8c-15.6-8.6-33.3-12.5-51-12.3
				c-3.6,0.1-7.7,0.6-7.7-4.2c0-1.1,0.6-2.4,0.8-3.5c0.9-3.3,1.8-6.5,2.8-9.8c1.5-4.8,3-9.6,4.6-14.3c0.6-1.8-2.3-2.6-2.9-0.8
				c-1.7,5.1-3.4,10.3-5,15.4c-1.4,4.5-6,14-2.4,18.3c2.4,2.8,6.4,1.9,9.6,1.8c6.5-0.1,13.1,0.3,19.5,1.4c11.3,1.9,22.2,5.8,32,11.6
				c6.3,3.7,14.3,8.7,20.5,1.5c2.8-3.3,3.9-8.5,5.4-12.4c1.8-4.8,5.6-11.3,4.8-16.7c-0.6-3.8-4.6-5-7.7-6.3
				c-6.2-2.7-12.7-4.8-19.2-6.8c-17.9-5.4-37.3-10.5-56.2-10C280.1,390.6,280.1,393.6,282,393.5L282,393.5z"/>
		</g>
	</g>
	<g>
		<g>
			<path class="st13" d="M283.3,373c-0.3,7.1-2.1,14-2.4,21.1c-0.1,1.9,2.9,1.9,3,0c0.3-7.1,2.1-14,2.4-21.1
				C286.4,371.1,283.4,371.1,283.3,373L283.3,373z"/>
		</g>
	</g>
	<g>
		<g>
			<path class="st13" d="M369.2,390.2c-2.5,5.9-4.4,13-8.9,17.8c-1.3,1.4,0.8,3.5,2.1,2.1c4.8-5.2,7-12.6,9.7-19.1
				C372.8,389.2,369.9,388.4,369.2,390.2L369.2,390.2z"/>
		</g>
	</g>
	<g>
		<g>
			<path class="st13" d="M294.9,368.3c-8.3,2.2-18.1,3.2-24.3-3.9c-4-4.5-6.4-11.9-6.6-17.9c-0.7-18.9,21.3-34.6,37.6-22.7
				c0.6,0.5,1.7,0.1,2.1-0.5c7.2-15.3,25.3-24.5,41.8-20.1c17.1,4.5,28.2,22.4,26.2,39.6c-0.1,0.9,1.1,1.8,1.9,1.4
				c7.6-3.1,14.5,4.1,17.7,10.4c3,6,3.9,13.1,2,19.6c-3.5,12.2-13.9,16.1-25.5,12.1c-1.8-0.6-2.6,2.3-0.8,2.9
				c6.8,2.4,14.4,3,20.6-1.3c5.1-3.6,8.1-9.5,9.2-15.5c1.5-8-0.5-16.5-5.2-23c-4.2-5.8-11.4-10.9-18.7-7.9c0.6,0.5,1.3,1,1.9,1.4
				c2.2-18.5-10.1-37.7-28.4-42.5c-17.8-4.7-37.5,5-45.2,21.5c0.7-0.2,1.4-0.4,2.1-0.5c-17.9-13.1-41.7,3.6-42.1,24.1
				c-0.2,7.1,2.7,15.8,7.5,21.2c7,7.8,17.9,7.1,27.3,4.6C297.6,370.6,296.8,367.8,294.9,368.3L294.9,368.3z"/>
		</g>
	</g>
	<g>
		<g>
			<path class="st13" d="M304,406.7c7.1,1.6,14.3,3,21.6,4.1c1.9,0.3,2.7-2.6,0.8-2.9c-7.2-1.1-14.4-2.5-21.6-4.1
				C302.9,403.4,302.1,406.3,304,406.7L304,406.7z"/>
		</g>
	</g>
	<g>
		<g>
			<path class="st13" d="M274.3,427.4c9.1,9.5,22.1,14.6,34.8,17.4c13,2.9,26.6,3.8,39.7,1.7c1.9-0.3,1.1-3.2-0.8-2.9
				c-12.6,2-25.7,1.1-38.1-1.7c-12.2-2.7-24.7-7.5-33.5-16.6C275.1,423.9,273,426,274.3,427.4L274.3,427.4z"/>
		</g>
	</g>
	<g>
		<g>
			<path class="st13" d="M309.9,378.6c0,4.7,0,9.4,0,14.1c0,1.9,3,1.9,3,0c0-4.7,0-9.4,0-14.1C312.9,376.7,309.9,376.7,309.9,378.6
				L309.9,378.6z"/>
		</g>
	</g>
	<g>
		<g>
			<path class="st13" d="M336.8,387.3c-1.5,3.9-3,7.7-4.5,11.6c-0.7,1.8,2.2,2.6,2.9,0.8c1.5-3.9,3-7.7,4.5-11.6
				C340.4,386.3,337.5,385.5,336.8,387.3L336.8,387.3z"/>
		</g>
	</g>
</g>
<g>
	<g>
		<g>
			<g>
				<g>
					<g>
						<path class="st14" d="M725.5,182.9c2.6,4.1,6.1,9,11.6,8.5c2.5-0.2,4.6-1.7,5.6-4.1c1-2.5,0.2-5-1.3-7c-2-2.6-4.5-4.9-6.7-7.3
							c-1-1.1-2.7,0.6-1.6,1.6c1.7,1.8,3.5,3.7,5.2,5.5c1.3,1.4,2.8,3.1,2.6,5.2c-0.2,1.9-1.6,3.4-3.5,3.7c-1.9,0.3-3.9-0.5-5.3-1.7
							c-1.9-1.5-3.2-3.6-4.4-5.6C726.7,180.4,724.7,181.6,725.5,182.9L725.5,182.9z"/>
					</g>
				</g>
			</g>
			<g>
				<g>
					<g>
						<path class="st14" d="M732.9,178.5c0.8,1.3,1.6,2.6,2.4,3.9c0.3,0.5,1.1,0.8,1.6,0.4c0.5-0.3,0.8-1,0.4-1.6
							c-0.8-1.3-1.6-2.6-2.4-3.9c-0.3-0.5-1.1-0.8-1.6-0.4C732.8,177.3,732.6,178,732.9,178.5L732.9,178.5z"/>
					</g>
				</g>
			</g>
		</g>
		<g>
			<g>
				<g>
					<g>
						<path class="st14" d="M652.9,185.9c-2.1,3.3-4.7,7.4-9,7.3c-1.9,0-3.6-1.2-4.1-3.1c-0.5-2,0.6-3.8,1.9-5.2
							c1.9-2.1,3.9-4.1,5.8-6.2c1-1.1-0.6-2.7-1.6-1.6c-2,2.1-4.1,4.2-6,6.5c-1.7,2-2.9,4.3-2.3,7c0.5,2.4,2.5,4.3,4.8,4.8
							c2.5,0.5,5.1-0.2,7.1-1.7c2.4-1.7,4-4.2,5.5-6.6C655.7,185.8,653.7,184.7,652.9,185.9L652.9,185.9z"/>
					</g>
				</g>
			</g>
			<g>
				<g>
					<g>
						<path class="st14" d="M645.4,181.6c-0.8,1.3-1.6,2.6-2.4,3.9c-0.3,0.5-0.1,1.3,0.4,1.6c0.6,0.3,1.2,0.1,1.6-0.4
							c0.8-1.3,1.6-2.6,2.4-3.9c0.3-0.5,0.1-1.3-0.4-1.6C646.4,180.9,645.8,181,645.4,181.6L645.4,181.6z"/>
					</g>
				</g>
			</g>
		</g>
	</g>
	<g>
		<g>
			<g>
				<g>
					<g>
						<g>
							<path class="st14" d="M725.5,98.6c0.8-1,1.5-1.9,2.3-2.9c0.2-0.3,0.3-0.5,0.3-0.8c0-0.3-0.1-0.6-0.3-0.8
								c-0.2-0.2-0.5-0.4-0.8-0.3c-0.3,0-0.6,0.1-0.8,0.3c-0.8,1-1.5,1.9-2.3,2.9c-0.2,0.3-0.3,0.5-0.3,0.8c0,0.3,0.1,0.6,0.3,0.8
								c0.2,0.2,0.5,0.4,0.8,0.3C724.9,98.9,725.3,98.8,725.5,98.6L725.5,98.6z"/>
						</g>
					</g>
				</g>
				<g>
					<g>
						<g>
							<path class="st14" d="M732.9,106.2C732.9,106.1,732.9,106.1,732.9,106.2c0,0-0.1,0.1-0.1,0.2c0.1-0.3,0.3-0.7,0.6-1
								c-0.1,0.1-0.1,0.2-0.2,0.2c0.2-0.3,0.5-0.6,0.8-0.8c-0.1,0.1-0.2,0.1-0.2,0.2c0.3-0.2,0.6-0.4,1-0.6c-0.1,0-0.2,0.1-0.3,0.1
								c0.4-0.2,0.7-0.3,1.1-0.3c-0.1,0-0.2,0-0.3,0c0,0,0.1,0,0.1,0c0.3,0,0.6-0.1,0.8-0.3c0.2-0.2,0.4-0.5,0.3-0.8
								c0-0.3-0.1-0.6-0.3-0.8c-0.2-0.2-0.5-0.4-0.8-0.3c-1,0.1-2,0.4-2.8,1.1c-0.4,0.3-0.8,0.6-1.1,1c-0.4,0.5-0.6,1-0.9,1.5
								c-0.1,0.3,0,0.7,0.1,0.9c0.1,0.2,0.4,0.5,0.7,0.5c0.3,0.1,0.6,0.1,0.9-0.1C732.6,106.7,732.7,106.5,732.9,106.2L732.9,106.2z
								"/>
						</g>
					</g>
				</g>
			</g>
			<g>
				<g>
					<g>
						<g>
							<g>
								<path class="st14" d="M738.3,103.4c-3.2-3.8-6.7-7.4-10.5-10.5c-1.5-1.2-3.1-2.4-4.7-3.5c-1.5-1-2.9-2-4.1-3.3
									c-2.6-2.9-1.7-7.2,0.3-10.3c2.1-3.4,5.7-5.6,9.5-6.6c7.4-1.9,15.5,0.7,21.3,5.4c6.9,5.7,9.9,14.7,8.3,23.5
									c-0.4,2.4-1.1,4.8-2.3,6.9c-1.2,2.1-3.1,3.9-5.2,5.1c-2.6,1.6-4.9,1.3-7.2-0.7C741.6,107.7,740,105.5,738.3,103.4
									c-0.9-1.2-2.6,0.5-1.6,1.6c3,3.6,6.7,9.3,12.2,8.4c2.4-0.4,4.5-2,6.3-3.5c1.7-1.5,3-3.5,3.9-5.6c3.8-9.2,2.4-20.4-4-28
									c-5.5-6.4-14.3-10.5-22.8-9.9c-8.4,0.6-17.9,7-17.1,16.4c0.4,4.7,4.7,7.2,8.2,9.6c5.1,3.5,9.6,8,13.5,12.8
									C737.6,106.2,739.3,104.6,738.3,103.4z"/>
							</g>
						</g>
					</g>
					<g>
						<g>
							<g>
								<g>
									<path class="st14" d="M752.5,83.6c3.7,5.6,3.8,13.1,0.1,18.8c-0.8,1.3,1.2,2.4,2,1.2c4.1-6.3,4-14.9-0.1-21.1
										C753.6,81.2,751.6,82.4,752.5,83.6L752.5,83.6z"/>
								</g>
							</g>
						</g>
						<g>
							<g>
								<g>
									<path class="st14" d="M750,107.8c0.7-0.6,1.4-1.2,2.1-1.8c0.2-0.2,0.3-0.5,0.3-0.8c0-0.3-0.1-0.6-0.3-0.8
										c-0.2-0.2-0.5-0.4-0.8-0.3c-0.1,0-0.2,0-0.3,0c-0.2,0.1-0.4,0.2-0.5,0.3c-0.7,0.6-1.4,1.2-2.1,1.8
										c-0.2,0.2-0.3,0.5-0.3,0.8c0,0.3,0.1,0.6,0.3,0.8c0.2,0.2,0.5,0.4,0.8,0.3c0.1,0,0.2,0,0.3,0
										C749.7,108.1,749.8,108,750,107.8L750,107.8z"/>
								</g>
							</g>
						</g>
					</g>
				</g>
				<g>
					<g>
						<g>
							<g>
								<path class="st14" d="M750.4,73.1c0.3-0.5,0.4-0.7,0.8-1.1c0,0,0.3-0.2,0.1-0.1c0.1-0.1,0.2-0.1,0.3-0.2
									c0.1-0.1,0.2-0.1,0.3-0.2c0.1,0,0.1-0.1,0.2-0.1c0.2-0.1-0.1,0,0.1,0c0.2-0.1,0.5-0.1,0.7-0.2c0.1,0,0.1,0,0.2,0
									c0,0-0.2,0,0,0c0.1,0,0.3,0,0.4,0c0.1,0,0.3,0,0.4,0c0.1,0,0.1,0,0.2,0c0,0-0.2,0,0,0c0.2,0,0.5,0.1,0.7,0.2
									c0.1,0,0.3,0.1,0.1,0c0.1,0,0.2,0.1,0.3,0.1c0.1,0.1,0.2,0.1,0.3,0.2c0,0,0.1,0.1,0.1,0.1c0,0,0.2,0.1,0.1,0.1
									c0,0,0.2,0.1,0.2,0.2c0.1,0.1,0.2,0.2,0.2,0.2c0,0,0.2,0.3,0.1,0.1c0.1,0.1,0.1,0.2,0.2,0.3c0,0,0.1,0.3,0.1,0.2
									c0-0.1,0.1,0.2,0.1,0.2c0,0.1,0.1,0.2,0.1,0.3c0,0.1,0,0.1,0,0.2c0-0.1,0-0.1,0,0c0,0.2,0,0.4,0,0.7c0,0.1,0,0,0-0.1
									c0,0.1,0,0.1,0,0.2c0,0.1-0.1,0.2-0.1,0.4c0,0.1,0,0.1,0,0.1c0,0-0.1,0.2,0,0.1c0-0.1,0,0,0,0.1c0,0.1-0.1,0.1-0.1,0.2
									c-0.1,0.1-0.1,0.2-0.2,0.3c0,0-0.1,0.1-0.1,0.1c0.1-0.1,0.1-0.1,0,0c-0.1,0.1-0.2,0.2-0.3,0.3c0,0-0.1,0.1-0.1,0.1
									c-0.1,0.1,0.1-0.1,0,0c-0.1,0.1-0.2,0.1-0.3,0.2c0,0-0.1,0-0.1,0.1c-0.2,0.1,0.3-0.1-0.1,0c-0.6,0.2-1,0.8-0.8,1.4
									c0.2,0.6,0.8,1,1.4,0.8c2.5-0.9,3.9-3.8,2.9-6.3c-1-2.6-4-4-6.7-3.3c-1.5,0.4-2.9,1.5-3.6,2.9c-0.3,0.6-0.2,1.3,0.4,1.6
									C749.3,73.8,750.1,73.7,750.4,73.1L750.4,73.1z"/>
							</g>
						</g>
					</g>
					<g>
						<g>
							<g>
								<path class="st14" d="M752.6,73.6c0.4,0,0.8,0,1.1,0c0.2,0,0.3,0,0.4-0.1c0.1,0,0.3-0.1,0.4-0.2c0.1-0.1,0.2-0.2,0.2-0.4
									c0.1-0.1,0.1-0.3,0.1-0.4c0-0.1,0-0.2,0-0.3c-0.1-0.2-0.2-0.4-0.3-0.5c-0.2-0.2-0.5-0.3-0.8-0.3c-0.4,0-0.8,0-1.1,0
									c-0.2,0-0.3,0-0.4,0.1c-0.1,0-0.3,0.1-0.4,0.2c-0.1,0.1-0.2,0.2-0.2,0.4c-0.1,0.1-0.1,0.3-0.1,0.4c0,0.1,0,0.2,0,0.3
									c0.1,0.2,0.2,0.4,0.3,0.5C752,73.5,752.3,73.6,752.6,73.6L752.6,73.6z"/>
							</g>
						</g>
					</g>
				</g>
			</g>
		</g>
		<g>
			<g>
				<g>
					<g>
						<g>
							<path class="st14" d="M652.6,99.6c-0.8-1-1.5-1.9-2.3-2.9c-0.2-0.2-0.6-0.3-0.8-0.3c-0.3,0-0.6,0.1-0.8,0.3
								c-0.2,0.2-0.4,0.5-0.3,0.8c0,0.1,0,0.2,0,0.3c0.1,0.2,0.2,0.4,0.3,0.5c0.8,1,1.5,1.9,2.3,2.9c0.2,0.2,0.6,0.3,0.8,0.3
								c0.3,0,0.6-0.1,0.8-0.3c0.2-0.2,0.4-0.5,0.3-0.8c0-0.1,0-0.2,0-0.3C652.9,99.9,652.8,99.7,652.6,99.6L652.6,99.6z"/>
						</g>
					</g>
				</g>
				<g>
					<g>
						<g>
							<path class="st14" d="M645.8,108.2c-0.2-0.6-0.5-1-0.9-1.5c-0.3-0.4-0.7-0.7-1.1-1c-0.8-0.6-1.8-0.9-2.8-1.1
								c-0.3,0-0.6,0.2-0.8,0.3c-0.2,0.2-0.4,0.5-0.3,0.8c0,0.3,0.1,0.6,0.3,0.8c0.2,0.2,0.5,0.3,0.8,0.3c0,0,0.1,0,0.1,0
								c-0.1,0-0.2,0-0.3,0c0.4,0.1,0.8,0.2,1.1,0.3c-0.1,0-0.2-0.1-0.3-0.1c0.4,0.2,0.7,0.4,1,0.6c-0.1-0.1-0.2-0.1-0.2-0.2
								c0.3,0.2,0.6,0.5,0.8,0.8c-0.1-0.1-0.1-0.2-0.2-0.2c0.2,0.3,0.4,0.6,0.6,1c0-0.1-0.1-0.2-0.1-0.3c0,0,0,0,0,0
								c0.1,0.3,0.3,0.5,0.5,0.7c0.2,0.1,0.6,0.2,0.9,0.1c0.3-0.1,0.6-0.3,0.7-0.5C645.8,108.8,645.9,108.5,645.8,108.2L645.8,108.2
								z"/>
						</g>
					</g>
				</g>
			</g>
			<g>
				<g>
					<g>
						<g>
							<g>
								<path class="st14" d="M639.8,107.7c3.6-4.4,7.7-8.5,12.3-11.9c3-2.2,6.9-4,8.6-7.5c1.9-4,0.3-8.9-2.3-12.2
									c-2.7-3.4-6.6-5.7-10.8-6.7c-8.4-1.8-17.5,1.4-23.8,7.1c-7.4,6.8-9.9,17.2-7.5,26.8c1.3,5.3,4.3,10.1,9.5,12.2
									C632,118.2,636.4,111.9,639.8,107.7c0.9-1.1-0.7-2.8-1.6-1.6c-2.5,3.1-6.2,9.1-11,7.5c-4.3-1.5-7.1-5.6-8.3-9.8
									c-2.5-8.6-0.9-18.1,5.5-24.6c5.3-5.4,13.1-8.6,20.6-7.8c3.9,0.4,7.6,2,10.4,4.8c2.5,2.6,4.8,7,3.4,10.7
									c-1.4,3.5-5.7,5.3-8.5,7.4c-4.5,3.5-8.5,7.4-12.1,11.8C637.2,107.2,638.8,108.9,639.8,107.7z"/>
							</g>
						</g>
					</g>
					<g>
						<g>
							<g>
								<g>
									<path class="st14" d="M622,85.1c-4.1,6.3-4.2,14.8-0.1,21.1c0.8,1.3,2.8,0.1,2-1.2c-3.6-5.7-3.6-13.2,0.1-18.8
										C624.8,85,622.8,83.8,622,85.1L622,85.1z"/>
								</g>
							</g>
						</g>
						<g>
							<g>
								<g>
									<path class="st14" d="M628.1,108.9c-0.7-0.6-1.4-1.2-2.1-1.8c-0.2-0.2-0.5-0.3-0.8-0.3c-0.3,0-0.6,0.1-0.8,0.3
										c-0.2,0.2-0.4,0.5-0.3,0.8c0,0.3,0.1,0.6,0.3,0.8c0.7,0.6,1.4,1.2,2.1,1.8c0.2,0.2,0.5,0.3,0.8,0.3c0.3,0,0.6-0.1,0.8-0.3
										c0.2-0.2,0.4-0.5,0.3-0.8C628.4,109.4,628.3,109,628.1,108.9L628.1,108.9z"/>
								</g>
							</g>
						</g>
					</g>
				</g>
				<g>
					<g>
						<g>
							<g>
								<path class="st14" d="M628.1,74.6c-1.2-2.5-4.5-3.7-7.1-2.7c-1.2,0.5-2.4,1.3-3,2.5c-0.6,1.2-0.7,2.5-0.3,3.8
									c0.5,1.4,1.5,2.6,3,3.1c0.6,0.2,1.3-0.2,1.4-0.8c0.2-0.6-0.2-1.2-0.8-1.4c-0.2-0.1,0.1,0.1-0.1,0c-0.1,0-0.2-0.1-0.3-0.1
									c-0.1,0-0.2-0.2-0.1-0.1c-0.1-0.1-0.2-0.2-0.3-0.3c-0.1-0.1-0.1-0.2-0.2-0.2c0.1,0.2,0,0-0.1-0.1c-0.1-0.1-0.1-0.2-0.2-0.3
									c0,0,0-0.1-0.1-0.1c0,0-0.1-0.2,0-0.1c0,0.1-0.1-0.2-0.1-0.2c0-0.1-0.1-0.2-0.1-0.3c0,0-0.1-0.3,0-0.2c0,0.1,0,0,0-0.1
									c0-0.1,0-0.1,0-0.2c0-0.1,0-0.2,0-0.4c0-0.1,0-0.1,0-0.2c0,0,0,0.2,0,0.1c0-0.2,0.1-0.4,0.2-0.6c-0.1,0.2,0-0.1,0.1-0.1
									c0.1-0.1,0.1-0.2,0.2-0.3c0.1-0.2,0,0,0.1-0.1c0.1-0.1,0.2-0.2,0.3-0.3c0.1-0.1,0.2-0.2,0.3-0.3c-0.1,0.1,0.1-0.1,0.1-0.1
									c0.2-0.1,0.4-0.2,0.6-0.4c0.1-0.1,0,0,0,0c0.1,0,0.1,0,0.2-0.1c0.1,0,0.2-0.1,0.3-0.1c0.1,0,0.2-0.1,0.3-0.1
									c0.1,0,0.1,0,0.2,0c-0.1,0-0.1,0,0,0c0.2,0,0.5,0,0.7,0c0.1,0,0.1,0,0.2,0c0,0-0.2,0,0,0c0.1,0,0.3,0.1,0.4,0.1
									c1,0.3,1.7,0.9,2.2,1.8c0.3,0.6,1.1,0.7,1.6,0.4C628.2,75.8,628.4,75.2,628.1,74.6L628.1,74.6z"/>
							</g>
						</g>
					</g>
					<g>
						<g>
							<g>
								<path class="st14" d="M623.9,74c-0.4,0-0.8,0-1.1,0c-0.2,0-0.3,0-0.4,0.1c-0.1,0-0.3,0.1-0.4,0.2c-0.1,0.1-0.2,0.2-0.2,0.4
									c-0.1,0.1-0.1,0.3-0.1,0.4c0,0.1,0,0.2,0,0.3c0.1,0.2,0.2,0.4,0.3,0.5c0.2,0.2,0.5,0.3,0.8,0.3c0.4,0,0.8,0,1.1,0
									c0.2,0,0.3,0,0.4-0.1c0.1,0,0.3-0.1,0.4-0.2c0.1-0.1,0.2-0.2,0.2-0.4c0.1-0.1,0.1-0.3,0.1-0.4c0-0.1,0-0.2,0-0.3
									c-0.1-0.2-0.2-0.4-0.3-0.5C624.5,74.1,624.2,74,623.9,74L623.9,74z"/>
							</g>
						</g>
					</g>
				</g>
			</g>
		</g>
	</g>
	<g>
		<g>
			<g>
				<path class="st14" d="M688.4,144c-1.9,0-3.4-1.5-3.4-3.4s1.5-3.4,3.4-3.4c1.9,0,3.4,1.5,3.4,3.4S690.3,144,688.4,144z
					 M688.4,138.8c-1,0-1.8,0.8-1.8,1.8s0.8,1.8,1.8,1.8c1,0,1.8-0.8,1.8-1.8S689.5,138.8,688.4,138.8z"/>
			</g>
			<g>
				<g>
					<g>
						<g>
							<path class="st14" d="M684.2,137.5c7.1,7.1,14.3,14.3,21.4,21.4c1.1,1.1,2.7-0.6,1.6-1.6c-7.1-7.1-14.3-14.3-21.4-21.4
								C684.8,134.8,683.2,136.4,684.2,137.5L684.2,137.5z"/>
						</g>
					</g>
				</g>
				<g>
					<g>
						<path class="st14" d="M710.6,161.9l-11-3.3l7.4-7.3L710.6,161.9z M702.6,157.8l5.6,1.7l-1.8-5.4L702.6,157.8z"/>
					</g>
				</g>
			</g>
			<g>
				<g>
					<g>
						<g>
							<path class="st14" d="M687.3,116.7c0,8.4,0,16.7,0,25.1c0,1.5,2.3,1.5,2.3,0c0-8.4,0-16.7,0-25.1
								C689.6,115.2,687.3,115.2,687.3,116.7L687.3,116.7z"/>
						</g>
					</g>
				</g>
				<g>
					<g>
						<path class="st14" d="M692.7,119.5l-8.9-0.3l4.4-8.8L692.7,119.5z M686.3,117.8l3.9,0.1l-1.9-4L686.3,117.8z"/>
					</g>
				</g>
			</g>
		</g>
		<g>
			<g>
				<g>
					<g>
						<g>
							<path class="st14" d="M744.5,132.9c-3.4-22.1-21.3-42.2-43.4-46.8c-11.2-2.3-23.7-1.9-34.3,2.7c-10.7,4.6-19.4,14-24.9,24
								c-9.7,17.6-10.2,40.7-0.6,58.6c5,9.4,13,16.6,22.9,20.4c12,4.7,26.1,5.1,38.6,2.4c6.2-1.3,12.3-3.6,17.7-7
								c5.3-3.3,9.8-7.7,13.5-12.6c7.1-9.5,11.1-21.4,11.2-33.3C745.1,138.5,744.9,135.7,744.5,132.9c-0.2-1.5-2.5-0.8-2.2,0.6
								c3.4,23.3-9.8,48.1-32.3,56.3c-11.6,4.2-24.8,4.8-36.8,2.3c-10.7-2.3-20.2-7.7-26.6-16.6c-10.9-15.3-12.5-37-5.9-54.3
								c4.1-10.6,11.3-20.2,20.7-26.6c9.2-6.3,20.8-8,31.8-7.2c10.6,0.8,20.7,4.7,29,11.5c8.1,6.7,14.4,15.6,17.9,25.5
								c1.1,3,1.8,6.1,2.3,9.2C742.5,135,744.7,134.4,744.5,132.9z"/>
						</g>
					</g>
				</g>
				<g>
					<g>
						<g>
							<path class="st14" d="M707.1,183.5c-5.6,2.2-11.4,3.1-17.4,3.2c-5.5,0.1-11-0.4-16.3-1.8c-10.4-2.8-18.5-10.1-24-19.2
								c-5.7-9.5-8.1-20.4-6.9-31.4c1.1-9.8,5-19.4,11.8-26.5c11.4-11.8,29.3-16.4,45.2-13.1c18.9,3.9,33.6,19.8,37,38.7
								c3.3,18.8-6.7,37.6-23,47C711.4,181.6,709.3,182.7,707.1,183.5c-1.4,0.5-0.8,2.8,0.6,2.2c18.4-7.2,31.8-25,31.8-45.1
								c-0.1-20.4-14-39.8-33.3-46.5c-16.3-5.7-35.7-2.6-49.3,8.1c-17,13.4-21.3,38.5-13,58c4.1,9.6,11.2,18.8,20.6,23.8
								c5.1,2.7,10.8,4,16.6,4.6c5.8,0.6,11.7,0.6,17.5-0.4c3.1-0.5,6.2-1.4,9.1-2.5C709.1,185.2,708.5,183,707.1,183.5z"/>
						</g>
					</g>
				</g>
			</g>
			<g>
				<g>
					<g>
						<g>
							<g>
								<path class="st14" d="M686.1,93.3c0,1.2,0,2.3,0,3.5c0.8,0,1.5,0,2.3,0c0-0.8,0-1.6,0-2.5c-0.8,0-1.5,0-2.3,0
									c0,0.9,0,1.8,0,2.7c0,0.6,0.5,1.2,1.2,1.2c0.6,0,1.2-0.5,1.2-1.2c0-1,0-2,0-3c-0.8,0-1.5,0-2.3,0c0,1,0,2,0,3
									c0,0.6,0.5,1.2,1.2,1.2c0.6,0,1.2-0.5,1.2-1.2c0-0.8,0-1.5,0-2.3c0-0.6-0.5-1.2-1.2-1.2c-0.6,0-1.2,0.5-1.2,1.2
									c0,1.6,0,3.2,0,4.7c0.8,0,1.5,0,2.3,0c0-1.1,0-2.1,0-3.2c0-0.6-0.5-1.2-1.2-1.2c-0.6,0-1.2,0.5-1.2,1.2c0,1.1,0,2.1,0,3.2
									c0,0.6,0.5,1.2,1.2,1.2c0.6,0,1.2-0.5,1.2-1.2c0-1.6,0-3.2,0-4.7c-0.8,0-1.5,0-2.3,0c0,0.8,0,1.5,0,2.3c0.8,0,1.5,0,2.3,0
									c0-1,0-2,0-3c0-0.6-0.5-1.2-1.2-1.2c-0.6,0-1.2,0.5-1.2,1.2c0,1,0,2,0,3c0.8,0,1.5,0,2.3,0c0-0.9,0-1.8,0-2.7
									c0-0.6-0.5-1.2-1.2-1.2c-0.6,0-1.2,0.5-1.2,1.2c0,0.8,0,1.6,0,2.5c0,0.6,0.5,1.2,1.2,1.2c0.6,0,1.2-0.5,1.2-1.2
									c0-1.2,0-2.3,0-3.5c0-0.6-0.5-1.2-1.2-1.2C686.6,92.2,686.1,92.7,686.1,93.3L686.1,93.3z"/>
							</g>
						</g>
					</g>
					<g>
						<g>
							<g>
								<path class="st14" d="M686.1,179.9c0,2.6,0,5.1,0,7.7c0.8,0,1.5,0,2.3,0c0-0.8,0-1.6,0-2.5c-0.8,0-1.5,0-2.3,0
									c0,0.9,0,1.8,0,2.7c0,0.6,0.5,1.2,1.2,1.2c0.6,0,1.2-0.5,1.2-1.2c0-1,0-2,0-3c-0.8,0-1.5,0-2.3,0c0,1,0,2,0,3
									c0,0.6,0.5,1.2,1.2,1.2c0.6,0,1.2-0.5,1.2-1.2c0-0.8,0-1.5,0-2.3c0-0.6-0.5-1.2-1.2-1.2c-0.6,0-1.2,0.5-1.2,1.2
									c0,0.8,0,1.6,0,2.5c0.8,0,1.5,0,2.3,0c0-0.3,0-0.6,0-0.9c0-0.6-0.5-1.2-1.2-1.2c-0.6,0-1.2,0.5-1.2,1.2c0,0.3,0,0.6,0,0.9
									c0,0.6,0.5,1.2,1.2,1.2c0.6,0,1.2-0.5,1.2-1.2c0-0.8,0-1.6,0-2.5c-0.8,0-1.5,0-2.3,0c0,0.8,0,1.5,0,2.3c0.8,0,1.5,0,2.3,0
									c0-1,0-2,0-3c0-0.6-0.5-1.2-1.2-1.2c-0.6,0-1.2,0.5-1.2,1.2c0,1,0,2,0,3c0.8,0,1.5,0,2.3,0c0-0.9,0-1.8,0-2.7
									c0-0.6-0.5-1.2-1.2-1.2c-0.6,0-1.2,0.5-1.2,1.2c0,0.8,0,1.6,0,2.5c0,0.6,0.5,1.2,1.2,1.2c0.6,0,1.2-0.5,1.2-1.2
									c0-2.6,0-5.1,0-7.7c0-0.6-0.5-1.2-1.2-1.2C686.6,178.7,686.1,179.3,686.1,179.9L686.1,179.9z"/>
							</g>
						</g>
					</g>
				</g>
				<g>
					<g>
						<g>
							<g>
								<path class="st14" d="M641.3,141.8c0.7,0,1.4,0,2.1,0c0-0.8,0-1.5,0-2.3c-0.8,0-1.6,0-2.5,0c0,0.8,0,1.5,0,2.3
									c0.9,0,1.8,0,2.7,0c1.5,0,1.5-2.3,0-2.3c-0.6,0-1.2,0-1.8,0c0,0.8,0,1.5,0,2.3c0.6,0,1.2,0,1.8,0c1.5,0,1.5-2.3,0-2.3
									c-0.8,0-1.5,0-2.3,0C639.8,139.5,639.8,141.8,641.3,141.8c2.8,0,5.5,0,8.3,0c0-0.8,0-1.5,0-2.3c-2.2,0-4.5,0-6.7,0
									c-1.5,0-1.5,2.3,0,2.3c2.2,0,4.5,0,6.7,0c1.5,0,1.5-2.3,0-2.3c-2.8,0-5.5,0-8.3,0C641.3,140.3,641.3,141,641.3,141.8
									c0.8,0,1.5,0,2.3,0c0-0.8,0-1.5,0-2.3c-0.6,0-1.2,0-1.8,0c-1.5,0-1.5,2.3,0,2.3c0.6,0,1.2,0,1.8,0c0-0.8,0-1.5,0-2.3
									c-0.9,0-1.8,0-2.7,0c-1.5,0-1.5,2.3,0,2.3c0.8,0,1.6,0,2.5,0c1.5,0,1.5-2.3,0-2.3c-0.7,0-1.4,0-2.1,0
									C639.8,139.5,639.8,141.8,641.3,141.8L641.3,141.8z"/>
							</g>
						</g>
					</g>
					<g>
						<g>
							<g>
								<path class="st14" d="M730.7,141.8c1.2,0,2.3,0,3.5,0c0-0.8,0-1.5,0-2.3c-0.8,0-1.6,0-2.5,0c0,0.8,0,1.5,0,2.3
									c0.9,0,1.8,0,2.7,0c0.6,0,1.2-0.5,1.2-1.2c0-0.6-0.5-1.2-1.2-1.2c-1,0-2,0-3,0c0,0.8,0,1.5,0,2.3c1,0,2,0,3,0
									c0.6,0,1.2-0.5,1.2-1.2c0-0.6-0.5-1.2-1.2-1.2c-0.8,0-1.5,0-2.3,0c-0.6,0-1.2,0.5-1.2,1.2c0,0.6,0.5,1.2,1.2,1.2
									c2,0,4,0,5.9,0c0-0.8,0-1.5,0-2.3c-1.5,0-2.9,0-4.4,0c-0.6,0-1.2,0.5-1.2,1.2c0,0.6,0.5,1.2,1.2,1.2c1.5,0,2.9,0,4.4,0
									c0.6,0,1.2-0.5,1.2-1.2c0-0.6-0.5-1.2-1.2-1.2c-2,0-4,0-5.9,0c0,0.8,0,1.5,0,2.3c0.8,0,1.5,0,2.3,0c0-0.8,0-1.5,0-2.3
									c-1,0-2,0-3,0c-0.6,0-1.2,0.5-1.2,1.2c0,0.6,0.5,1.2,1.2,1.2c1,0,2,0,3,0c0-0.8,0-1.5,0-2.3c-0.9,0-1.8,0-2.7,0
									c-0.6,0-1.2,0.5-1.2,1.2c0,0.6,0.5,1.2,1.2,1.2c0.8,0,1.6,0,2.5,0c0.6,0,1.2-0.5,1.2-1.2c0-0.6-0.5-1.2-1.2-1.2
									c-1.2,0-2.3,0-3.5,0c-0.6,0-1.2,0.5-1.2,1.2C729.6,141.3,730.1,141.8,730.7,141.8L730.7,141.8z"/>
							</g>
						</g>
					</g>
				</g>
			</g>
			<g>
				<g>
					<g>
						<g>
							<path class="st14" d="M705.2,103.2c5.4,2,10.2,5.5,13.8,10c0.4,0.5,1.2,0.4,1.6,0c0.5-0.5,0.4-1.1,0-1.6
								c-3.8-4.9-9-8.5-14.8-10.6C704.4,100.4,703.8,102.6,705.2,103.2L705.2,103.2z"/>
						</g>
					</g>
				</g>
				<g>
					<g>
						<g>
							<path class="st14" d="M721.7,117.2c0.8,1.2,1.5,2.4,2.3,3.6c0.3,0.5,1,0.8,1.6,0.4c0.5-0.3,0.8-1,0.4-1.6
								c-0.8-1.2-1.5-2.4-2.3-3.6c-0.3-0.5-1-0.8-1.6-0.4C721.6,115.9,721.4,116.6,721.7,117.2L721.7,117.2z"/>
						</g>
					</g>
				</g>
			</g>
		</g>
	</g>
</g>
<path class="st14" d="M296.8,669"/>
<path class="st15" d="M299.7,668.4c0,0-30.6-100,6.1-201.3"/>
<path class="st15" d="M374,280.1c0,0,60.6-132.7,231.1-139.3"/>
<path class="st15" d="M783.2,129.2c0,0,206.2-32,331.5,136.7"/>
<circle class="st0" cx="208.9" cy="582.1" r="14.2"/>
<circle class="st0" cx="1066.5" cy="258.8" r="7.1"/>
<circle class="st0" cx="519.8" cy="107.6" r="22.8"/>
<circle class="st0" cx="395.7" cy="466.1" r="8.1"/>
<circle class="st0" cx="928.9" cy="109.7" r="14.2"/>
</svg>
