<svg width="35" height="36" viewBox="0 0 35 36" fill="none" xmlns="http://www.w3.org/2000/svg">
<path d="M3.97728 36C2.88353 36 1.94688 35.608 1.16733 34.824C0.387787 34.04 -0.00132238 33.0987 3.37629e-06 32V4C3.37629e-06 2.9 0.389776 1.958 1.16932 1.174C1.94887 0.390003 2.88485 -0.00132994 3.97728 3.39559e-06H15.9091C16.4725 3.39559e-06 16.9452 0.192004 17.327 0.576003C17.7088 0.960003 17.8991 1.43467 17.8977 2C17.8977 2.56667 17.7068 3.042 17.325 3.426C16.9432 3.81 16.4712 4.00134 15.9091 4H3.97728V32H15.9091C16.4725 32 16.9452 32.192 17.327 32.576C17.7088 32.96 17.8991 33.4347 17.8977 34C17.8977 34.5667 17.7068 35.042 17.325 35.426C16.9432 35.81 16.4712 36.0013 15.9091 36H3.97728ZM28.1889 20H13.9205C13.357 20 12.8844 19.808 12.5026 19.424C12.1207 19.04 11.9305 18.5653 11.9318 18C11.9318 17.4333 12.1227 16.958 12.5045 16.574C12.8864 16.19 13.3583 15.9987 13.9205 16H28.1889L24.4602 12.25C24.0956 11.8833 23.9134 11.4333 23.9134 10.9C23.9134 10.3667 24.0956 9.9 24.4602 9.5C24.8248 9.1 25.2888 8.89133 25.8523 8.874C26.4157 8.85667 26.8963 9.04867 27.294 9.45L34.4034 16.6C34.8011 17 35 17.4667 35 18C35 18.5333 34.8011 19 34.4034 19.4L27.294 26.55C26.8963 26.95 26.4237 27.142 25.8761 27.126C25.3286 27.11 24.8566 26.9013 24.4602 26.5C24.0956 26.1 23.9213 25.6247 23.9372 25.074C23.9531 24.5233 24.144 24.0653 24.5099 23.7L28.1889 20Z" fill="#565656"/>
</svg>
