<?xml version="1.0" encoding="utf-8"?>
<!-- Generator: Adobe Illustrator 21.0.0, SVG Export Plug-In . SVG Version: 6.00 Build 0)  -->
<svg version="1.1" id="Layer_1" xmlns:svgjs="http://svgjs.com/svgjs"
	 xmlns="http://www.w3.org/2000/svg" xmlns:xlink="http://www.w3.org/1999/xlink" x="0px" y="0px" viewBox="0 0 1600 1200"
	 style="enable-background:new 0 0 1600 1200;" xml:space="preserve">
<style type="text/css">
	.st0{fill:#EFFAFF;}
	.st1{fill:#DEEFF7;}
	.st2{fill:none;stroke:#333333;stroke-width:2;stroke-linecap:round;stroke-linejoin:round;}
	.st3{fill:#48466D;stroke:#333333;stroke-width:2;stroke-linecap:round;stroke-linejoin:round;}
	.st4{fill:#78C7E0;}
	.st5{fill:#3D84A8;stroke:#333333;stroke-width:2;stroke-linecap:round;stroke-linejoin:round;}
	.st6{fill:#FFFFFF;stroke:#333333;stroke-width:2;stroke-linecap:round;stroke-linejoin:round;}
	.st7{fill:#78C7E0;stroke:#333333;stroke-width:2;stroke-linecap:round;stroke-linejoin:round;}
	.st8{fill:#EFDCD7;}
	.st9{fill:#AC704E;}
	.st10{fill:#E7996C;}
	.st11{fill:none;stroke:#B53F89;stroke-width:4;stroke-linecap:round;stroke-linejoin:round;}
	.st12{fill:#FFC930;}
	.st13{fill:#FFA0DC;}
	.st14{opacity:0.2;fill:#E9AD01;enable-background:new    ;}
	.st15{fill:#690F00;}
	.st16{fill:#FF4F32;}
	.st17{fill:#070606;}
	.st18{fill:#141414;}
	.st19{fill:#3C2C5B;}
	.st20{fill:none;stroke:#000000;stroke-width:4;stroke-linecap:round;stroke-linejoin:round;}
	.st21{opacity:0.2;fill:#690F00;enable-background:new    ;}
	.st22{fill:#9E76DD;}
	.st23{fill:none;stroke:#6D6973;stroke-width:4;stroke-linecap:round;stroke-linejoin:round;}
	.st24{fill:#6D6973;}
	.st25{opacity:0.2;fill:#C72B8E;enable-background:new    ;}
	.st26{fill:none;stroke:#C72B8E;stroke-width:4;stroke-linecap:round;stroke-linejoin:round;}
	.st27{fill:none;stroke:#FFFEFC;stroke-width:4;stroke-linecap:round;stroke-linejoin:round;}
</style>
<rect class="st0" width="1600" height="1200"/>
<g>
	<path class="st1" d="M1346.2,697c-4.2-44.9-22.8-86.4-44.4-126.2c-8.1-15.1-18.3-28.9-29.6-42.2c12.4-30.1,21-61.3,23-94
		c2.7-45.9-12.1-94.7-39.7-132.6c-56.6-77.5-147.3-120.1-244.6-134c-93.7-13.4-192.5-18.1-287-8.1c-49.5,5.1-99,12.9-146.1,29.4
		c-47.9,16.9-89.4,38.7-129.3,68.3c-20.8,15.5-39.7,32.8-56.5,52.3c-79.7,72.6-129.3,170.6-137.7,276.5
		C244.1,715.3,305.8,852.3,412.5,934c108.1,82.4,247.7,120.1,386.2,111.1c74.3-4.8,147.3-19.9,217.1-44.4
		c68.1-23.8,137.7-52.7,197.9-91.2C1288.7,862.1,1354.8,786.8,1346.2,697z"/>
</g>
<g>
	<path class="st2" d="M1173.3,556.7l87.8-18.1"/>
	<path class="st2" d="M339,729.3l87.8-18.1"/>
	<path class="st2" d="M1118.3,843.4l74.9,49.1"/>
	<path class="st2" d="M406.9,375.4l74.9,49.1"/>
	<path class="st2" d="M704.6,172.9l18.1,87.8"/>
	<path class="st2" d="M590.6,952.2l-49.1,74.9"/>
	<path class="st2" d="M1058.6,240.8l-49.1,74.9"/>
</g>
<g>
	<path class="st3" d="M1361,260.6v-85.1H1276L1361,260.6z"/>
</g>
<g>
	<path class="st4" d="M378.1,194.4l-4.9,8l34.9,8.9l-34.9,8.9l18.5,30.9l-31-18.5l-8.9,35.1l-8.9-35.1L312,251.1l18.5-30.9
		l-35.1-8.9l35.1-8.9l-18.5-31l30.9,18.5l8.9-34.9l8.9,34.9l31-18.5l-9.1,15.2"/>
	<path class="st2" d="M378.1,194.4l-4.9,8l34.9,8.9l-34.9,8.9l18.5,30.9l-31-18.5l-8.9,35.1l-8.9-35.1L312,251.1l18.5-30.9
		l-35.1-8.9l35.1-8.9l-18.5-31l30.9,18.5l8.9-34.9l8.9,34.9l31-18.5l-9.1,15.2"/>
</g>
<g>
	<path class="st5" d="M215.4,583.7c11.9,0,21.6,9.7,21.6,21.6c0,11.9-9.7,21.6-21.6,21.6c-11.9,0-21.6-9.7-21.6-21.6
		C193.8,593.4,203.5,583.7,215.4,583.7z"/>
	<path class="st3" d="M164.1,669.4c6.8,0,12.4,5.5,12.4,12.4c0,6.8-5.6,12.4-12.4,12.4c-6.8,0-12.4-5.5-12.4-12.4
		C151.8,675,157.3,669.4,164.1,669.4z"/>
	<path class="st6" d="M1289.6,1029.2c6.8,0,12.4,5.6,12.4,12.4c0,6.8-5.6,12.4-12.4,12.4c-6.8,0-12.4-5.6-12.4-12.4
		C1277.2,1034.8,1282.7,1029.2,1289.6,1029.2z"/>
	<path class="st7" d="M1419.8,511.2c3.1,19-9.8,36.9-28.8,40c-19,3.1-36.9-9.8-40-28.8c-3.1-19,9.8-36.9,28.8-40
		C1398.8,479.4,1416.7,492.3,1419.8,511.2z"/>
</g>
<g>
	<path class="st8" d="M1117,691.9c-6.5,77.2-132.8,146-252.6,165.8c-120.1,20.2-234-9.4-301.1-104.5
		c-66.7-94.9-86.5-255.5-22.8-317.8s211.3-26.8,341.1,33.7S1124,614.9,1117,691.9z"/>
</g>
<g>
	<path class="st9" d="M936.6,378.3c31.7-5.3,61.4,11.4,61.4,11.4s-21.6,25.2-53.2,30.6c-31.6,5.3-61.4-11.4-61.4-11.4
		S905,383.6,936.6,378.3z"/>
	<path class="st10" d="M998.2,389.6c0,0-21.6,25.2-53.2,30.6c-31.6,5.3-61.4-11.4-61.4-11.4L998.2,389.6z"/>
	<path class="st11" d="M877.6,441l7.4-55.4"/>
	<path class="st12" d="M985.8,689.8c8.1-61.3-32.6-88.7-36.6-126.4c-6.2-58.4,5.5-115.7-70.6-126.2l-0.8-0.1
		c-76-9.8-79.7,48.7-101.1,103.5c-13.8,35.4-60.4,51.2-68.5,112.5c-8.5,64.3,46.4,124.6,122.8,135.2l0.8,0.1
		C908.5,798.1,977.3,754,985.8,689.8z"/>
	<path class="st13" d="M826.7,661.4c7.8-7.4,11.2-16.3,7.5-19.9c-3.7-3.6-13-0.4-20.8,7c-7.8,7.4-11.2,16.3-7.5,19.8
		C809.5,671.9,818.8,668.8,826.7,661.4z"/>
	<path class="st13" d="M888.4,679.4c4.5-2.5,3.5-12-2.2-21.2c-5.7-9.2-13.9-14.7-18.4-12.2c-4.5,2.5-3.5,12,2.2,21.2
		C875.7,676.4,883.9,681.9,888.4,679.4z"/>
	<path class="st14" d="M949.2,563.4c-6.2-58.4,5.5-115.7-70.6-126.2l-0.8-0.1c-13.3-1.8-24.4-1.3-33.7,0.8
		c40.2,21,33.1,68.5,38.2,116.7c4,37.7,44.8,65.1,36.6,126.4c-7.3,54.7-58.1,94.6-120.5,99.4c10.3,3.6,21.1,6.3,32.6,7.8l0.8,0.1
		c76.7,9.7,145.4-34.3,154-98.5C993.9,628.5,953.2,601.2,949.2,563.4z"/>
</g>
<g>
	<path class="st15" d="M693.2,611.6c0,0,0.3-45.6-11.4-58c-21.4,17.8-48.6,27.3-76.5,27.2c1.4,20.7,42.2,59.4,42.2,59.4L693.2,611.6
		z"/>
	<path class="st16" d="M714.2,538.7c-27,2.4-49.2,24.1-61.1,55.6c-29.3-16.5-60.2-19.2-82.5-3.9c-36.9,25.3-36.2,90.3,1.4,144.9
		c37.6,54.6,98,78.4,134.8,53c4.5-3.1,8.6-7,12.1-11.3c5.5,1.2,11,1.5,16.5,1c44.5-4,76-60.7,70.1-126.9
		C799.6,585,758.8,534.8,714.2,538.7z"/>
	<path class="st17" d="M712.3,668.5c3.1-9.5,2-18.5-2.5-19.9c-4.5-1.5-10.7,5.1-13.8,14.6c-3.1,9.5-2,18.5,2.5,19.9
		C702.9,684.6,709.1,678.1,712.3,668.5z"/>
	<path class="st17" d="M674.9,691.6c2.5-4-2.3-11.6-10.8-17c-8.5-5.4-17.4-6.4-20-2.4c-2.5,4,2.3,11.6,10.8,17
		C663.4,694.5,672.4,695.6,674.9,691.6z"/>
	<path class="st18" d="M612.3,525.7c19.6,4.4,32,23.9,32.9,25.2c0,0.1,0,0.1-0.1,0.1c-1.4,0.9-20.9,13.1-40.6,8.6
		c-19.7-4.5-32-24-32.9-25.2c0-0.1,0-0.1,0.1-0.1C573,533.4,592.8,521.2,612.3,525.7z"/>
	<path class="st19" d="M612.3,525.7c19.2,4.3,31.5,23,32.9,25.1c0,0.1-0.1,0.1-0.2,0.2l-73.1-16.5c-0.1,0-0.2-0.1-0.1-0.2
		C574,532.9,593.2,521.3,612.3,525.7z"/>
	<path class="st20" d="M652.5,593.7c0,0-12.3-34.1-2-69.6"/>
	<path class="st21" d="M784.7,583.6c0-0.1-0.2,0-0.2,0.1c7.1,49.1-14.1,106.4-60.2,148.5c-31.4,28.7-68.8,45.2-104.8,49.3
		c-0.1,0-0.1,0.2,0,0.2c30.7,19.1,63.7,22.8,87.2,6.6c4.5-3.1,8.6-7,12.1-11.3c5.5,1.2,11,1.5,16.5,1c44.5-4,76-60.7,70.1-126.9
		C803.3,625.4,795.6,602.1,784.7,583.6z"/>
</g>
<g>
	<path class="st22" d="M596.8,796.8c-15.2,0-31.5-10.2-41.5-26c-8.3-13-11.4-27.9-8.5-40.8c2-9,6.7-16.1,13.7-20.5
		c4.8-3,10.2-4.5,16.2-4.5c6.7,0,13.8,2,20.5,5.7c6.7-3.8,13.8-5.8,20.5-5.8c6,0,11.4,1.5,16.3,4.6c17.3,11.1,19.7,38.6,5.3,61.3
		c-10,15.8-26.3,26-41.5,26H596.8z"/>
	<path class="st23" d="M597.2,687.5v24"/>
	<path class="st24" d="M606.5,756.1c-0.2,0-0.4,0-0.6-0.1c-1.8-0.7-2.2-4.4-0.8-8.3c1.3-3.5,3.5-6,5.3-6c0.2,0,0.4,0,0.6,0.1
		c0.9,0.3,1.5,1.4,1.6,2.9c0.1,1.6-0.1,3.5-0.8,5.4C610.5,753.6,608.3,756.1,606.5,756.1z"/>
	<path class="st24" d="M587.5,756c-1.8,0-4.1-2.5-5.3-6c-0.7-1.9-1-3.8-0.8-5.4c0.1-1.6,0.7-2.6,1.6-2.9c0.2-0.1,0.4-0.1,0.6-0.1
		c1.8,0,4.1,2.5,5.3,6c0.7,1.9,1,3.8,0.8,5.4c-0.1,1.6-0.7,2.6-1.6,2.9C587.9,756,587.7,756,587.5,756z"/>
</g>
<g>
	<path class="st13" d="M657.6,804.7c21.9,0,39.6-17.7,39.6-39.6c0-21.9-17.7-39.6-39.6-39.6c-21.9,0-39.6,17.7-39.6,39.6
		C618,787,635.7,804.7,657.6,804.7z"/>
	<path class="st25" d="M678.7,731.6c4.4,6.9,6.6,15.1,6,23.8c-1.5,21.9-20.5,38.3-42.3,36.7c-6.7-0.4-13-2.6-18.4-6
		c6.5,10.4,17.8,17.5,30.8,18.5c21.9,1.5,40.8-14.9,42.3-36.7C698.3,752.9,690.7,739.2,678.7,731.6z"/>
	<path class="st26" d="M633.8,759.1l3.7-3.7"/>
	<path class="st26" d="M647.3,745.3l3.7-3.8"/>
	<path class="st26" d="M648.1,755.8l-2.1-2"/>
	<path class="st26" d="M638.8,746.8l-2.1-2"/>
</g>
<g>
	<path class="st27" d="M1072.7,752.5v35.6"/>
	<path class="st27" d="M1090.5,770.3h-35.6"/>
</g>
<g>
	<path class="st27" d="M1030.5,432.8v35.6"/>
	<path class="st27" d="M1048.3,450.6h-35.6"/>
</g>
<g>
	<path class="st27" d="M531,572.6l-69.3-8.8"/>
	<path class="st27" d="M492,602.9l8.8-69.3"/>
</g>
</svg>
