<svg width="28" height="32" viewBox="0 0 28 32" fill="none" xmlns="http://www.w3.org/2000/svg">
<path d="M23.3333 32C22.037 32 20.9352 31.5333 20.0278 30.6C19.1204 29.6667 18.6667 28.5333 18.6667 27.2C18.6667 27.0133 18.6796 26.8197 18.7056 26.6192C18.7315 26.4187 18.7704 26.2389 18.8222 26.08L7.85556 19.52C7.41482 19.92 6.92222 20.2336 6.37778 20.4608C5.83333 20.688 5.26296 20.8011 4.66667 20.8C3.37037 20.8 2.26852 20.3333 1.36111 19.4C0.453704 18.4667 0 17.3333 0 16C0 14.6667 0.453704 13.5333 1.36111 12.6C2.26852 11.6667 3.37037 11.2 4.66667 11.2C5.26296 11.2 5.83333 11.3136 6.37778 11.5408C6.92222 11.768 7.41482 12.0811 7.85556 12.48L18.8222 5.92C18.7704 5.76 18.7315 5.58027 18.7056 5.3808C18.6796 5.18133 18.6667 4.98773 18.6667 4.8C18.6667 3.46667 19.1204 2.33333 20.0278 1.4C20.9352 0.466667 22.037 0 23.3333 0C24.6296 0 25.7315 0.466667 26.6389 1.4C27.5463 2.33333 28 3.46667 28 4.8C28 6.13333 27.5463 7.26667 26.6389 8.2C25.7315 9.13333 24.6296 9.6 23.3333 9.6C22.737 9.6 22.1667 9.48693 21.6222 9.2608C21.0778 9.03467 20.5852 8.72107 20.1444 8.32L9.17778 14.88C9.22963 15.04 9.26852 15.2203 9.29445 15.4208C9.32037 15.6213 9.33333 15.8144 9.33333 16C9.33333 16.1867 9.32037 16.3803 9.29445 16.5808C9.26852 16.7813 9.22963 16.9611 9.17778 17.12L20.1444 23.68C20.5852 23.28 21.0778 22.9669 21.6222 22.7408C22.1667 22.5147 22.737 22.4011 23.3333 22.4C24.6296 22.4 25.7315 22.8667 26.6389 23.8C27.5463 24.7333 28 25.8667 28 27.2C28 28.5333 27.5463 29.6667 26.6389 30.6C25.7315 31.5333 24.6296 32 23.3333 32Z" fill="#C3C2C2"/>
</svg>
