<svg width="62" height="59" viewBox="0 0 62 59" fill="none" xmlns="http://www.w3.org/2000/svg">
<path d="M47.4741 58.9998C46.6469 59.0013 45.8384 58.7541 45.1541 58.2903L31.1965 48.9542C31.1277 48.9068 31.0461 48.8814 30.9626 48.8814C30.879 48.8814 30.7975 48.9068 30.7287 48.9542L16.7711 58.2903C16.0702 58.7573 15.2435 59.0005 14.4009 58.9876C13.5582 58.9747 12.7394 58.7063 12.0532 58.218C11.367 57.7297 10.8459 57.0447 10.559 56.2538C10.2722 55.463 10.2331 54.6038 10.4471 53.7903L15.0311 37.6575C15.0528 37.5763 15.0501 37.4907 15.0235 37.411C14.9969 37.3314 14.9475 37.2613 14.8814 37.2093L1.67219 26.8463C0.976818 26.3293 0.461003 25.6081 0.197075 24.7837C-0.0668529 23.9594 -0.0656588 23.0733 0.20049 22.2497C0.466639 21.4261 0.984396 20.7063 1.68116 20.1912C2.37793 19.6761 3.21877 19.3915 4.08577 19.3774L20.9247 18.7425C21.0075 18.7368 21.0869 18.7073 21.1533 18.6576C21.2197 18.608 21.2702 18.5402 21.2989 18.4624L27.099 2.72176C27.3913 1.92378 27.9223 1.23474 28.6201 0.747911C29.3178 0.261087 30.1486 0 31 0C31.8514 0 32.6822 0.261087 33.3799 0.747911C34.0777 1.23474 34.6087 1.92378 34.901 2.72176L40.7011 18.4624C40.7298 18.5402 40.7803 18.608 40.8467 18.6576C40.9131 18.7073 40.9925 18.7368 41.0753 18.7425L57.9142 19.3774C58.7812 19.3915 59.6221 19.6761 60.3188 20.1912C61.0156 20.7063 61.5334 21.4261 61.7995 22.2497C62.0657 23.0733 62.0668 23.9594 61.8029 24.7837C61.539 25.6081 61.0232 26.3293 60.3278 26.8463L47.1186 37.2093C47.0505 37.2596 46.9995 37.3296 46.9728 37.4098C46.946 37.49 46.9446 37.5765 46.9689 37.6575L51.5529 53.7903C51.7137 54.4091 51.7297 55.0565 51.5995 55.6825C51.4693 56.3084 51.1964 56.8961 50.802 57.3998C50.4076 57.9036 49.9022 58.3099 49.3251 58.5874C48.748 58.8648 48.1146 59.006 47.4741 58.9998ZM30.9719 45.145C31.8007 45.1692 32.6028 45.4425 33.2733 45.9293L47.2309 55.2654C47.3016 55.319 47.3878 55.3484 47.4767 55.3491C47.5655 55.3498 47.6522 55.3218 47.7238 55.2693C47.7954 55.2167 47.848 55.1425 47.8738 55.0577C47.8996 54.9728 47.8972 54.8819 47.867 54.7986L43.2831 38.6658C43.0575 37.8744 43.0741 37.0337 43.3308 36.2519C43.5876 35.47 44.0726 34.7825 44.7237 34.2778L57.9329 23.9147C58.005 23.8642 58.0589 23.792 58.0868 23.7086C58.1147 23.6253 58.115 23.5352 58.0878 23.4516C58.0606 23.368 58.0072 23.2954 57.9356 23.2443C57.8639 23.1932 57.7778 23.1664 57.6897 23.1678L40.8508 22.533C40.0263 22.5009 39.23 22.2245 38.5635 21.7389C37.8971 21.2534 37.3906 20.5808 37.1088 19.8068L31.3087 4.06616C31.2826 3.98258 31.2303 3.90953 31.1597 3.85766C31.089 3.80579 31.0035 3.77781 30.9158 3.77781C30.8281 3.77781 30.7426 3.80579 30.672 3.85766C30.6013 3.90953 30.549 3.98258 30.5229 4.06616L24.779 19.7882C24.4971 20.5621 23.9906 21.2347 23.3242 21.7203C22.6577 22.2058 21.8615 22.4822 21.037 22.5143L4.19803 23.1492C4.10999 23.1477 4.02381 23.1745 3.95216 23.2256C3.8805 23.2767 3.82715 23.3493 3.79993 23.4329C3.77271 23.5165 3.77307 23.6066 3.80095 23.6899C3.82882 23.7733 3.88275 23.8455 3.95481 23.896L17.1827 34.2778C17.8318 34.7841 18.3154 35.4717 18.572 36.2531C18.8285 37.0344 18.8464 37.8742 18.6234 38.6658L14.0582 54.7986C14.0309 54.8793 14.0308 54.9668 14.0578 55.0476C14.0848 55.1285 14.1375 55.1984 14.2078 55.2467C14.2756 55.3046 14.3619 55.3363 14.4511 55.3363C14.5403 55.3363 14.6265 55.3046 14.6943 55.2467L28.6519 45.9106C29.3331 45.457 30.1343 45.2164 30.9532 45.2197L30.9719 45.145Z" fill="#F2C14E"/>
</svg>
