<svg width="62" height="59" viewBox="0 0 62 59" fill="none" xmlns="http://www.w3.org/2000/svg">
<path d="M32.8523 1.14575C32.6814 0.801713 32.4174 0.51215 32.0902 0.309709C31.763 0.107268 31.3856 0 31.0006 0C30.6156 0 30.2382 0.107268 29.911 0.309709C29.5838 0.51215 29.3198 0.801713 29.1489 1.14575L20.6879 18.2389L1.76967 20.9799C1.38795 21.0351 1.02937 21.1958 0.734484 21.4438C0.439597 21.6917 0.220176 22.017 0.101044 22.3828C-0.0180881 22.7487 -0.0321768 23.1405 0.0603719 23.5139C0.152921 23.8873 0.348413 24.2274 0.624732 24.4958L14.3143 37.8009L11.0821 56.5922C11.0172 56.971 11.0598 57.3602 11.2051 57.7161C11.3503 58.0719 11.5925 58.3802 11.9041 58.6061C12.2158 58.832 12.5845 58.9666 12.9688 58.9945C13.353 59.0225 13.7375 58.9428 14.0787 58.7644L31.0006 49.8902L47.9225 58.7644C48.2637 58.9428 48.6482 59.0225 49.0324 58.9945C49.4167 58.9666 49.7854 58.832 50.0971 58.6061C50.4087 58.3802 50.6509 58.0719 50.7961 57.7161C50.9414 57.3602 50.984 56.971 50.9191 56.5922L47.6869 37.7968L61.3765 24.4958C61.6528 24.2274 61.8483 23.8873 61.9408 23.5139C62.0334 23.1405 62.0193 22.7487 61.9002 22.3828C61.781 22.017 61.5616 21.6917 61.2667 21.4438C60.9718 21.1958 60.6132 21.0351 60.2315 20.9799L41.3133 18.2389L32.8523 1.14575Z" fill="#F2C14E"/>
</svg>
